{
.appVersion = "3207";
.formatVersion = 3;
DisplayStrings = (
"/.notdef"
);
axes = (
{
name = Weight;
tag = wght;
}
);
classes = (
{
automatic = 1;

glyphs = (
{
glyphname = A;
kernLeft = A;
kernRight = A;
layers = (
{
anchors = (
{
name = bottom;
pos = (288,0);
},
{
name = ogonek;
pos = (614,0);
},
{
name = top;
pos = (406,692);
}
);
background = {
anchors = (
{
name = bottom;
pos = (288,0);
},
{
name = ogonek;
pos = (614,0);
},
{
name = top;
pos = (406,692);
}
);
shapes = (
{
closed = 1;
nodes = (
(415,693,l),
(395,691,l),
(50,22,l),
(59,29,l),
(-32,15,l),
(-35,0,l),
(181,0,l),
(184,15,l),
(67,29,l),
(71,22,l),
(168,213,l),
(158,206,l),
(488,206,l),
(481,213,l),
(514,22,l),
(519,29,l),
(397,15,l),
(394,0,l),
(614,0,l),
(616,15,l),
(528,29,l),
(535,22,l)
);
},
{
closed = 1;
nodes = (
(404,672,l),
(400,672,l),
(480,219,l),
(485,225,l),
(167,225,l),
(171,219,l)
);
}
);
};
guides = (
{
angle = 90;
pos = (1209,-200);
},
{
angle = 90;
pos = (1188,-200);
}
);
layerId = "075BA79B-D813-4287-A9DD-CCAF2D535ED3";
shapes = (
{
closed = 1;
nodes = (
(415,693,l),
(395,691,l),
(50,22,l),
(59,29,l),
(-32,15,l),
(-35,0,l),
(181,0,l),
(184,15,l),
(67,29,l),
(71,22,l),
(168,213,l),
(158,206,l),
(488,206,l),
(481,213,l),
(514,22,l),
(519,29,l),
(397,15,l),
(394,0,l),
(614,0,l),
(616,15,l),
(528,29,l),
(535,22,l)
);
},
{
closed = 1;
nodes = (
(404,672,l),
(400,672,l),
(480,219,l),
(485,225,l),
(167,225,l),
(171,219,l)
);
}
);
width = 662;
},
{
anchors = (
{
name = bottom;
pos = (297,0);
},
{
name = ogonek;
pos = (649,0);
},
{
name = top;
pos = (426,710);
}
);
background = {
anchors = (
{
name = bottom;
pos = (297,0);
},
{
name = ogonek;
pos = (649,0);
},
{
name = top;
pos = (426,710);
}
);
shapes = (
{
closed = 1;
nodes = (
(525,713,l),
(320,708,l),
(5,94,l),
(59,133,l),
(-21,100,l),
(-37,0,l),
(230,0,l),
(246,100,l),
(194,127,l),
(195,105,l),
(239,203,l),
(213,180,l),
(428,180,l),
(417,205,l),
(429,104,l),
(437,131,l),
(379,100,l),
(363,0,l),
(649,0,l),
(665,100,l),
(598,135,l),
(639,89,l)
);
},
{
closed = 1;
nodes = (
(420,604,l),
(371,605,l),
(408,286,l),
(421,320,l),
(272,320,l),
(279,291,l)
);
}
);
};
layerId = "927AED37-E9E6-4F96-A08E-421C3785EFC6";
shapes = (
{
closed = 1;
nodes = (
(525,713,l),
(320,708,l),
(5,94,l),
(59,133,l),
(-21,100,l),
(-37,0,l),
(230,0,l),
(246,100,l),
(194,127,l),
(195,105,l),
(239,203,l),
(213,180,l),
(428,180,l),
(417,205,l),
(429,104,l),
(437,131,l),
(379,100,l),
(363,0,l),
(649,0,l),
(665,100,l),
(598,135,l),
(639,89,l)
);
},
{
closed = 1;
nodes = (
(420,604,l),
(371,605,l),
(408,286,l),
(421,320,l),
(272,320,l),
(279,291,l)
);
}
);
width = 699;
}
);
unicode = 65;
},
{
glyphname = AE;
kernLeft = A;
kernRight = E;
layers = (
{
anchors = (
{
name = bottom;
pos = (436,0);
},
{
name = top;
pos = (641,692);
}
);
background = {
anchors = (
{
name = bottom;
pos = (436,0);
},
{
name = top;
pos = (641,692);
}
);
shapes = (
{
closed = 1;
nodes = (
(185,0,l),
(187,15,l),
(73,29,l),
(76,22,l),
(219,232,l),
(208,226,l),
(469,226,l),
(463,233,l),
(430,21,l),
(438,29,l),
(333,15,l),
(331,0,l),
(794,0,l),
(817,141,l),
(802,141,l),
(768,12,l),
(776,19,l),
(442,19,l),
(448,12,l),
(502,353,l),
(494,346,l),
(771,346,l),
(774,365,l),
(497,365,l),
(503,358,l),
(553,680,l),
(545,673,l),
(867,673,l),
(861,680,l),
(856,556,l),
(870,556,l),
(891,692,l),
(556,692,l),
(408,687,l),
(405,672,l),
(499,664,l),
(496,671,l),
(55,22,l),
(66,29,l),
(-33,15,l),
(-35,0,l)
);
},
{
closed = 1;
nodes = (
(523,679,l),
(512,673,l),
(540,673,l),
(534,680,l),
(464,238,l),
(472,245,l),
(221,245,l),
(224,239,l)
);
}
);
};
guides = (
{
angle = -99;
pos = (472,226);
}
);
layerId = "075BA79B-D813-4287-A9DD-CCAF2D535ED3";
shapes = (
{
closed = 1;
nodes = (
(185,0,l),
(187,15,l),
(73,29,l),
(76,22,l),
(219,232,l),
(208,226,l),
(469,226,l),
(463,233,l),
(430,21,l),
(438,29,l),
(333,15,l),
(331,0,l),
(794,0,l),
(817,141,l),
(802,141,l),
(768,12,l),
(776,19,l),
(442,19,l),
(448,12,l),
(502,353,l),
(494,346,l),
(771,346,l),
(774,365,l),
(497,365,l),
(503,358,l),
(553,680,l),
(545,673,l),
(867,673,l),
(861,680,l),
(856,556,l),
(870,556,l),
(891,692,l),
(556,692,l),
(408,687,l),
(405,672,l),
(499,664,l),
(496,671,l),
(55,22,l),
(66,29,l),
(-33,15,l),
(-35,0,l)
);
},
{
closed = 1;
nodes = (
(523,679,l),
(512,673,l),
(540,673,l),
(534,680,l),
(464,238,l),
(472,245,l),
(221,245,l),
(224,239,l)
);
}
);
width = 921;
},
{
anchors = (
{
name = bottom;
pos = (468,0);
},
{
name = top;
pos = (591,710);
}
);
background = {
anchors = (
{
name = bottom;
pos = (468,0);
},
{
name = top;
pos = (591,710);
}
);
shapes = (
{
closed = 1;
nodes = (
(231,0,l),
(247,100,l),
(184,133,l),
(187,91,l),
(258,221,l),
(215,190,l),
(436,190,l),
(409,221,l),
(390,104,l),
(420,136,l),
(344,100,l),
(328,0,l),
(832,0,l),
(866,211,l),
(750,211,l),
(711,111,l),
(743,145,l),
(568,145,l),
(588,106,l),
(623,325,l),
(587,290,l),
(788,290,l),
(810,430,l),
(614,430,l),
(635,400,l),
(666,595,l),
(631,565,l),
(806,565,l),
(778,593,l),
(788,508,l),
(902,508,l),
(934,710,l),
(489,710,l),
(236,705,l),
(220,605,l),
(308,568,l),
(293,598,l),
(4,92,l),
(61,133,l),
(-21,100,l),
(-37,0,l)
);
},
{
closed = 1;
nodes = (
(456,583,l),
(417,565,l),
(494,565,l),
(468,584,l),
(423,305,l),
(456,330,l),
(286,330,l),
(304,305,l)
);
}
);
};
guides = (
{
angle = -99;
pos = (609,231);
},
{
angle = -99;
pos = (411,231);
}
);
layerId = "927AED37-E9E6-4F96-A08E-421C3785EFC6";
shapes = (
{
closed = 1;
nodes = (
(231,0,l),
(247,100,l),
(184,133,l),
(187,91,l),
(258,221,l),
(215,190,l),
(436,190,l),
(409,221,l),
(390,104,l),
(420,136,l),
(344,100,l),
(328,0,l),
(832,0,l),
(866,211,l),
(750,211,l),
(711,111,l),
(743,145,l),
(568,145,l),
(588,106,l),
(623,325,l),
(587,290,l),
(788,290,l),
(810,430,l),
(614,430,l),
(635,400,l),
(666,595,l),
(631,565,l),
(806,565,l),
(778,593,l),
(788,508,l),
(902,508,l),
(934,710,l),
(489,710,l),
(236,705,l),
(220,605,l),
(308,568,l),
(293,598,l),
(4,92,l),
(61,133,l),
(-21,100,l),
(-37,0,l)
);
},
{
closed = 1;
nodes = (
(456,583,l),
(417,565,l),
(494,565,l),
(468,584,l),
(423,305,l),
(456,330,l),
(286,330,l),
(304,305,l)
);
}
);
width = 913;
}
);
metricLeft = A;
metricRight = E;
unicode = 198;
},
{
glyphname = B;
kernLeft = H;
kernRight = B;
layers = (
{
anchors = (
{
name = bottom;
pos = (263,0);
},
{
name = top;
pos = (372,692);
}
);
background = {
anchors = (
{
name = bottom;
pos = (263,0);
},
{
name = top;
pos = (372,692);
}
);
shapes = (
{
closed = 1;
nodes = (
(484,375,o),
(558,447,o),
(558,552,cs),
(558,640,o),
(506,692,o),
(385,692,cs),
(247,692,l),
(130,687,l),
(128,672,l),
(229,663,l),
(223,671,l),
(120,21,l),
(129,29,l),
(24,15,l),
(22,0,l),
(278,0,ls),
(433,0,o),
(530,81,o),
(530,211,cs),
(530,302,o),
(479,354,o),
(373,358,c),
(370,354,l)
);
},
{
closed = 1;
nodes = (
(494,673,o),
(537,626,o),
(537,549,cs),
(537,435,o),
(444,364,o),
(302,364,cs),
(188,364,l),
(193,355,l),
(244,678,l),
(236,673,l),
(379,673,ls)
);
},
{
closed = 1;
nodes = (
(133,19,l),
(139,15,l),
(193,355,l),
(185,345,l),
(353,345,ls),
(463,345,o),
(509,291,o),
(509,210,cs),
(509,93,o),
(421,19,o),
(280,19,cs)
);
}
);
};
layerId = "075BA79B-D813-4287-A9DD-CCAF2D535ED3";
shapes = (
{
closed = 1;
nodes = (
(484,375,o),
(558,447,o),
(558,552,cs),
(558,640,o),
(506,692,o),
(385,692,cs),
(247,692,l),
(130,687,l),
(128,672,l),
(229,663,l),
(223,671,l),
(120,21,l),
(129,29,l),
(24,15,l),
(22,0,l),
(278,0,ls),
(433,0,o),
(530,81,o),
(530,211,cs),
(530,302,o),
(479,354,o),
(373,358,c),
(370,354,l)
);
},
{
closed = 1;
nodes = (
(494,673,o),
(537,626,o),
(537,549,cs),
(537,435,o),
(444,364,o),
(302,364,cs),
(188,364,l),
(193,355,l),
(244,678,l),
(236,673,l),
(379,673,ls)
);
},
{
closed = 1;
nodes = (
(133,19,l),
(139,15,l),
(193,355,l),
(185,345,l),
(353,345,ls),
(463,345,o),
(509,291,o),
(509,210,cs),
(509,93,o),
(421,19,o),
(280,19,cs)
);
}
);
width = 629;
},
{
anchors = (
{
name = bottom;
pos = (279,0);
},
{
name = top;
pos = (392,710);
}
);
background = {
anchors = (
{
name = bottom;
pos = (279,0);
},
{
name = top;
pos = (392,710);
}
);
shapes = (
{
closed = 1;
nodes = (
(523,344,o),
(633,419,o),
(633,553,cs),
(633,711,o),
(478,710,o),
(416,710,cs),
(344,710,l),
(100,705,l),
(84,605,l),
(158,571,l),
(139,600,l),
(60,105,l),
(84,131,l),
(4,100,l),
(-12,0,l),
(298,0,ls),
(485,0,o),
(607,86,o),
(607,226,cs),
(607,335,o),
(533,374,o),
(384,371,c),
(377,344,l)
);
},
{
closed = 1;
nodes = (
(395,568,o),
(432,568,o),
(432,511,cs),
(432,430,o),
(354,430,o),
(323,430,cs),
(282,430,l),
(305,398,l),
(336,600,l),
(300,568,l),
(365,568,ls)
);
},
{
closed = 1;
nodes = (
(222,143,l),
(257,105,l),
(294,331,l),
(258,290,l),
(338,290,ls),
(357,290,o),
(402,290,o),
(402,231,cs),
(402,179,o),
(368,143,o),
(292,143,cs)
);
}
);
};
guides = (
{
angle = -99;
pos = (278,231);
}
);
layerId = "927AED37-E9E6-4F96-A08E-421C3785EFC6";
shapes = (
{
closed = 1;
nodes = (
(523,344,o),
(633,419,o),
(633,553,cs),
(633,711,o),
(478,710,o),
(416,710,cs),
(344,710,l),
(100,705,l),
(84,605,l),
(158,571,l),
(139,600,l),
(60,105,l),
(84,131,l),
(4,100,l),
(-12,0,l),
(298,0,ls),
(485,0,o),
(607,86,o),
(607,226,cs),
(607,335,o),
(533,374,o),
(384,371,c),
(377,344,l)
);
},
{
closed = 1;
nodes = (
(395,568,o),
(432,568,o),
(432,511,cs),
(432,430,o),
(354,430,o),
(323,430,cs),
(282,430,l),
(305,398,l),
(336,600,l),
(300,568,l),
(365,568,ls)
);
},
{
closed = 1;
nodes = (
(222,143,l),
(257,105,l),
(294,331,l),
(258,290,l),
(338,290,ls),
(357,290,o),
(402,290,o),
(402,231,cs),
(402,179,o),
(368,143,o),
(292,143,cs)
);
}
);
width = 640;
}
);
metricLeft = H;
unicode = 66;
},
{
glyphname = C;
kernLeft = O;
kernRight = C;
layers = (
{
anchors = (
{
name = bottom;
pos = (311,0);
},
{
name = top;
pos = (452,692);
}
);
background = {
anchors = (
{
name = bottom;
pos = (311,0);
},
{
name = top;
pos = (452,692);
}
);
shapes = (
{
closed = 1;
nodes = (
(187,-6,o),
(310,-6,cs),
(385,-6,o),
(467,27,o),
(541,93,c),
(530,109,l),
(462,45,o),
(384,14,o),
(314,14,cs),
(201,14,o),
(107,95,o),
(107,267,cs),
(107,465,o),
(231,678,o),
(423,678,cs),
(475,678,o),
(542,662,o),
(596,638,c),
(590,646,l),
(579,516,l),
(594,516,l),
(619,650,l),
(553,683,o),
(483,698,o),
(429,698,cs),
(222,698,o),
(86,481,o),
(86,267,cs),
(86,82,o)
);
}
);
};
layerId = "075BA79B-D813-4287-A9DD-CCAF2D535ED3";
shapes = (
{
closed = 1;
nodes = (
(187,-6,o),
(310,-6,cs),
(385,-6,o),
(467,27,o),
(541,93,c),
(530,109,l),
(462,45,o),
(384,14,o),
(314,14,cs),
(201,14,o),
(107,95,o),
(107,267,cs),
(107,465,o),
(231,678,o),
(423,678,cs),
(475,678,o),
(542,662,o),
(596,638,c),
(590,646,l),
(579,516,l),
(594,516,l),
(619,650,l),
(553,683,o),
(483,698,o),
(429,698,cs),
(222,698,o),
(86,481,o),
(86,267,cs),
(86,82,o)
);
}
);
width = 631;
},
{
anchors = (
{
name = bottom;
pos = (290,0);
},
{
name = top;
pos = (430,710);
}
);
background = {
anchors = (
{
name = bottom;
pos = (290,0);
},
{
name = top;
pos = (430,710);
}
);
shapes = (
{
closed = 1;
nodes = (
(158,-15,o),
(304,-15,cs),
(387,-15,o),
(477,17,o),
(559,82,c),
(497,205,l),
(447,169,o),
(396,148,o),
(352,148,cs),
(290,148,o),
(245,189,o),
(245,302,cs),
(245,421,o),
(295,570,o),
(413,570,cs),
(435,570,o),
(463,565,o),
(498,551,c),
(465,579,l),
(479,472,l),
(594,472,l),
(634,669,l),
(555,705,o),
(486,725,o),
(413,725,cs),
(181,725,o),
(37,522,o),
(37,293,cs),
(37,84,o)
);
}
);
};
layerId = "927AED37-E9E6-4F96-A08E-421C3785EFC6";
shapes = (
{
closed = 1;
nodes = (
(158,-15,o),
(304,-15,cs),
(387,-15,o),
(477,17,o),
(559,82,c),
(497,205,l),
(447,169,o),
(396,148,o),
(352,148,cs),
(290,148,o),
(245,189,o),
(245,302,cs),
(245,421,o),
(295,570,o),
(413,570,cs),
(435,570,o),
(463,565,o),
(498,551,c),
(465,579,l),
(479,472,l),
(594,472,l),
(634,669,l),
(555,705,o),
(486,725,o),
(413,725,cs),
(181,725,o),
(37,522,o),
(37,293,cs),
(37,84,o)
);
}
);
width = 607;
}
);
metricLeft = O;
unicode = 67;
},
{
glyphname = Ccedilla;
kernLeft = O;
kernRight = C;
layers = (
{
anchors = (
{
name = top;
pos = (452,692);
}
);
background = {
anchors = (
{
name = top;
pos = (452,692);
}
);
shapes = (
{
closed = 1;
nodes = (
(347,-212,o),
(391,-180,o),
(391,-129,cs),
(391,-95,o),
(372,-74,o),
(309,-68,c),
(322,11,l),
(304,11,l),
(285,-87,l),
(342,-88,o),
(370,-102,o),
(370,-135,cs),
(370,-172,o),
(335,-192,o),
(293,-192,cs),
(274,-192,o),
(254,-188,o),
(234,-179,c),
(224,-196,l),
(247,-207,o),
(270,-212,o),
(292,-212,cs)
);
},
{
closed = 1;
nodes = (
(86,82,o),
(187,-6,o),
(310,-6,cs),
(385,-6,o),
(467,27,o),
(541,93,c),
(530,109,l),
(462,45,o),
(384,14,o),
(314,14,cs),
(201,14,o),
(107,95,o),
(107,267,cs),
(107,465,o),
(231,678,o),
(423,678,cs),
(475,678,o),
(542,662,o),
(596,638,c),
(590,646,l),
(579,516,l),
(594,516,l),
(619,650,l),
(553,683,o),
(483,698,o),
(429,698,cs),
(222,698,o),
(86,481,o),
(86,267,cs)
);
}
);
};
layerId = "075BA79B-D813-4287-A9DD-CCAF2D535ED3";
shapes = (
{
closed = 1;
nodes = (
(347,-212,o),
(391,-180,o),
(391,-129,cs),
(391,-95,o),
(372,-74,o),
(309,-68,c),
(322,11,l),
(304,11,l),
(285,-87,l),
(342,-88,o),
(370,-102,o),
(370,-135,cs),
(370,-172,o),
(335,-192,o),
(293,-192,cs),
(274,-192,o),
(254,-188,o),
(234,-179,c),
(224,-196,l),
(247,-207,o),
(270,-212,o),
(292,-212,cs)
);
},
{
closed = 1;
nodes = (
(86,82,o),
(187,-6,o),
(310,-6,cs),
(385,-6,o),
(467,27,o),
(541,93,c),
(530,109,l),
(462,45,o),
(384,14,o),
(314,14,cs),
(201,14,o),
(107,95,o),
(107,267,cs),
(107,465,o),
(231,678,o),
(423,678,cs),
(475,678,o),
(542,662,o),
(596,638,c),
(590,646,l),
(579,516,l),
(594,516,l),
(619,650,l),
(553,683,o),
(483,698,o),
(429,698,cs),
(222,698,o),
(86,481,o),
(86,267,cs)
);
}
);
width = 631;
},
{
anchors = (
{
name = top;
pos = (430,710);
}
);
background = {
anchors = (
{
name = top;
pos = (430,710);
}
);
shapes = (
{
closed = 1;
nodes = (
(353,-275,o),
(436,-221,o),
(436,-136,cs),
(436,-83,o),
(403,-49,o),
(335,-39,c),
(364,110,l),
(255,110,l),
(207,-117,l),
(253,-119,o),
(301,-127,o),
(301,-151,cs),
(301,-166,o),
(283,-172,o),
(260,-172,cs),
(235,-172,o),
(202,-165,o),
(177,-154,c),
(131,-246,l),
(171,-266,o),
(214,-275,o),
(254,-275,cs)
);
},
{
closed = 1;
nodes = (
(37,84,o),
(158,-15,o),
(304,-15,cs),
(387,-15,o),
(477,17,o),
(559,82,c),
(497,205,l),
(447,169,o),
(396,148,o),
(352,148,cs),
(290,148,o),
(245,189,o),
(245,302,cs),
(245,421,o),
(295,570,o),
(413,570,cs),
(435,570,o),
(463,565,o),
(498,551,c),
(465,579,l),
(479,472,l),
(594,472,l),
(634,669,l),
(555,705,o),
(486,725,o),
(413,725,cs),
(181,725,o),
(37,522,o),
(37,293,cs)
);
}
);
};
layerId = "927AED37-E9E6-4F96-A08E-421C3785EFC6";
shapes = (
{
closed = 1;
nodes = (
(353,-275,o),
(436,-221,o),
(436,-136,cs),
(436,-83,o),
(403,-49,o),
(335,-39,c),
(364,110,l),
(255,110,l),
(207,-117,l),
(253,-119,o),
(301,-127,o),
(301,-151,cs),
(301,-166,o),
(283,-172,o),
(260,-172,cs),
(235,-172,o),
(202,-165,o),
(177,-154,c),
(131,-246,l),
(171,-266,o),
(214,-275,o),
(254,-275,cs)
);
},
{
closed = 1;
nodes = (
(37,84,o),
(158,-15,o),
(304,-15,cs),
(387,-15,o),
(477,17,o),
(559,82,c),
(497,205,l),
(447,169,o),
(396,148,o),
(352,148,cs),
(290,148,o),
(245,189,o),
(245,302,cs),
(245,421,o),
(295,570,o),
(413,570,cs),
(435,570,o),
(463,565,o),
(498,551,c),
(465,579,l),
(479,472,l),
(594,472,l),
(634,669,l),
(555,705,o),
(486,725,o),
(413,725,cs),
(181,725,o),
(37,522,o),
(37,293,cs)
);
}
);
width = 607;
}
);
unicode = 199;
},
{
glyphname = D;
kernLeft = H;
kernRight = O;
layers = (
{
anchors = (
{
name = bottom;
pos = (297,0);
},
{
name = center;
pos = (230,355);
},
{
name = top;
pos = (386,691);
}
);
background = {
anchors = (
{
name = bottom;
pos = (297,0);
},
{
name = center;
pos = (230,355);
},
{
name = top;
pos = (386,691);
}
);
shapes = (
{
closed = 1;
nodes = (
(275,692,l),
(130,687,l),
(128,672,l),
(229,663,l),
(224,671,l),
(121,21,l),
(129,29,l),
(24,15,l),
(22,0,l),
(295,0,ls),
(517,0,o),
(659,210,o),
(659,429,cs),
(659,616,o),
(555,692,o),
(393,692,cs)
);
},
{
closed = 1;
nodes = (
(133,19,l),
(139,14,l),
(244,678,l),
(236,673,l),
(387,673,ls),
(543,673,o),
(638,598,o),
(638,426,cs),
(638,220,o),
(502,19,o),
(297,19,cs)
);
}
);
};
guides = (
{
angle = 261.0141;
pos = (786,346);
}
);
layerId = "075BA79B-D813-4287-A9DD-CCAF2D535ED3";
shapes = (
{
closed = 1;
nodes = (
(275,692,l),
(130,687,l),
(128,672,l),
(229,663,l),
(224,671,l),
(121,21,l),
(129,29,l),
(24,15,l),
(22,0,l),
(295,0,ls),
(517,0,o),
(659,210,o),
(659,429,cs),
(659,616,o),
(555,692,o),
(393,692,cs)
);
},
{
closed = 1;
nodes = (
(133,19,l),
(139,14,l),
(244,678,l),
(236,673,l),
(387,673,ls),
(543,673,o),
(638,598,o),
(638,426,cs),
(638,220,o),
(502,19,o),
(297,19,cs)
);
}
);
width = 718;
},
{
anchors = (
{
name = bottom;
pos = (272,0);
},
{
name = center;
pos = (213,356);
},
{
name = top;
pos = (364,710);
}
);
background = {
anchors = (
{
name = bottom;
pos = (272,0);
},
{
name = center;
pos = (213,356);
},
{
name = top;
pos = (364,710);
}
);
shapes = (
{
closed = 1;
nodes = (
(354,710,l),
(100,705,l),
(84,605,l),
(158,571,l),
(139,600,l),
(60,105,l),
(84,131,l),
(4,100,l),
(-12,0,l),
(277,0,ls),
(548,0,o),
(686,195,o),
(686,430,cs),
(686,617,o),
(598,710,o),
(412,710,cs)
);
},
{
closed = 1;
nodes = (
(238,145,l),
(257,105,l),
(336,600,l),
(301,565,l),
(383,565,ls),
(463,565,o),
(478,515,o),
(478,448,cs),
(478,360,o),
(452,145,o),
(313,145,cs)
);
}
);
};
guides = (
{
angle = -99;
pos = (24,231);
},
{
angle = -99;
pos = (282,231);
},
{
angle = -99;
pos = (82,231);
}
);
layerId = "927AED37-E9E6-4F96-A08E-421C3785EFC6";
shapes = (
{
closed = 1;
nodes = (
(354,710,l),
(100,705,l),
(84,605,l),
(158,571,l),
(139,600,l),
(60,105,l),
(84,131,l),
(4,100,l),
(-12,0,l),
(277,0,ls),
(548,0,o),
(686,195,o),
(686,430,cs),
(686,617,o),
(598,710,o),
(412,710,cs)
);
},
{
closed = 1;
nodes = (
(238,145,l),
(257,105,l),
(336,600,l),
(301,565,l),
(383,565,ls),
(463,565,o),
(478,515,o),
(478,448,cs),
(478,360,o),
(452,145,o),
(313,145,cs)
);
}
);
width = 695;
}
);
metricLeft = H;
metricRight = O;
unicode = 68;
},
{
glyphname = Eth;
kernLeft = H;
kernRight = O;
layers = (
{
anchors = (
{
name = bottom;
pos = (297,0);
},
{
name = center;
pos = (230,355);
},
{
name = top;
pos = (386,691);
}
);
background = {
anchors = (
{
name = bottom;
pos = (297,0);
},
{
name = center;
pos = (230,355);
},
{
name = top;
pos = (386,691);
}
);
shapes = (
{
closed = 1;
nodes = (
(275,692,l),
(130,687,l),
(128,672,l),
(229,663,l),
(224,671,l),
(121,21,l),
(129,29,l),
(24,15,l),
(22,0,l),
(295,0,ls),
(517,0,o),
(659,210,o),
(659,429,cs),
(659,616,o),
(555,692,o),
(393,692,cs)
);
},
{
closed = 1;
nodes = (
(133,19,l),
(139,14,l),
(244,678,l),
(236,673,l),
(387,673,ls),
(543,673,o),
(638,598,o),
(638,426,cs),
(638,220,o),
(502,19,o),
(297,19,cs)
);
},
{
closed = 1;
nodes = (
(378.194,345,l),
(381.291,364,l),
(79,364,l),
(76,345,l)
);
}
);
};
guides = (
{
angle = -99;
pos = (371,231);
},
{
angle = -99;
pos = (58,231);
},
{
pos = (490,378);
}
);
layerId = "075BA79B-D813-4287-A9DD-CCAF2D535ED3";
shapes = (
{
closed = 1;
nodes = (
(275,692,l),
(130,687,l),
(128,672,l),
(229,663,l),
(224,671,l),
(121,21,l),
(129,29,l),
(24,15,l),
(22,0,l),
(295,0,ls),
(517,0,o),
(659,210,o),
(659,429,cs),
(659,616,o),
(555,692,o),
(393,692,cs)
);
},
{
closed = 1;
nodes = (
(133,19,l),
(139,14,l),
(244,678,l),
(236,673,l),
(387,673,ls),
(543,673,o),
(638,598,o),
(638,426,cs),
(638,220,o),
(502,19,o),
(297,19,cs)
);
},
{
closed = 1;
nodes = (
(378.194,345,l),
(381.291,364,l),
(79,364,l),
(76,345,l)
);
}
);
width = 718;
},
{
anchors = (
{
name = bottom;
pos = (272,0);
},
{
name = center;
pos = (213,356);
},
{
name = top;
pos = (364,710);
}
);
background = {
anchors = (
{
name = bottom;
pos = (272,0);
},
{
name = center;
pos = (213,356);
},
{
name = top;
pos = (364,710);
}
);
shapes = (
{
closed = 1;
nodes = (
(354,710,l),
(100,705,l),
(84,605,l),
(158,571,l),
(139,600,l),
(60,105,l),
(84,131,l),
(4,100,l),
(-12,0,l),
(277,0,ls),
(548,0,o),
(686,195,o),
(686,430,cs),
(686,617,o),
(598,710,o),
(412,710,cs)
);
},
{
closed = 1;
nodes = (
(238,145,l),
(257,105,l),
(336,600,l),
(301,565,l),
(383,565,ls),
(463,565,o),
(478,515,o),
(478,448,cs),
(478,360,o),
(452,145,o),
(313,145,cs)
);
},
{
closed = 1;
nodes = (
(367,294,l),
(387,426,l),
(55,426,l),
(35,294,l)
);
}
);
};
guides = (
{
angle = 90;
pos = (-290,241);
},
{
angle = -99;
pos = (25,233);
},
{
angle = -99;
pos = (378,231);
},
{
pos = (490,430);
}
);
layerId = "927AED37-E9E6-4F96-A08E-421C3785EFC6";
shapes = (
{
closed = 1;
nodes = (
(354,710,l),
(100,705,l),
(84,605,l),
(158,571,l),
(139,600,l),
(60,105,l),
(84,131,l),
(4,100,l),
(-12,0,l),
(277,0,ls),
(548,0,o),
(686,195,o),
(686,430,cs),
(686,617,o),
(598,710,o),
(412,710,cs)
);
},
{
closed = 1;
nodes = (
(238,145,l),
(257,105,l),
(336,600,l),
(301,565,l),
(383,565,ls),
(463,565,o),
(478,515,o),
(478,448,cs),
(478,360,o),
(452,145,o),
(313,145,cs)
);
},
{
closed = 1;
nodes = (
(367,294,l),
(387,426,l),
(55,426,l),
(35,294,l)
);
}
);
width = 695;
}
);
metricRight = D;
unicode = 208;
},
{
glyphname = E;
kernLeft = H;
kernRight = E;
layers = (
{
anchors = (
{
name = bottom;
pos = (269,0);
},
{
name = ogonek;
pos = (491,0);
},
{
name = top;
pos = (388,692);
},
{
name = topleft;
pos = (106,692);
}
);
background = {
anchors = (
{
name = bottom;
pos = (269,0);
},
{
name = ogonek;
pos = (491,0);
},
{
name = top;
pos = (388,692);
},
{
name = topleft;
pos = (106,692);
}
);
shapes = (
{
closed = 1;
nodes = (
(464,12,l),
(473,19,l),
(133,19,l),
(139,16,l),
(193,355,l),
(185,346,l),
(468,346,l),
(471,365,l),
(188,365,l),
(193,356,l),
(244,678,l),
(236,673,l),
(564,673,l),
(557,680,l),
(552,556,l),
(567,556,l),
(588,692,l),
(247,692,l),
(130,687,l),
(128,672,l),
(229,663,l),
(223,671,l),
(120,21,l),
(129,29,l),
(24,15,l),
(22,0,l),
(491,0,l),
(513,141,l),
(499,141,l)
);
}
);
};
guides = (
{
angle = 90;
pos = (725,116);
},
{
angle = -99;
pos = (173,231);
},
{
angle = -99;
pos = (154,231);
}
);
layerId = "075BA79B-D813-4287-A9DD-CCAF2D535ED3";
shapes = (
{
closed = 1;
nodes = (
(464,12,l),
(473,19,l),
(133,19,l),
(139,16,l),
(193,355,l),
(185,346,l),
(468,346,l),
(471,365,l),
(188,365,l),
(193,356,l),
(244,678,l),
(236,673,l),
(564,673,l),
(557,680,l),
(552,556,l),
(567,556,l),
(588,692,l),
(247,692,l),
(130,687,l),
(128,672,l),
(229,663,l),
(223,671,l),
(120,21,l),
(129,29,l),
(24,15,l),
(22,0,l),
(491,0,l),
(513,141,l),
(499,141,l)
);
}
);
width = 617;
},
{
anchors = (
{
name = bottom;
pos = (254,0);
},
{
name = ogonek;
pos = (503,0);
},
{
name = top;
pos = (366,710);
},
{
name = topleft;
pos = (86,710);
}
);
background = {
anchors = (
{
name = bottom;
pos = (254,0);
},
{
name = ogonek;
pos = (503,0);
},
{
name = top;
pos = (366,710);
},
{
name = topleft;
pos = (86,710);
}
);
shapes = (
{
closed = 1;
nodes = (
(385,115,l),
(427,145,l),
(238,145,l),
(257,105,l),
(292,325,l),
(258,290,l),
(459,290,l),
(482,430,l),
(283,430,l),
(304,400,l),
(335,595,l),
(301,565,l),
(479,565,l),
(450,591,l),
(460,508,l),
(574,508,l),
(606,710,l),
(350,710,l),
(100,705,l),
(84,605,l),
(158,571,l),
(139,600,l),
(60,106,l),
(84,131,l),
(4,100,l),
(-12,0,l),
(503,0,l),
(538,211,l),
(422,211,l)
);
}
);
};
guides = (
{
angle = -99;
pos = (369,726);
}
);
layerId = "927AED37-E9E6-4F96-A08E-421C3785EFC6";
shapes = (
{
closed = 1;
nodes = (
(385,115,l),
(427,145,l),
(238,145,l),
(257,105,l),
(292,325,l),
(258,290,l),
(459,290,l),
(482,430,l),
(283,430,l),
(304,400,l),
(335,595,l),
(301,565,l),
(479,565,l),
(450,591,l),
(460,508,l),
(574,508,l),
(606,710,l),
(350,710,l),
(100,705,l),
(84,605,l),
(158,571,l),
(139,600,l),
(60,106,l),
(84,131,l),
(4,100,l),
(-12,0,l),
(503,0,l),
(538,211,l),
(422,211,l)
);
}
);
width = 585;
}
);
metricLeft = H;
unicode = 69;
},
{
glyphname = F;
kernLeft = H;
kernRight = F;
layers = (
{
anchors = (
{
name = bottom;
pos = (128,0);
},
{
name = top;
pos = (388,692);
}
);
background = {
anchors = (
{
name = bottom;
pos = (128,0);
},
{
name = top;
pos = (388,692);
}
);
shapes = (
{
closed = 1;
nodes = (
(256,0,l),
(258,15,l),
(135,29,l),
(140,21,l),
(190,339,l),
(181,334,l),
(450,334,l),
(453,353,l),
(185,353,l),
(190,339,l),
(244,678,l),
(236,673,l),
(553,673,l),
(547,680,l),
(542,556,l),
(557,556,l),
(578,692,l),
(247,692,l),
(130,687,l),
(128,672,l),
(229,663,l),
(223,672,l),
(120,22,l),
(129,29,l),
(24,15,l),
(22,0,l)
);
}
);
};
guides = (
{
angle = -99;
pos = (173,231);
},
{
angle = -99;
pos = (154,231);
}
);
layerId = "075BA79B-D813-4287-A9DD-CCAF2D535ED3";
shapes = (
{
closed = 1;
nodes = (
(256,0,l),
(258,15,l),
(135,29,l),
(140,21,l),
(190,339,l),
(181,334,l),
(450,334,l),
(453,353,l),
(185,353,l),
(190,339,l),
(244,678,l),
(236,673,l),
(553,673,l),
(547,680,l),
(542,556,l),
(557,556,l),
(578,692,l),
(247,692,l),
(130,687,l),
(128,672,l),
(229,663,l),
(223,672,l),
(120,22,l),
(129,29,l),
(24,15,l),
(22,0,l)
);
}
);
width = 551;
},
{
anchors = (
{
name = bottom;
pos = (147,0);
},
{
name = top;
pos = (366,710);
}
);
background = {
anchors = (
{
name = bottom;
pos = (147,0);
},
{
name = top;
pos = (366,710);
}
);
shapes = (
{
closed = 1;
nodes = (
(314,0,l),
(329,100,l),
(242,132,l),
(257,105,l),
(291,320,l),
(257,285,l),
(461,285,l),
(482,430,l),
(282,430,l),
(304,397,l),
(335,595,l),
(301,565,l),
(477,565,l),
(448,584,l),
(457,505,l),
(571,505,l),
(603,710,l),
(350,710,l),
(100,705,l),
(84,605,l),
(158,571,l),
(139,600,l),
(60,105,l),
(84,131,l),
(4,100,l),
(-12,0,l)
);
}
);
};
guides = (
{
angle = -99;
pos = (80,231);
},
{
angle = -99;
pos = (278,231);
}
);
layerId = "927AED37-E9E6-4F96-A08E-421C3785EFC6";
shapes = (
{
closed = 1;
nodes = (
(314,0,l),
(329,100,l),
(242,132,l),
(257,105,l),
(291,320,l),
(257,285,l),
(461,285,l),
(482,430,l),
(282,430,l),
(304,397,l),
(335,595,l),
(301,565,l),
(477,565,l),
(448,584,l),
(457,505,l),
(571,505,l),
(603,710,l),
(350,710,l),
(100,705,l),
(84,605,l),
(158,571,l),
(139,600,l),
(60,105,l),
(84,131,l),
(4,100,l),
(-12,0,l)
);
}
);
width = 550;
}
);
metricLeft = H;
unicode = 70;
},
{
glyphname = G;
kernLeft = O;
kernRight = G;
layers = (
{
anchors = (
{
name = bottom;
pos = (341,0);
},
{
name = top;
pos = (459,691);
}
);
background = {
anchors = (
{
name = bottom;
pos = (341,0);
},
{
name = top;
pos = (459,691);
}
);
shapes = (
{
closed = 1;
nodes = (
(402,-6,o),
(480,12,o),
(565,45,c),
(604,294,l),
(597,286,l),
(697,300,l),
(699,315,l),
(492,310,l),
(490,295,l),
(591,287,l),
(585,294,l),
(547,51,l),
(553,60,l),
(473,30,o),
(401,14,o),
(336,14,cs),
(198,14,o),
(108,87,o),
(108,270,cs),
(108,504,o),
(257,678,o),
(458,678,cs),
(513,678,o),
(574,665,o),
(636,637,c),
(631,646,l),
(622,516,l),
(637,516,l),
(662,650,l),
(590,682,o),
(521,698,o),
(457,698,cs),
(243,698,o),
(87,516,o),
(87,268,cs),
(87,72,o),
(184,-6,o),
(331,-6,cs)
);
}
);
};
guides = (
{
angle = -99;
pos = (406,433);
},
{
angle = -99;
pos = (594,231);
},
{
angle = -99;
pos = (575,231);
}
);
layerId = "075BA79B-D813-4287-A9DD-CCAF2D535ED3";
shapes = (
{
closed = 1;
nodes = (
(402,-6,o),
(480,12,o),
(565,45,c),
(604,294,l),
(597,286,l),
(697,300,l),
(699,315,l),
(492,310,l),
(490,295,l),
(591,287,l),
(585,294,l),
(547,51,l),
(553,60,l),
(473,30,o),
(401,14,o),
(336,14,cs),
(198,14,o),
(108,87,o),
(108,270,cs),
(108,504,o),
(257,678,o),
(458,678,cs),
(513,678,o),
(574,665,o),
(636,637,c),
(631,646,l),
(622,516,l),
(637,516,l),
(662,650,l),
(590,682,o),
(521,698,o),
(457,698,cs),
(243,698,o),
(87,516,o),
(87,268,cs),
(87,72,o),
(184,-6,o),
(331,-6,cs)
);
}
);
width = 738;
},
{
anchors = (
{
name = bottom;
pos = (312,0);
},
{
name = top;
pos = (429,710);
}
);
background = {
anchors = (
{
name = bottom;
pos = (312,0);
},
{
name = top;
pos = (429,710);
}
);
shapes = (
{
closed = 1;
nodes = (
(386,-15,o),
(478,5,o),
(580,52,c),
(610,277,l),
(588,244,l),
(669,272,l),
(685,377,l),
(386,372,l),
(370,268,l),
(452,244,l),
(427,277,l),
(405,117,l),
(430,161,l),
(395,150,o),
(365,143,o),
(337,143,cs),
(274,143,o),
(244,179,o),
(244,283,cs),
(244,435,o),
(306,570,o),
(434,570,cs),
(458,570,o),
(487,565,o),
(519,552,c),
(489,577,l),
(503,468,l),
(617,468,l),
(656,667,l),
(576,704,o),
(497,725,o),
(419,725,cs),
(176,725,o),
(36,518,o),
(36,285,cs),
(36,80,o),
(144,-15,o),
(310,-15,cs)
);
}
);
};
layerId = "927AED37-E9E6-4F96-A08E-421C3785EFC6";
shapes = (
{
closed = 1;
nodes = (
(386,-15,o),
(478,5,o),
(580,52,c),
(610,277,l),
(588,244,l),
(669,272,l),
(685,377,l),
(386,372,l),
(370,268,l),
(452,244,l),
(427,277,l),
(405,117,l),
(430,161,l),
(395,150,o),
(365,143,o),
(337,143,cs),
(274,143,o),
(244,179,o),
(244,283,cs),
(244,435,o),
(306,570,o),
(434,570,cs),
(458,570,o),
(487,565,o),
(519,552,c),
(489,577,l),
(503,468,l),
(617,468,l),
(656,667,l),
(576,704,o),
(497,725,o),
(419,725,cs),
(176,725,o),
(36,518,o),
(36,285,cs),
(36,80,o),
(144,-15,o),
(310,-15,cs)
);
}
);
width = 681;
}
);
metricLeft = O;
unicode = 71;
},
{
glyphname = H;
kernLeft = H;
kernRight = H;
layers = (
{
anchors = (
{
name = bottom;
pos = (351,0);
},
{
name = center;
pos = (406,350);
},
{
name = top;
pos = (461,692);
},
{
name = topleft;
pos = (108,692);
}
);
background = {
anchors = (
{
name = bottom;
pos = (351,0);
},
{
name = center;
pos = (406,350);
},
{
name = top;
pos = (461,692);
},
{
name = topleft;
pos = (108,692);
}
);
shapes = (
{
closed = 1;
nodes = (
(234,0,l),
(236,15,l),
(136,29,l),
(141,21,l),
(193,349,l),
(185,342,l),
(615,342,l),
(609,349,l),
(557,21,l),
(565,29,l),
(460,15,l),
(458,0,l),
(670,0,l),
(672,15,l),
(571,29,l),
(577,21,l),
(680,671,l),
(671,663,l),
(778,677,l),
(780,692,l),
(566,687,l),
(564,672,l),
(665,663,l),
(660,671,l),
(609,352,l),
(618,361,l),
(188,361,l),
(193,352,l),
(244,671,l),
(236,663,l),
(341,677,l),
(343,692,l),
(130,687,l),
(128,672,l),
(230,663,l),
(224,671,l),
(121,21,l),
(130,29,l),
(24,15,l),
(22,0,l)
);
}
);
};
guides = (
{
angle = -99;
pos = (174,231);
},
{
angle = -99;
pos = (154,231);
},
{
angle = -99;
pos = (590,231);
},
{
angle = -99;
pos = (610,231);
}
);
layerId = "075BA79B-D813-4287-A9DD-CCAF2D535ED3";
shapes = (
{
closed = 1;
nodes = (
(234,0,l),
(236,15,l),
(136,29,l),
(141,21,l),
(193,349,l),
(185,342,l),
(615,342,l),
(609,349,l),
(557,21,l),
(565,29,l),
(460,15,l),
(458,0,l),
(670,0,l),
(672,15,l),
(571,29,l),
(577,21,l),
(680,671,l),
(671,663,l),
(778,677,l),
(780,692,l),
(566,687,l),
(564,672,l),
(665,663,l),
(660,671,l),
(609,352,l),
(618,361,l),
(188,361,l),
(193,352,l),
(244,671,l),
(236,663,l),
(341,677,l),
(343,692,l),
(130,687,l),
(128,672,l),
(230,663,l),
(224,671,l),
(121,21,l),
(130,29,l),
(24,15,l),
(22,0,l)
);
}
);
width = 774;
},
{
anchors = (
{
name = bottom;
pos = (337,0);
},
{
name = center;
pos = (393,355);
},
{
name = top;
pos = (449,710);
},
{
name = topleft;
pos = (98,710);
}
);
background = {
anchors = (
{
name = bottom;
pos = (337,0);
},
{
name = center;
pos = (393,355);
},
{
name = top;
pos = (449,710);
},
{
name = topleft;
pos = (98,710);
}
);
guides = (
{
angle = -99;
pos = (465,231);
},
{
angle = -99;
pos = (665,231);
}
);
shapes = (
{
closed = 1;
nodes = (
(300,0,l),
(316,100,l),
(247,132,l),
(257,105,l),
(291,318,l),
(259,290,l),
(504,290,l),
(482,319,l),
(448,105,l),
(472,131,l),
(392,100,l),
(376,0,l),
(688,0,l),
(704,100,l),
(635,132,l),
(645,105,l),
(724,600,l),
(702,572,l),
(785,610,l),
(801,710,l),
(488,705,l),
(472,605,l),
(546,571,l),
(527,600,l),
(497,411,l),
(531,435,l),
(285,435,l),
(306,411,l),
(336,600,l),
(314,572,l),
(397,610,l),
(413,710,l),
(100,705,l),
(84,605,l),
(158,571,l),
(139,600,l),
(60,105,l),
(84,131,l),
(4,100,l),
(-12,0,l)
);
}
);
};
guides = (
{
angle = -99;
pos = (465,231);
},
{
angle = -99;
pos = (665,231);
},
{
angle = -99;
pos = (725,231);
},
{
angle = -99;
pos = (25,231);
},
{
angle = -99;
pos = (80,231);
}
);
layerId = "927AED37-E9E6-4F96-A08E-421C3785EFC6";
shapes = (
{
closed = 1;
nodes = (
(300,0,l),
(316,100,l),
(247,132,l),
(257,105,l),
(291,318,l),
(259,290,l),
(504,290,l),
(482,319,l),
(448,105,l),
(472,131,l),
(392,100,l),
(376,0,l),
(688,0,l),
(704,100,l),
(635,132,l),
(645,105,l),
(724,600,l),
(702,572,l),
(785,610,l),
(801,710,l),
(488,705,l),
(472,605,l),
(546,571,l),
(527,600,l),
(497,411,l),
(531,435,l),
(285,435,l),
(306,411,l),
(336,600,l),
(314,572,l),
(397,610,l),
(413,710,l),
(100,705,l),
(84,605,l),
(158,571,l),
(139,600,l),
(60,105,l),
(84,131,l),
(4,100,l),
(-12,0,l)
);
}
);
width = 760;
}
);
unicode = 72;
},
{
glyphname = Hbar;
kernLeft = H;
kernRight = H;
layers = (
{
background = {
shapes = (
{
closed = 1;
nodes = (
(234,0,l),
(236,15,l),
(136,29,l),
(141,21,l),
(193,349,l),
(185,342,l),
(615,342,l),
(609,349,l),
(557,21,l),
(565,29,l),
(460,15,l),
(458,0,l),
(670,0,l),
(672,15,l),
(571,29,l),
(577,21,l),
(680,671,l),
(671,663,l),
(778,677,l),
(780,692,l),
(566,687,l),
(564,672,l),
(665,663,l),
(660,671,l),
(609,352,l),
(618,361,l),
(188,361,l),
(193,352,l),
(244,671,l),
(236,663,l),
(341,677,l),
(343,692,l),
(130,687,l),
(128,672,l),
(230,663,l),
(224,671,l),
(121,21,l),
(130,29,l),
(24,15,l),
(22,0,l)
);
},
{
closed = 1;
nodes = (
(751,509,l),
(754,528,l),
(105,528,l),
(102,509,l)
);
}
);
};
guides = (
{
angle = -99;
pos = (119,614);
},
{
angle = -99;
pos = (768,614);
}
);
layerId = "075BA79B-D813-4287-A9DD-CCAF2D535ED3";
shapes = (
{
closed = 1;
nodes = (
(234,0,l),
(236,15,l),
(136,29,l),
(141,21,l),
(193,349,l),
(185,342,l),
(615,342,l),
(609,349,l),
(557,21,l),
(565,29,l),
(460,15,l),
(458,0,l),
(670,0,l),
(672,15,l),
(571,29,l),
(577,21,l),
(680,671,l),
(671,663,l),
(778,677,l),
(780,692,l),
(566,687,l),
(564,672,l),
(665,663,l),
(660,671,l),
(609,352,l),
(618,361,l),
(188,361,l),
(193,352,l),
(244,671,l),
(236,663,l),
(341,677,l),
(343,692,l),
(130,687,l),
(128,672,l),
(230,663,l),
(224,671,l),
(121,21,l),
(130,29,l),
(24,15,l),
(22,0,l)
);
},
{
closed = 1;
nodes = (
(751,509,l),
(754,528,l),
(105,528,l),
(102,509,l)
);
}
);
width = 774;
},
{
background = {
shapes = (
{
closed = 1;
nodes = (
(300,0,l),
(316,100,l),
(247,132,l),
(257,105,l),
(291,318,l),
(259,275,l),
(504,275,l),
(482,319,l),
(448,105,l),
(472,131,l),
(392,100,l),
(376,0,l),
(688,0,l),
(704,100,l),
(635,132,l),
(645,105,l),
(724,600,l),
(702,572,l),
(785,610,l),
(801,710,l),
(488,705,l),
(472,605,l),
(546,571,l),
(527,600,l),
(492,383,l),
(531,415,l),
(285,415,l),
(303,390,l),
(336,600,l),
(314,572,l),
(397,610,l),
(413,710,l),
(100,705,l),
(84,605,l),
(158,571,l),
(139,600,l),
(60,105,l),
(84,131,l),
(4,100,l),
(-12,0,l)
);
},
{
closed = 1;
nodes = (
(761,459,l),
(776,554,l),
(77,554,l),
(62,459,l)
);
}
);
};
guides = (
{
angle = -99;
pos = (74,540);
},
{
angle = -99;
pos = (774,540);
}
);
layerId = "927AED37-E9E6-4F96-A08E-421C3785EFC6";
shapes = (
{
closed = 1;
nodes = (
(300,0,l),
(316,100,l),
(247,132,l),
(257,105,l),
(291,318,l),
(259,275,l),
(504,275,l),
(482,319,l),
(448,105,l),
(472,131,l),
(392,100,l),
(376,0,l),
(688,0,l),
(704,100,l),
(635,132,l),
(645,105,l),
(724,600,l),
(702,572,l),
(785,610,l),
(801,710,l),
(488,705,l),
(472,605,l),
(546,571,l),
(527,600,l),
(492,383,l),
(531,415,l),
(285,415,l),
(303,390,l),
(336,600,l),
(314,572,l),
(397,610,l),
(413,710,l),
(100,705,l),
(84,605,l),
(158,571,l),
(139,600,l),
(60,105,l),
(84,131,l),
(4,100,l),
(-12,0,l)
);
},
{
closed = 1;
nodes = (
(761,459,l),
(776,554,l),
(77,554,l),
(62,459,l)
);
}
);
width = 760;
}
);
metricLeft = H;
metricRight = H;
unicode = 294;
},
{
glyphname = I;
kernLeft = H;
kernRight = H;
layers = (
{
anchors = (
{
name = bottom;
pos = (128,0);
},
{
name = ogonek;
pos = (204,0);
},
{
name = top;
pos = (237,692);
},
{
name = topleft;
pos = (103,692);
}
);
background = {
anchors = (
{
name = bottom;
pos = (128,0);
},
{
name = ogonek;
pos = (204,0);
},
{
name = top;
pos = (237,692);
},
{
name = topleft;
pos = (103,692);
}
);
shapes = (
{
closed = 1;
nodes = (
(343,692,l),
(130,687,l),
(128,672,l),
(230,663,l),
(224,671,l),
(121,21,l),
(130,29,l),
(24,15,l),
(22,0,l),
(234,0,l),
(236,15,l),
(136,29,l),
(141,21,l),
(244,671,l),
(236,663,l),
(341,677,l)
);
}
);
};
guides = (
{
angle = -99;
pos = (174,231);
},
{
angle = -99;
pos = (155,231);
}
);
layerId = "075BA79B-D813-4287-A9DD-CCAF2D535ED3";
shapes = (
{
closed = 1;
nodes = (
(343,692,l),
(130,687,l),
(128,672,l),
(230,663,l),
(224,671,l),
(121,21,l),
(130,29,l),
(24,15,l),
(22,0,l),
(234,0,l),
(236,15,l),
(136,29,l),
(141,21,l),
(244,671,l),
(236,663,l),
(341,677,l)
);
}
);
width = 337;
},
{
anchors = (
{
name = bottom;
pos = (141,0);
},
{
name = ogonek;
pos = (245,0);
},
{
name = top;
pos = (254,710);
},
{
name = topleft;
pos = (87,710);
}
);
background = {
anchors = (
{
name = bottom;
pos = (141,0);
},
{
name = ogonek;
pos = (245,0);
},
{
name = top;
pos = (254,710);
},
{
name = topleft;
pos = (87,710);
}
);
shapes = (
{
closed = 1;
nodes = (
(413,710,l),
(100,705,l),
(84,605,l),
(158,571,l),
(138,597,l),
(60,105,l),
(84,131,l),
(4,100,l),
(-12,0,l),
(300,0,l),
(316,100,l),
(247,132,l),
(257,105,l),
(335,598,l),
(314,572,l),
(397,610,l)
);
}
);
};
guides = (
{
angle = -99;
pos = (337,231);
},
{
angle = -99;
pos = (25,231);
},
{
angle = -99;
pos = (178,231);
}
);
layerId = "927AED37-E9E6-4F96-A08E-421C3785EFC6";
shapes = (
{
closed = 1;
nodes = (
(413,710,l),
(100,705,l),
(84,605,l),
(158,571,l),
(138,597,l),
(60,105,l),
(84,131,l),
(4,100,l),
(-12,0,l),
(300,0,l),
(316,100,l),
(247,132,l),
(257,105,l),
(335,598,l),
(314,572,l),
(397,610,l)
);
}
);
width = 371;
}
);
unicode = 73;
},
{
glyphname = J;
kernLeft = J;
kernRight = U;
layers = (
{
anchors = (
{
name = bottom;
pos = (125,0);
},
{
name = top;
pos = (234,692);
}
);
background = {
anchors = (
{
name = bottom;
pos = (125,0);
},
{
name = top;
pos = (234,692);
}
);
shapes = (
{
closed = 1;
nodes = (
(117,672,l),
(228,663,l),
(221,671,l),
(116,8,ls),
(110,-32,o),
(94,-105,o),
(-9,-105,cs),
(-22,-105,o),
(-32,-104,o),
(-43,-103,c),
(-46,-121,l),
(-32,-123,o),
(-19,-124,o),
(-7,-124,cs),
(111,-124,o),
(130,-32,o),
(136,9,cs),
(241,671,l),
(233,663,l),
(338,677,l),
(340,692,l),
(119,687,l)
);
}
);
};
guides = (
{
angle = -99;
pos = (185,382);
}
);
layerId = "075BA79B-D813-4287-A9DD-CCAF2D535ED3";
shapes = (
{
closed = 1;
nodes = (
(117,672,l),
(228,663,l),
(221,671,l),
(116,8,ls),
(110,-32,o),
(94,-105,o),
(-9,-105,cs),
(-22,-105,o),
(-32,-104,o),
(-43,-103,c),
(-46,-121,l),
(-32,-123,o),
(-19,-124,o),
(-7,-124,cs),
(111,-124,o),
(130,-32,o),
(136,9,cs),
(241,671,l),
(233,663,l),
(338,677,l),
(340,692,l),
(119,687,l)
);
}
);
width = 324;
},
{
anchors = (
{
name = bottom;
pos = (131,0);
},
{
name = top;
pos = (243,710);
}
);
background = {
anchors = (
{
name = bottom;
pos = (131,0);
},
{
name = top;
pos = (243,710);
}
);
shapes = (
{
closed = 1;
nodes = (
(73,605,l),
(146,571,l),
(128,600,l),
(42,63,ls),
(36,25,o),
(26,-38,o),
(-58,-38,cs),
(-69,-38,o),
(-81,-37,o),
(-92,-34,c),
(-125,-177,l),
(-96,-183,o),
(-67,-186,o),
(-38,-186,cs),
(125,-186,o),
(216,-87,o),
(247,108,cs),
(325,600,l),
(303,572,l),
(386,610,l),
(402,710,l),
(89,705,l)
);
}
);
};
guides = (
{
angle = -99;
pos = (192,382);
}
);
layerId = "927AED37-E9E6-4F96-A08E-421C3785EFC6";
shapes = (
{
closed = 1;
nodes = (
(73,605,l),
(146,571,l),
(128,600,l),
(42,63,ls),
(36,25,o),
(26,-38,o),
(-58,-38,cs),
(-69,-38,o),
(-81,-37,o),
(-92,-34,c),
(-125,-177,l),
(-96,-183,o),
(-67,-186,o),
(-38,-186,cs),
(125,-186,o),
(216,-87,o),
(247,108,cs),
(325,600,l),
(303,572,l),
(386,610,l),
(402,710,l),
(89,705,l)
);
}
);
width = 348;
}
);
unicode = 74;
},
{
glyphname = K;
kernLeft = H;
kernRight = X;
layers = (
{
anchors = (
{
name = bottom;
pos = (318,0);
},
{
name = top;
pos = (412,692);
}
);
background = {
anchors = (
{
name = bottom;
pos = (318,0);
},
{
name = top;
pos = (412,692);
}
);
shapes = (
{
closed = 1;
nodes = (
(339,364,l),
(339,353,l),
(592,670,l),
(580,663,l),
(681,677,l),
(683,692,l),
(475,687,l),
(473,672,l),
(574,664,l),
(570,670,l),
(321,358,l),
(334,364,l),
(189,364,l),
(194,356,l),
(244,672,l),
(236,663,l),
(341,677,l),
(343,692,l),
(130,686,l),
(128,671,l),
(230,663,l),
(224,672,l),
(121,21,l),
(130,29,l),
(24,15,l),
(22,0,l),
(234,0,l),
(236,15,l),
(136,29,l),
(141,21,l),
(194,355,l),
(186,345,l),
(336,345,l),
(325,350,l),
(513,0,l),
(616,0,l),
(618,15,l),
(514,28,l),
(523,23,l)
);
}
);
};
layerId = "075BA79B-D813-4287-A9DD-CCAF2D535ED3";
shapes = (
{
closed = 1;
nodes = (
(339,364,l),
(339,353,l),
(592,670,l),
(580,663,l),
(681,677,l),
(683,692,l),
(475,687,l),
(473,672,l),
(574,664,l),
(570,670,l),
(321,358,l),
(334,364,l),
(189,364,l),
(194,356,l),
(244,672,l),
(236,663,l),
(341,677,l),
(343,692,l),
(130,686,l),
(128,671,l),
(230,663,l),
(224,672,l),
(121,21,l),
(130,29,l),
(24,15,l),
(22,0,l),
(234,0,l),
(236,15,l),
(136,29,l),
(141,21,l),
(194,355,l),
(186,345,l),
(336,345,l),
(325,350,l),
(513,0,l),
(616,0,l),
(618,15,l),
(514,28,l),
(523,23,l)
);
}
);
width = 676;
},
{
anchors = (
{
name = bottom;
pos = (332,0);
},
{
name = top;
pos = (434,710);
}
);
background = {
anchors = (
{
name = bottom;
pos = (332,0);
},
{
name = top;
pos = (434,710);
}
);
shapes = (
{
closed = 1;
nodes = (
(491,395,l),
(492,344,l),
(687,607,l),
(641,574,l),
(727,610,l),
(742,710,l),
(456,705,l),
(441,605,l),
(505,580,l),
(489,609,l),
(346,404,l),
(401,435,l),
(284,435,l),
(305,404,l),
(339,616,l),
(311,573,l),
(393,612,l),
(409,710,l),
(100,705,l),
(84,605,l),
(158,571,l),
(139,600,l),
(60,105,l),
(85,132,l),
(4,100,l),
(-12,0,l),
(296,0,l),
(312,100,l),
(243,134,l),
(257,105,l),
(293,329,l),
(260,290,l),
(361,290,l),
(319,329,l),
(459,0,l),
(652,0,l),
(667,100,l),
(596,133,l),
(639,91,l)
);
}
);
};
layerId = "927AED37-E9E6-4F96-A08E-421C3785EFC6";
shapes = (
{
closed = 1;
nodes = (
(491,395,l),
(492,344,l),
(687,607,l),
(641,574,l),
(727,610,l),
(742,710,l),
(456,705,l),
(441,605,l),
(505,580,l),
(489,609,l),
(346,404,l),
(401,435,l),
(284,435,l),
(305,404,l),
(339,616,l),
(311,573,l),
(393,612,l),
(409,710,l),
(100,705,l),
(84,605,l),
(158,571,l),
(139,600,l),
(60,105,l),
(85,132,l),
(4,100,l),
(-12,0,l),
(296,0,l),
(312,100,l),
(243,134,l),
(257,105,l),
(293,329,l),
(260,290,l),
(361,290,l),
(319,329,l),
(459,0,l),
(652,0,l),
(667,100,l),
(596,133,l),
(639,91,l)
);
}
);
width = 710;
}
);
metricLeft = H;
unicode = 75;
},
{
glyphname = L;
kernLeft = H;
kernRight = L;
layers = (
{
anchors = (
{
name = bottom;
pos = (275,0);
},
{
name = center;
pos = (433,357);
},
{
name = top;
pos = (238,692);
},
{
name = topright;
pos = (448,692);
}
);
background = {
anchors = (
{
name = bottom;
pos = (275,0);
},
{
name = center;
pos = (433,357);
},
{
name = top;
pos = (238,692);
},
{
name = topright;
pos = (448,692);
}
);
shapes = (
{
closed = 1;
nodes = (
(423,12,l),
(432,19,l),
(134,19,l),
(139,9,l),
(244,671,l),
(236,663,l),
(355,677,l),
(357,692,l),
(130,687,l),
(128,672,l),
(230,663,l),
(224,670,l),
(121,21,l),
(130,29,l),
(24,15,l),
(22,0,l),
(449,0,l),
(472,145,l),
(458,145,l)
);
}
);
};
guides = (
{
angle = -99;
pos = (494,231);
},
{
angle = -99;
pos = (165,231);
}
);
layerId = "075BA79B-D813-4287-A9DD-CCAF2D535ED3";
shapes = (
{
closed = 1;
nodes = (
(423,12,l),
(432,19,l),
(134,19,l),
(139,9,l),
(244,671,l),
(236,663,l),
(355,677,l),
(357,692,l),
(130,687,l),
(128,672,l),
(230,663,l),
(224,670,l),
(121,21,l),
(130,29,l),
(24,15,l),
(22,0,l),
(449,0,l),
(472,145,l),
(458,145,l)
);
}
);
width = 523;
},
{
anchors = (
{
name = bottom;
pos = (252,0);
},
{
name = center;
pos = (482,425);
},
{
name = top;
pos = (255,710);
},
{
name = topright;
pos = (459,710);
}
);
background = {
anchors = (
{
name = bottom;
pos = (252,0);
},
{
name = center;
pos = (482,425);
},
{
name = top;
pos = (255,710);
},
{
name = topright;
pos = (459,710);
}
);
shapes = (
{
closed = 1;
nodes = (
(369,114,l),
(400,145,l),
(238,145,l),
(257,105,l),
(336,600,l),
(314,572,l),
(397,610,l),
(413,710,l),
(100,705,l),
(84,605,l),
(158,571,l),
(139,600,l),
(60,105,l),
(84,131,l),
(4,100,l),
(-12,0,l),
(492,0,l),
(530,245,l),
(414,245,l)
);
}
);
};
guides = (
{
angle = -99;
pos = (24,231);
},
{
angle = -99;
pos = (529,231);
},
{
angle = -99;
pos = (179,231);
}
);
layerId = "927AED37-E9E6-4F96-A08E-421C3785EFC6";
shapes = (
{
closed = 1;
nodes = (
(369,114,l),
(400,145,l),
(238,145,l),
(257,105,l),
(336,600,l),
(314,572,l),
(397,610,l),
(413,710,l),
(100,705,l),
(84,605,l),
(158,571,l),
(139,600,l),
(60,105,l),
(84,131,l),
(4,100,l),
(-12,0,l),
(492,0,l),
(530,245,l),
(414,245,l)
);
}
);
width = 555;
}
);
metricLeft = H;
unicode = 76;
},
{
glyphname = Lslash;
kernLeft = H;
kernRight = L;
layers = (
{
background = {
shapes = (
{
closed = 1;
nodes = (
(82,245,l),
(415,448,l),
(409,465,l),
(76,262,l)
);
},
{
closed = 1;
nodes = (
(438,12,l),
(447,19,l),
(149,19,l),
(154,9,l),
(259,671,l),
(251,663,l),
(370,677,l),
(372,692,l),
(145,687,l),
(143,672,l),
(245,663,l),
(239,670,l),
(136,21,l),
(145,29,l),
(39,15,l),
(37,0,l),
(464,0,l),
(487,145,l),
(473,145,l)
);
}
);
};
guides = (
{
angle = -99;
pos = (113,484);
}
);
layerId = "075BA79B-D813-4287-A9DD-CCAF2D535ED3";
shapes = (
{
closed = 1;
nodes = (
(82,245,l),
(415,448,l),
(409,465,l),
(76,262,l)
);
},
{
closed = 1;
nodes = (
(438,12,l),
(447,19,l),
(149,19,l),
(154,9,l),
(259,671,l),
(251,663,l),
(370,677,l),
(372,692,l),
(145,687,l),
(143,672,l),
(245,663,l),
(239,670,l),
(136,21,l),
(145,29,l),
(39,15,l),
(37,0,l),
(464,0,l),
(487,145,l),
(473,145,l)
);
}
);
width = 538;
},
{
background = {
shapes = (
{
closed = 1;
nodes = (
(52,223,l),
(490,417,l),
(457,515,l),
(19,321,l)
);
},
{
closed = 1;
nodes = (
(400,114,l),
(431,145,l),
(269,145,l),
(288,105,l),
(367,600,l),
(345,572,l),
(428,610,l),
(444,710,l),
(127,705,l),
(111,605,l),
(189,571,l),
(170,600,l),
(91,105,l),
(115,131,l),
(31,100,l),
(15,0,l),
(523,0,l),
(565,245,l),
(449,245,l)
);
}
);
};
guides = (
{
angle = -0.7948;
pos = (62,542);
},
{
angle = -99;
pos = (89,484);
}
);
layerId = "927AED37-E9E6-4F96-A08E-421C3785EFC6";
shapes = (
{
closed = 1;
nodes = (
(52,223,l),
(490,417,l),
(457,515,l),
(19,321,l)
);
},
{
closed = 1;
nodes = (
(400,114,l),
(431,145,l),
(269,145,l),
(288,105,l),
(367,600,l),
(345,572,l),
(428,610,l),
(444,710,l),
(127,705,l),
(111,605,l),
(189,571,l),
(170,600,l),
(91,105,l),
(115,131,l),
(31,100,l),
(15,0,l),
(523,0,l),
(565,245,l),
(449,245,l)
);
}
);
width = 589;
}
);
metricRight = L;
unicode = 321;
},
{
glyphname = M;
kernLeft = H;
kernRight = H;
layers = (
{
anchors = (
{
name = bottom;
pos = (401,0);
},
{
name = top;
pos = (510,692);
}
);
background = {
anchors = (
{
name = bottom;
pos = (401,0);
},
{
name = top;
pos = (510,692);
}
);
shapes = (
{
closed = 1;
nodes = (
(890,692,l),
(767,687,l),
(425,197,l),
(431,197,l),
(251,692,l),
(130,687,l),
(128,672,l),
(230,663,l),
(224,671,l),
(121,21,l),
(130,29,l),
(24,15,l),
(22,0,l),
(234,0,l),
(236,15,l),
(135,29,l),
(140,21,l),
(242,665,l),
(239,664,l),
(416,178,l),
(436,182,l),
(772,661,l),
(770,664,l),
(668,21,l),
(676,29,l),
(571,15,l),
(569,0,l),
(781,0,l),
(783,15,l),
(682,29,l),
(688,21,l),
(791,671,l),
(781,663,l),
(888,677,l)
);
}
);
};
guides = (
{
angle = -99;
pos = (720,231);
},
{
angle = -99;
pos = (701,231);
}
);
layerId = "075BA79B-D813-4287-A9DD-CCAF2D535ED3";
shapes = (
{
closed = 1;
nodes = (
(890,692,l),
(767,687,l),
(425,197,l),
(431,197,l),
(251,692,l),
(130,687,l),
(128,672,l),
(230,663,l),
(224,671,l),
(121,21,l),
(130,29,l),
(24,15,l),
(22,0,l),
(234,0,l),
(236,15,l),
(135,29,l),
(140,21,l),
(242,665,l),
(239,664,l),
(416,178,l),
(436,182,l),
(772,661,l),
(770,664,l),
(668,21,l),
(676,29,l),
(571,15,l),
(569,0,l),
(781,0,l),
(783,15,l),
(682,29,l),
(688,21,l),
(791,671,l),
(781,663,l),
(888,677,l)
);
}
);
width = 884;
},
{
anchors = (
{
name = bottom;
pos = (372,0);
},
{
name = top;
pos = (488,710);
}
);
background = {
anchors = (
{
name = bottom;
pos = (372,0);
},
{
name = top;
pos = (488,710);
}
);
shapes = (
{
closed = 1;
nodes = (
(872,710,l),
(596,705,l),
(426,383,l),
(455,383,l),
(383,710,l),
(100,705,l),
(84,605,l),
(159,571,l),
(139,600,l),
(60,105,l),
(92,134,l),
(4,100,l),
(-12,0,l),
(261,0,l),
(277,100,l),
(208,132,l),
(218,105,l),
(281,497,l),
(244,496,l),
(329,178,l),
(449,183,l),
(631,495,l),
(598,496,l),
(534,95,l),
(572,135,l),
(480,100,l),
(464,0,l),
(759,0,l),
(775,100,l),
(706,132,l),
(716,105,l),
(795,605,l),
(773,572,l),
(856,610,l)
);
}
);
};
guides = (
{
angle = -99;
pos = (24,231);
},
{
angle = -99;
pos = (416,264);
}
);
layerId = "927AED37-E9E6-4F96-A08E-421C3785EFC6";
shapes = (
{
closed = 1;
nodes = (
(872,710,l),
(596,705,l),
(426,383,l),
(455,383,l),
(383,710,l),
(100,705,l),
(84,605,l),
(159,571,l),
(139,600,l),
(60,105,l),
(92,134,l),
(4,100,l),
(-12,0,l),
(261,0,l),
(277,100,l),
(208,132,l),
(218,105,l),
(281,497,l),
(244,496,l),
(329,178,l),
(449,183,l),
(631,495,l),
(598,496,l),
(534,95,l),
(572,135,l),
(480,100,l),
(464,0,l),
(759,0,l),
(775,100,l),
(706,132,l),
(716,105,l),
(795,605,l),
(773,572,l),
(856,610,l)
);
}
);
width = 830;
}
);
unicode = 77;
},
{
glyphname = N;
kernLeft = H;
kernRight = H;
layers = (
{
anchors = (
{
name = bottom;
pos = (357,0);
},
{
name = top;
pos = (466,692);
}
);
background = {
anchors = (
{
name = bottom;
pos = (357,0);
},
{
name = top;
pos = (466,692);
}
);
shapes = (
{
closed = 1;
nodes = (
(584,672,l),
(685,663,l),
(680,672,l),
(579,30,l),
(582,31,l),
(250,692,l),
(130,687,l),
(128,672,l),
(229,663,l),
(224,671,l),
(121,21,l),
(129,29,l),
(24,15,l),
(22,0,l),
(233,0,l),
(235,15,l),
(135,29,l),
(140,21,l),
(243,670,l),
(239,669,l),
(575,0,l),
(593,0,l),
(699,671,l),
(691,663,l),
(796,677,l),
(798,692,l),
(586,687,l)
);
}
);
};
guides = (
{
angle = 81.023;
pos = (410,336);
}
);
layerId = "075BA79B-D813-4287-A9DD-CCAF2D535ED3";
shapes = (
{
closed = 1;
nodes = (
(584,672,l),
(685,663,l),
(680,672,l),
(579,30,l),
(582,31,l),
(250,692,l),
(130,687,l),
(128,672,l),
(229,663,l),
(224,671,l),
(121,21,l),
(129,29,l),
(24,15,l),
(22,0,l),
(233,0,l),
(235,15,l),
(135,29,l),
(140,21,l),
(243,670,l),
(239,669,l),
(575,0,l),
(593,0,l),
(699,671,l),
(691,663,l),
(796,677,l),
(798,692,l),
(586,687,l)
);
}
);
width = 781;
},
{
anchors = (
{
name = bottom;
pos = (329,0);
},
{
name = top;
pos = (442,710);
}
);
background = {
anchors = (
{
name = bottom;
pos = (329,0);
},
{
name = top;
pos = (442,710);
}
);
shapes = (
{
closed = 1;
nodes = (
(492,605,l),
(566,571,l),
(547,600,l),
(488,228,l),
(512,228,l),
(383,710,l),
(100,705,l),
(84,605,l),
(158,571,l),
(139,600,l),
(60,105,l),
(84,131,l),
(4,100,l),
(-12,0,l),
(260,0,l),
(276,100,l),
(210,132,l),
(220,105,l),
(282,495,l),
(260,495,l),
(397,0,l),
(611,0,l),
(707,600,l),
(685,572,l),
(763,610,l),
(779,710,l),
(508,705,l)
);
}
);
};
guides = (
{
angle = 81.023;
pos = (382,336);
}
);
layerId = "927AED37-E9E6-4F96-A08E-421C3785EFC6";
shapes = (
{
closed = 1;
nodes = (
(492,605,l),
(566,571,l),
(547,600,l),
(488,228,l),
(512,228,l),
(383,710,l),
(100,705,l),
(84,605,l),
(158,571,l),
(139,600,l),
(60,105,l),
(84,131,l),
(4,100,l),
(-12,0,l),
(260,0,l),
(276,100,l),
(210,132,l),
(220,105,l),
(282,495,l),
(260,495,l),
(397,0,l),
(611,0,l),
(707,600,l),
(685,572,l),
(763,610,l),
(779,710,l),
(508,705,l)
);
}
);
width = 730;
}
);
unicode = 78;
},
{
glyphname = Eng;
kernLeft = H;
kernRight = U;
layers = (
{
background = {
shapes = (
{
closed = 1;
nodes = (
(561,-77,ls),
(544,-182,o),
(513,-217,o),
(430,-217,cs),
(422,-217,o),
(412,-217,o),
(402,-216,c),
(399,-234,l),
(411,-235,o),
(421,-236,o),
(434,-236,cs),
(525,-236,o),
(563,-187,o),
(581,-75,cs),
(699,671,l),
(691,663,l),
(796,677,l),
(798,692,l),
(586,687,l),
(584,672,l),
(685,663,l),
(680,672,l),
(579,30,l),
(582,31,l),
(250,692,l),
(130,687,l),
(128,672,l),
(229,663,l),
(224,671,l),
(121,21,l),
(129,29,l),
(24,15,l),
(22,0,l),
(233,0,l),
(235,15,l),
(135,29,l),
(140,21,l),
(243,670,l),
(239,669,l),
(577,-4,l),
(578,26,l)
);
}
);
};
layerId = "075BA79B-D813-4287-A9DD-CCAF2D535ED3";
shapes = (
{
closed = 1;
nodes = (
(561,-77,ls),
(544,-182,o),
(513,-217,o),
(430,-217,cs),
(422,-217,o),
(412,-217,o),
(402,-216,c),
(399,-234,l),
(411,-235,o),
(421,-236,o),
(434,-236,cs),
(525,-236,o),
(563,-187,o),
(581,-75,cs),
(699,671,l),
(691,663,l),
(796,677,l),
(798,692,l),
(586,687,l),
(584,672,l),
(685,663,l),
(680,672,l),
(579,30,l),
(582,31,l),
(250,692,l),
(130,687,l),
(128,672,l),
(229,663,l),
(224,671,l),
(121,21,l),
(129,29,l),
(24,15,l),
(22,0,l),
(233,0,l),
(235,15,l),
(135,29,l),
(140,21,l),
(243,670,l),
(239,669,l),
(577,-4,l),
(578,26,l)
);
}
);
width = 782;
},
{
background = {
shapes = (
{
closed = 1;
nodes = (
(424,-13,ls),
(415,-76,o),
(375,-105,o),
(320,-105,cs),
(308,-105,o),
(295,-104,o),
(281,-101,c),
(250,-235,l),
(282,-242,o),
(312,-245,o),
(340,-245,cs),
(489,-245,o),
(587,-153,o),
(616,30,cs),
(707,600,l),
(685,572,l),
(763,610,l),
(779,710,l),
(508,705,l),
(492,605,l),
(566,571,l),
(547,600,l),
(488,228,l),
(525,228,l),
(380,710,l),
(100,705,l),
(84,605,l),
(158,571,l),
(139,600,l),
(60,105,l),
(84,131,l),
(4,100,l),
(-12,0,l),
(260,0,l),
(276,100,l),
(210,132,l),
(220,105,l),
(282,495,l),
(258,495,l),
(436,-53,l),
(429,22,l)
);
}
);
};
layerId = "927AED37-E9E6-4F96-A08E-421C3785EFC6";
shapes = (
{
closed = 1;
nodes = (
(424,-13,ls),
(415,-76,o),
(375,-105,o),
(320,-105,cs),
(308,-105,o),
(295,-104,o),
(281,-101,c),
(250,-235,l),
(282,-242,o),
(312,-245,o),
(340,-245,cs),
(489,-245,o),
(587,-153,o),
(616,30,cs),
(707,600,l),
(685,572,l),
(763,610,l),
(779,710,l),
(508,705,l),
(492,605,l),
(566,571,l),
(547,600,l),
(488,228,l),
(525,228,l),
(380,710,l),
(100,705,l),
(84,605,l),
(158,571,l),
(139,600,l),
(60,105,l),
(84,131,l),
(4,100,l),
(-12,0,l),
(260,0,l),
(276,100,l),
(210,132,l),
(220,105,l),
(282,495,l),
(258,495,l),
(436,-53,l),
(429,22,l)
);
}
);
width = 725;
}
);
metricLeft = N;
metricRight = J;
unicode = 330;
},
{
glyphname = O;
kernLeft = O;
kernRight = O;
layers = (
{
anchors = (
{
name = bottom;
pos = (322,0);
},
{
name = center;
pos = (382,346);
},
{
name = ogonek;
pos = (381,0);
},
{
name = top;
pos = (459,692);
},
{
name = topleft;
pos = (85,692);
},
{
name = topright;
pos = (619,692);
}
);
background = {
anchors = (
{
name = bottom;
pos = (322,0);
},
{
name = center;
pos = (382,346);
},
{
name = ogonek;
pos = (381,0);
},
{
name = top;
pos = (459,692);
},
{
name = topleft;
pos = (85,692);
},
{
name = topright;
pos = (619,692);
}
);
shapes = (
{
closed = 1;
nodes = (
(537,-6,o),
(678,216,o),
(678,430,cs),
(678,616,o),
(571,698,o),
(441,698,cs),
(230,698,o),
(86,484,o),
(86,264,cs),
(86,73,o),
(194,-6,o),
(322,-6,cs)
);
},
{
closed = 1;
nodes = (
(203,14,o),
(107,93,o),
(107,266,cs),
(107,470,o),
(241,678,o),
(438,678,cs),
(559,678,o),
(657,599,o),
(657,426,cs),
(657,222,o),
(521,14,o),
(324,14,cs)
);
}
);
};
guides = (
{
angle = 90;
pos = (846,854);
},
{
angle = -99;
pos = (432,661);
}
);
layerId = "075BA79B-D813-4287-A9DD-CCAF2D535ED3";
shapes = (
{
closed = 1;
nodes = (
(537,-6,o),
(678,216,o),
(678,430,cs),
(678,616,o),
(571,698,o),
(441,698,cs),
(230,698,o),
(86,484,o),
(86,264,cs),
(86,73,o),
(194,-6,o),
(322,-6,cs)
);
},
{
closed = 1;
nodes = (
(203,14,o),
(107,93,o),
(107,266,cs),
(107,470,o),
(241,678,o),
(438,678,cs),
(559,678,o),
(657,599,o),
(657,426,cs),
(657,222,o),
(521,14,o),
(324,14,cs)
);
}
);
width = 736;
},
{
anchors = (
{
name = bottom;
pos = (310,0);
},
{
name = center;
pos = (367,355);
},
{
name = ogonek;
pos = (426,0);
},
{
name = top;
pos = (436,710);
},
{
name = topleft;
pos = (101,710);
},
{
name = topright;
pos = (608,710);
}
);
background = {
anchors = (
{
name = bottom;
pos = (310,0);
},
{
name = center;
pos = (367,355);
},
{
name = ogonek;
pos = (426,0);
},
{
name = top;
pos = (436,710);
},
{
name = topleft;
pos = (101,710);
},
{
name = topright;
pos = (608,710);
}
);
shapes = (
{
closed = 1;
nodes = (
(604,-15,o),
(700,241,o),
(700,434,cs),
(700,616,o),
(615,725,o),
(424,725,cs),
(133,725,o),
(36,471,o),
(36,277,cs),
(36,96,o),
(120,-15,o),
(312,-15,cs)
);
},
{
closed = 1;
nodes = (
(275,140,o),
(244,176,o),
(244,272,cs),
(244,364,o),
(272,570,o),
(407,570,cs),
(462,570,o),
(492,536,o),
(492,442,cs),
(492,350,o),
(463,140,o),
(330,140,cs)
);
}
);
};
guides = (
{
angle = -99;
pos = (415,661);
}
);
layerId = "927AED37-E9E6-4F96-A08E-421C3785EFC6";
shapes = (
{
closed = 1;
nodes = (
(604,-15,o),
(700,241,o),
(700,434,cs),
(700,616,o),
(615,725,o),
(424,725,cs),
(133,725,o),
(36,471,o),
(36,277,cs),
(36,96,o),
(120,-15,o),
(312,-15,cs)
);
},
{
closed = 1;
nodes = (
(275,140,o),
(244,176,o),
(244,272,cs),
(244,364,o),
(272,570,o),
(407,570,cs),
(462,570,o),
(492,536,o),
(492,442,cs),
(492,350,o),
(463,140,o),
(330,140,cs)
);
}
);
width = 708;
}
);
unicode = 79;
},
{
glyphname = Ohorn;
kernLeft = O;
kernRight = Ohorn;
layers = (
{
anchors = (
{
name = bottom;
pos = (321,0);
},
{
name = top;
pos = (462,692);
}
);
background = {
anchors = (
{
name = bottom;
pos = (321,0);
},
{
name = top;
pos = (462,692);
}
);
shapes = (
{
closed = 1;
nodes = (
(537,-6,o),
(678,216,o),
(678,430,cs),
(678,616,o),
(571,698,o),
(441,698,cs),
(230,698,o),
(86,484,o),
(86,264,cs),
(86,73,o),
(194,-6,o),
(322,-6,cs)
);
},
{
closed = 1;
nodes = (
(203,14,o),
(107,93,o),
(107,266,cs),
(107,470,o),
(241,678,o),
(438,678,cs),
(559,678,o),
(657,599,o),
(657,426,cs),
(657,222,o),
(521,14,o),
(324,14,cs)
);
},
{
closed = 1;
nodes = (
(668,651,o),
(737,694,o),
(737,778,cs),
(737,792,o),
(735,805,o),
(732,819,c),
(712,814,l),
(715,800,o),
(716,787,o),
(716,778,cs),
(716,700,o),
(649,668,o),
(545,667,c),
(570,648,l)
);
}
);
};
layerId = "075BA79B-D813-4287-A9DD-CCAF2D535ED3";
shapes = (
{
closed = 1;
nodes = (
(537,-6,o),
(678,216,o),
(678,430,cs),
(678,616,o),
(571,698,o),
(441,698,cs),
(230,698,o),
(86,484,o),
(86,264,cs),
(86,73,o),
(194,-6,o),
(322,-6,cs)
);
},
{
closed = 1;
nodes = (
(203,14,o),
(107,93,o),
(107,266,cs),
(107,470,o),
(241,678,o),
(438,678,cs),
(559,678,o),
(657,599,o),
(657,426,cs),
(657,222,o),
(521,14,o),
(324,14,cs)
);
},
{
closed = 1;
nodes = (
(668,651,o),
(737,694,o),
(737,778,cs),
(737,792,o),
(735,805,o),
(732,819,c),
(712,814,l),
(715,800,o),
(716,787,o),
(716,778,cs),
(716,700,o),
(649,668,o),
(545,667,c),
(570,648,l)
);
}
);
width = 740;
},
{
anchors = (
{
name = bottom;
pos = (310,0);
},
{
name = top;
pos = (423,710);
}
);
background = {
anchors = (
{
name = bottom;
pos = (310,0);
},
{
name = top;
pos = (423,710);
}
);
shapes = (
{
closed = 1;
nodes = (
(604,-15,o),
(700,240,o),
(700,437,cs),
(700,614,o),
(623,725,o),
(428,725,cs),
(132,725,o),
(36,471,o),
(36,277,cs),
(36,96,o),
(120,-15,o),
(312,-15,cs)
);
},
{
closed = 1;
nodes = (
(275,140,o),
(244,176,o),
(244,272,cs),
(244,364,o),
(272,570,o),
(407,570,cs),
(462,570,o),
(492,536,o),
(492,442,cs),
(492,350,o),
(463,140,o),
(330,140,cs)
);
},
{
closed = 1;
nodes = (
(692,619,o),
(779,671,o),
(779,775,cs),
(779,802,o),
(773,833,o),
(762,867,c),
(621,841,l),
(625,822,o),
(628,804,o),
(628,787,cs),
(628,742,o),
(613,710,o),
(525,709,c),
(559,620,l)
);
}
);
};
layerId = "927AED37-E9E6-4F96-A08E-421C3785EFC6";
shapes = (
{
closed = 1;
nodes = (
(604,-15,o),
(700,240,o),
(700,437,cs),
(700,614,o),
(623,725,o),
(428,725,cs),
(132,725,o),
(36,471,o),
(36,277,cs),
(36,96,o),
(120,-15,o),
(312,-15,cs)
);
},
{
closed = 1;
nodes = (
(275,140,o),
(244,176,o),
(244,272,cs),
(244,364,o),
(272,570,o),
(407,570,cs),
(462,570,o),
(492,536,o),
(492,442,cs),
(492,350,o),
(463,140,o),
(330,140,cs)
);
},
{
closed = 1;
nodes = (
(692,619,o),
(779,671,o),
(779,775,cs),
(779,802,o),
(773,833,o),
(762,867,c),
(621,841,l),
(625,822,o),
(628,804,o),
(628,787,cs),
(628,742,o),
(613,710,o),
(525,709,c),
(559,620,l)
);
}
);
width = 720;
}
);
metricLeft = O;
unicode = 416;
},
{
glyphname = Oslash;
kernLeft = O;
kernRight = O;
layers = (
{
anchors = (
{
name = top;
pos = (466,692);
}
);
background = {
anchors = (
{
name = top;
pos = (466,692);
}
);
guides = (
{
angle = 90;
pos = (405,592);
}
);
shapes = (
{
closed = 1;
nodes = (
(601,631,l),
(597,626,l),
(172,71,l),
(169,67,l),
(73,-59,l),
(88,-70,l),
(182,53,l),
(185,57,l),
(613,617,l),
(617,622,l),
(717,752,l),
(702,762,l)
);
},
{
closed = 1;
nodes = (
(544,-6,o),
(685,213,o),
(685,436,cs),
(685,613,o),
(578,698,o),
(448,698,cs),
(237,698,o),
(93,487,o),
(93,257,cs),
(93,77,o),
(201,-6,o),
(328,-6,cs)
);
},
{
closed = 1;
nodes = (
(210,14,o),
(114,96,o),
(114,261,cs),
(114,473,o),
(248,678,o),
(446,678,cs),
(566,678,o),
(664,596,o),
(664,431,cs),
(664,219,o),
(528,14,o),
(330,14,cs)
);
}
);
};
guides = (
{
angle = -99;
pos = (433,592);
},
{
pos = (96,346);
}
);
layerId = "075BA79B-D813-4287-A9DD-CCAF2D535ED3";
shapes = (
{
closed = 1;
nodes = (
(601,631,l),
(597,626,l),
(172,71,l),
(169,67,l),
(73,-59,l),
(88,-70,l),
(182,53,l),
(185,57,l),
(613,617,l),
(617,622,l),
(717,752,l),
(702,762,l)
);
},
{
closed = 1;
nodes = (
(544,-6,o),
(685,213,o),
(685,436,cs),
(685,613,o),
(578,698,o),
(448,698,cs),
(237,698,o),
(93,487,o),
(93,257,cs),
(93,77,o),
(201,-6,o),
(328,-6,cs)
);
},
{
closed = 1;
nodes = (
(210,14,o),
(114,96,o),
(114,261,cs),
(114,473,o),
(248,678,o),
(446,678,cs),
(566,678,o),
(664,596,o),
(664,431,cs),
(664,219,o),
(528,14,o),
(330,14,cs)
);
}
);
width = 752;
},
{
anchors = (
{
name = top;
pos = (439,710);
}
);
background = {
anchors = (
{
name = top;
pos = (439,710);
}
);
shapes = (
{
closed = 1;
nodes = (
(528,659,l),
(524,646,l),
(187,202,l),
(170,188,l),
(10,-22,l),
(103,-83,l),
(241,99,l),
(242,109,l),
(603,582,l),
(620,597,l),
(720,729,l),
(628,790,l)
);
},
{
closed = 1;
nodes = (
(607,-15,o),
(703,241,o),
(703,434,cs),
(703,616,o),
(618,725,o),
(427,725,cs),
(136,725,o),
(39,471,o),
(39,277,cs),
(39,96,o),
(123,-15,o),
(315,-15,cs)
);
},
{
closed = 1;
nodes = (
(278,140,o),
(247,176,o),
(247,270,cs),
(247,362,o),
(274,570,o),
(411,570,cs),
(465,570,o),
(495,536,o),
(495,442,cs),
(495,350,o),
(466,140,o),
(333,140,cs)
);
}
);
};
guides = (
{
pos = (-74,355);
},
{
angle = -99;
pos = (407,592);
}
);
layerId = "927AED37-E9E6-4F96-A08E-421C3785EFC6";
shapes = (
{
closed = 1;
nodes = (
(528,659,l),
(524,646,l),
(187,202,l),
(170,188,l),
(10,-22,l),
(103,-83,l),
(241,99,l),
(242,109,l),
(603,582,l),
(620,597,l),
(720,729,l),
(628,790,l)
);
},
{
closed = 1;
nodes = (
(607,-15,o),
(703,241,o),
(703,434,cs),
(703,616,o),
(618,725,o),
(427,725,cs),
(136,725,o),
(39,471,o),
(39,277,cs),
(39,96,o),
(123,-15,o),
(315,-15,cs)
);
},
{
closed = 1;
nodes = (
(278,140,o),
(247,176,o),
(247,270,cs),
(247,362,o),
(274,570,o),
(411,570,cs),
(465,570,o),
(495,536,o),
(495,442,cs),
(495,350,o),
(466,140,o),
(333,140,cs)
);
}
);
width = 713;
}
);
unicode = 216;
},
{
glyphname = OE;
kernLeft = O;
kernRight = E;
layers = (
{
anchors = (
{
name = bottom;
pos = (420,0);
},
{
name = top;
pos = (530,692);
}
);
background = {
anchors = (
{
name = bottom;
pos = (420,0);
},
{
name = top;
pos = (530,692);
}
);
shapes = (
{
closed = 1;
nodes = (
(350,-1,o),
(412,0,o),
(416,0,cs),
(785,0,l),
(807,141,l),
(793,141,l),
(758,12,l),
(767,19,l),
(426,19,l),
(433,15,l),
(489,367,l),
(480,359,l),
(764,359,l),
(767,378,l),
(483,378,l),
(489,370,l),
(538,680,l),
(530,673,l),
(858,673,l),
(851,680,l),
(846,556,l),
(861,556,l),
(882,692,l),
(541,692,ls),
(524,692,o),
(459,693,o),
(444,693,cs),
(230,693,o),
(86,482,o),
(86,263,cs),
(86,80,o),
(187,-1,o),
(334,-1,cs)
);
},
{
closed = 1;
nodes = (
(416,21,l),
(399,19,o),
(349,18,o),
(326,18,cs),
(206,18,o),
(107,97,o),
(107,267,cs),
(107,467,o),
(240,673,o),
(438,673,cs),
(459,673,o),
(508,673,o),
(521,672,c),
(518,679,l),
(413,14,l)
);
}
);
};
guides = (
{
angle = -99;
pos = (456,226);
}
);
layerId = "075BA79B-D813-4287-A9DD-CCAF2D535ED3";
shapes = (
{
closed = 1;
nodes = (
(350,-1,o),
(412,0,o),
(416,0,cs),
(785,0,l),
(807,141,l),
(793,141,l),
(758,12,l),
(767,19,l),
(426,19,l),
(433,15,l),
(489,367,l),
(480,359,l),
(764,359,l),
(767,378,l),
(483,378,l),
(489,370,l),
(538,680,l),
(530,673,l),
(858,673,l),
(851,680,l),
(846,556,l),
(861,556,l),
(882,692,l),
(541,692,ls),
(524,692,o),
(459,693,o),
(444,693,cs),
(230,693,o),
(86,482,o),
(86,263,cs),
(86,80,o),
(187,-1,o),
(334,-1,cs)
);
},
{
closed = 1;
nodes = (
(416,21,l),
(399,19,o),
(349,18,o),
(326,18,cs),
(206,18,o),
(107,97,o),
(107,267,cs),
(107,467,o),
(240,673,o),
(438,673,cs),
(459,673,o),
(508,673,o),
(521,672,c),
(518,679,l),
(413,14,l)
);
}
);
width = 911;
},
{
anchors = (
{
name = bottom;
pos = (485,0);
},
{
name = top;
pos = (598,710);
}
);
background = {
anchors = (
{
name = bottom;
pos = (485,0);
},
{
name = top;
pos = (598,710);
}
);
shapes = (
{
closed = 1;
nodes = (
(365,-7,o),
(474,0,o),
(523,0,cs),
(845,0,l),
(880,211,l),
(764,211,l),
(727,115,l),
(768,145,l),
(580,145,l),
(599,106,l),
(634,325,l),
(599,290,l),
(801,290,l),
(824,430,l),
(625,430,l),
(646,401,l),
(677,595,l),
(643,565,l),
(812,565,l),
(792,591,l),
(802,508,l),
(916,508,l),
(948,710,l),
(688,710,ls),
(654,710,o),
(503,716,o),
(450,716,cs),
(162,716,o),
(39,531,o),
(39,298,cs),
(39,88,o),
(133,-7,o),
(316,-7,cs)
);
},
{
closed = 1;
nodes = (
(442,160,l),
(403,152,o),
(370,147,o),
(344,147,cs),
(275,147,o),
(247,181,o),
(247,290,cs),
(247,452,o),
(308,564,o),
(427,564,cs),
(457,564,o),
(490,557,o),
(526,543,c),
(482,606,l),
(401,102,l)
);
}
);
};
guides = (
{
pos = (742,565);
},
{
pos = (395,145);
},
{
angle = -99;
pos = (619,231);
},
{
angle = -99;
pos = (521,231);
}
);
layerId = "927AED37-E9E6-4F96-A08E-421C3785EFC6";
shapes = (
{
closed = 1;
nodes = (
(365,-7,o),
(474,0,o),
(523,0,cs),
(845,0,l),
(880,211,l),
(764,211,l),
(727,115,l),
(768,145,l),
(580,145,l),
(599,106,l),
(634,325,l),
(599,290,l),
(801,290,l),
(824,430,l),
(625,430,l),
(646,401,l),
(677,595,l),
(643,565,l),
(812,565,l),
(792,591,l),
(802,508,l),
(916,508,l),
(948,710,l),
(688,710,ls),
(654,710,o),
(503,716,o),
(450,716,cs),
(162,716,o),
(39,531,o),
(39,298,cs),
(39,88,o),
(133,-7,o),
(316,-7,cs)
);
},
{
closed = 1;
nodes = (
(442,160,l),
(403,152,o),
(370,147,o),
(344,147,cs),
(275,147,o),
(247,181,o),
(247,290,cs),
(247,452,o),
(308,564,o),
(427,564,cs),
(457,564,o),
(490,557,o),
(526,543,c),
(482,606,l),
(401,102,l)
);
}
);
width = 927;
}
);
metricLeft = O;
metricRight = E;
unicode = 338;
},
{
glyphname = P;
kernLeft = H;
kernRight = P;
layers = (
{
anchors = (
{
name = bottom;
pos = (128,0);
},
{
name = top;
pos = (343,692);
}
);
background = {
anchors = (
{
name = bottom;
pos = (128,0);
},
{
name = top;
pos = (343,692);
}
);
shapes = (
{
closed = 1;
nodes = (
(446,285,o),
(557,390,o),
(557,533,cs),
(557,637,o),
(499,692,o),
(377,692,cs),
(248,692,l),
(130,687,l),
(128,672,l),
(230,663,l),
(224,671,l),
(121,21,l),
(130,29,l),
(24,15,l),
(22,0,l),
(258,0,l),
(260,15,l),
(136,29,l),
(141,21,l),
(184,292,l),
(176,285,l),
(282,285,ls)
);
},
{
closed = 1;
nodes = (
(481,673,o),
(536,626,o),
(536,531,cs),
(536,403,o),
(436,304,o),
(284,304,cs),
(179,304,l),
(185,297,l),
(245,680,l),
(237,673,l),
(374,673,ls)
);
}
);
};
guides = (
{
angle = -99;
pos = (167,248);
}
);
layerId = "075BA79B-D813-4287-A9DD-CCAF2D535ED3";
shapes = (
{
closed = 1;
nodes = (
(446,285,o),
(557,390,o),
(557,533,cs),
(557,637,o),
(499,692,o),
(377,692,cs),
(248,692,l),
(130,687,l),
(128,672,l),
(230,663,l),
(224,671,l),
(121,21,l),
(130,29,l),
(24,15,l),
(22,0,l),
(258,0,l),
(260,15,l),
(136,29,l),
(141,21,l),
(184,292,l),
(176,285,l),
(282,285,ls)
);
},
{
closed = 1;
nodes = (
(481,673,o),
(536,626,o),
(536,531,cs),
(536,403,o),
(436,304,o),
(284,304,cs),
(179,304,l),
(185,297,l),
(245,680,l),
(237,673,l),
(374,673,ls)
);
}
);
width = 566;
},
{
anchors = (
{
name = bottom;
pos = (146,0);
},
{
name = top;
pos = (375,710);
}
);
background = {
anchors = (
{
name = bottom;
pos = (146,0);
},
{
name = top;
pos = (375,710);
}
);
shapes = (
{
closed = 1;
nodes = (
(508,231,o),
(631,348,o),
(631,518,cs),
(631,637,o),
(570,710,o),
(416,710,cs),
(357,710,l),
(100,705,l),
(84,605,l),
(158,571,l),
(139,600,l),
(60,105,l),
(84,131,l),
(4,100,l),
(-12,0,l),
(315,0,l),
(331,100,l),
(247,132,l),
(257,105,l),
(283,266,l),
(238,231,l),
(307,231,ls)
);
},
{
closed = 1;
nodes = (
(415,566,o),
(426,539,o),
(426,499,cs),
(426,434,o),
(398,376,o),
(312,376,cs),
(271,376,l),
(295,343,l),
(336,599,l),
(310,566,l),
(358,566,ls)
);
}
);
};
guides = (
{
angle = -99;
pos = (24,231);
},
{
angle = -99;
pos = (183,231);
},
{
angle = -99;
pos = (355,231);
}
);
layerId = "927AED37-E9E6-4F96-A08E-421C3785EFC6";
shapes = (
{
closed = 1;
nodes = (
(508,231,o),
(631,348,o),
(631,518,cs),
(631,637,o),
(570,710,o),
(416,710,cs),
(357,710,l),
(100,705,l),
(84,605,l),
(158,571,l),
(139,600,l),
(60,105,l),
(84,131,l),
(4,100,l),
(-12,0,l),
(315,0,l),
(331,100,l),
(247,132,l),
(257,105,l),
(283,266,l),
(238,231,l),
(307,231,ls)
);
},
{
closed = 1;
nodes = (
(415,566,o),
(426,539,o),
(426,499,cs),
(426,434,o),
(398,376,o),
(312,376,cs),
(271,376,l),
(295,343,l),
(336,599,l),
(310,566,l),
(358,566,ls)
);
}
);
width = 612;
}
);
metricLeft = H;
unicode = 80;
},
{
glyphname = Thorn;
kernLeft = H;
kernRight = P;
layers = (
{
anchors = (
{
name = bottom;
pos = (128,0);
},
{
name = top;
pos = (237,692);
}
);
background = {
anchors = (
{
name = bottom;
pos = (128,0);
},
{
name = top;
pos = (237,692);
}
);
shapes = (
{
closed = 1;
nodes = (
(234,0,l),
(236,15,l),
(136,29,l),
(141,21,l),
(162,154,l),
(152,149,l),
(251,149,ls),
(415,149,o),
(526,254,o),
(526,397,cs),
(526,501,o),
(468,556,o),
(346,556,cs),
(217,556,l),
(225,551,l),
(244,671,l),
(236,663,l),
(341,677,l),
(343,692,l),
(130,687,l),
(128,672,l),
(230,663,l),
(224,671,l),
(121,21,l),
(130,29,l),
(24,15,l),
(22,0,l)
);
},
{
closed = 1;
nodes = (
(224,545,l),
(214,537,l),
(343,537,ls),
(450,537,o),
(505,490,o),
(505,395,cs),
(505,267,o),
(405,168,o),
(253,168,cs),
(155,168,l),
(163,160,l)
);
}
);
};
layerId = "075BA79B-D813-4287-A9DD-CCAF2D535ED3";
shapes = (
{
closed = 1;
nodes = (
(234,0,l),
(236,15,l),
(136,29,l),
(141,21,l),
(162,154,l),
(152,149,l),
(251,149,ls),
(415,149,o),
(526,254,o),
(526,397,cs),
(526,501,o),
(468,556,o),
(346,556,cs),
(217,556,l),
(225,551,l),
(244,671,l),
(236,663,l),
(341,677,l),
(343,692,l),
(130,687,l),
(128,672,l),
(230,663,l),
(224,671,l),
(121,21,l),
(130,29,l),
(24,15,l),
(22,0,l)
);
},
{
closed = 1;
nodes = (
(224,545,l),
(214,537,l),
(343,537,ls),
(450,537,o),
(505,490,o),
(505,395,cs),
(505,267,o),
(405,168,o),
(253,168,cs),
(155,168,l),
(163,160,l)
);
}
);
width = 557;
},
{
anchors = (
{
name = bottom;
pos = (146,0);
},
{
name = top;
pos = (259,710);
}
);
background = {
anchors = (
{
name = bottom;
pos = (146,0);
},
{
name = top;
pos = (259,710);
}
);
shapes = (
{
closed = 1;
nodes = (
(314,0,l),
(330,100,l),
(247,132,l),
(257,105,l),
(268,178,l),
(250,156,l),
(289,156,ls),
(480,156,o),
(600,246,o),
(600,399,cs),
(600,497,o),
(550,559,o),
(398,559,cs),
(318,559,l),
(327,544,l),
(336,603,l),
(314,572,l),
(397,610,l),
(413,710,l),
(100,705,l),
(84,605,l),
(158,571,l),
(139,600,l),
(60,105,l),
(84,131,l),
(4,100,l),
(-12,0,l)
);
},
{
closed = 1;
nodes = (
(309,434,l),
(292,419,l),
(340,419,ls),
(393,419,o),
(403,399,o),
(403,372,cs),
(403,324,o),
(373,296,o),
(294,296,cs),
(273,296,l),
(285,283,l)
);
}
);
};
guides = (
{
angle = -99;
pos = (183,231);
}
);
layerId = "927AED37-E9E6-4F96-A08E-421C3785EFC6";
shapes = (
{
closed = 1;
nodes = (
(314,0,l),
(330,100,l),
(247,132,l),
(257,105,l),
(268,178,l),
(250,156,l),
(289,156,ls),
(480,156,o),
(600,246,o),
(600,399,cs),
(600,497,o),
(550,559,o),
(398,559,cs),
(318,559,l),
(327,544,l),
(336,603,l),
(314,572,l),
(397,610,l),
(413,710,l),
(100,705,l),
(84,605,l),
(158,571,l),
(139,600,l),
(60,105,l),
(84,131,l),
(4,100,l),
(-12,0,l)
);
},
{
closed = 1;
nodes = (
(309,434,l),
(292,419,l),
(340,419,ls),
(393,419,o),
(403,399,o),
(403,372,cs),
(403,324,o),
(373,296,o),
(294,296,cs),
(273,296,l),
(285,283,l)
);
}
);
width = 599;
}
);
metricRight = P;
unicode = 222;
},
{
glyphname = Q;
kernLeft = O;
kernRight = O;
layers = (
{
anchors = (
{
name = bottom;
pos = (328,0);
},
{
name = top;
pos = (437,692);
}
);
background = {
anchors = (
{
name = bottom;
pos = (328,0);
},
{
name = top;
pos = (437,692);
}
);
shapes = (
{
closed = 1;
nodes = (
(651,-121,o),
(618,-134,o),
(586,-134,cs),
(526,-134,o),
(472,-89,o),
(347,-2,c),
(343,-5,l),
(546,8,o),
(678,224,o),
(678,430,cs),
(678,616,o),
(571,698,o),
(441,698,cs),
(230,698,o),
(86,483,o),
(86,263,cs),
(86,73,o),
(194,-6,o),
(321,-6,c),
(311,-2,l),
(456,-103,o),
(520,-155,o),
(586,-155,cs),
(621,-155,o),
(658,-141,o),
(709,-110,c),
(698,-94,l)
);
},
{
closed = 1;
nodes = (
(203,14,o),
(107,93,o),
(107,266,cs),
(107,470,o),
(241,678,o),
(438,678,cs),
(559,678,o),
(657,599,o),
(657,426,cs),
(657,222,o),
(521,14,o),
(324,14,cs)
);
}
);
};
layerId = "075BA79B-D813-4287-A9DD-CCAF2D535ED3";
shapes = (
{
closed = 1;
nodes = (
(651,-121,o),
(618,-134,o),
(586,-134,cs),
(526,-134,o),
(472,-89,o),
(347,-2,c),
(343,-5,l),
(546,8,o),
(678,224,o),
(678,430,cs),
(678,616,o),
(571,698,o),
(441,698,cs),
(230,698,o),
(86,483,o),
(86,263,cs),
(86,73,o),
(194,-6,o),
(321,-6,c),
(311,-2,l),
(456,-103,o),
(520,-155,o),
(586,-155,cs),
(621,-155,o),
(658,-141,o),
(709,-110,c),
(698,-94,l)
);
},
{
closed = 1;
nodes = (
(203,14,o),
(107,93,o),
(107,266,cs),
(107,470,o),
(241,678,o),
(438,678,cs),
(559,678,o),
(657,599,o),
(657,426,cs),
(657,222,o),
(521,14,o),
(324,14,cs)
);
}
);
width = 738;
},
{
anchors = (
{
name = bottom;
pos = (306,0);
},
{
name = top;
pos = (419,710);
}
);
background = {
anchors = (
{
name = bottom;
pos = (306,0);
},
{
name = top;
pos = (419,710);
}
);
shapes = (
{
closed = 1;
nodes = (
(639,-41,o),
(607,-53,o),
(576,-53,cs),
(530,-53,o),
(488,-26,o),
(414,28,c),
(421,-2,l),
(627,53,o),
(700,267,o),
(700,433,cs),
(700,616,o),
(612,725,o),
(423,725,cs),
(134,725,o),
(36,472,o),
(36,278,cs),
(36,106,o),
(113,-3,o),
(286,-14,c),
(251,5,l),
(398,-134,o),
(478,-213,o),
(571,-213,cs),
(622,-213,o),
(676,-190,o),
(747,-141,c),
(683,-16,l)
);
},
{
closed = 1;
nodes = (
(272,138,o),
(241,174,o),
(241,271,cs),
(241,361,o),
(268,570,o),
(407,570,cs),
(464,570,o),
(495,535,o),
(495,440,cs),
(495,349,o),
(467,138,o),
(329,138,cs)
);
}
);
};
layerId = "927AED37-E9E6-4F96-A08E-421C3785EFC6";
shapes = (
{
closed = 1;
nodes = (
(639,-41,o),
(607,-53,o),
(576,-53,cs),
(530,-53,o),
(488,-26,o),
(414,28,c),
(421,-2,l),
(627,53,o),
(700,267,o),
(700,433,cs),
(700,616,o),
(612,725,o),
(423,725,cs),
(134,725,o),
(36,472,o),
(36,278,cs),
(36,106,o),
(113,-3,o),
(286,-14,c),
(251,5,l),
(398,-134,o),
(478,-213,o),
(571,-213,cs),
(622,-213,o),
(676,-190,o),
(747,-141,c),
(683,-16,l)
);
},
{
closed = 1;
nodes = (
(272,138,o),
(241,174,o),
(241,271,cs),
(241,361,o),
(268,570,o),
(407,570,cs),
(464,570,o),
(495,535,o),
(495,440,cs),
(495,349,o),
(467,138,o),
(329,138,cs)
);
}
);
width = 710;
}
);
metricLeft = O;
unicode = 81;
},
{
glyphname = R;
kernLeft = H;
kernRight = R;
layers = (
{
anchors = (
{
name = bottom;
pos = (304,0);
},
{
name = top;
pos = (371,691);
}
);
background = {
anchors = (
{
name = bottom;
pos = (304,0);
},
{
name = top;
pos = (371,691);
}
);
shapes = (
{
closed = 1;
nodes = (
(258,0,l),
(260,15,l),
(136,29,l),
(141,21,l),
(191,334,l),
(183,327,l),
(259,327,ls),
(345,327,o),
(378,317,o),
(418,198,cs),
(484,0,l),
(563,0,l),
(565,15,l),
(493,29,l),
(500,22,l),
(437,202,ls),
(410,280,o),
(388,331,o),
(322,336,c),
(330,333,l),
(460,341,o),
(555,432,o),
(555,551,cs),
(555,646,o),
(495,692,o),
(372,692,cs),
(248,692,l),
(130,687,l),
(128,672,l),
(229,663,l),
(224,671,l),
(121,21,l),
(129,29,l),
(24,15,l),
(22,0,l)
);
},
{
closed = 1;
nodes = (
(245,680,l),
(237,673,l),
(368,673,ls),
(415,673,o),
(534,673,o),
(534,546,cs),
(534,431,o),
(435,346,o),
(282,346,cs),
(187,346,l),
(192,339,l)
);
}
);
};
guides = (
{
angle = 80.9957;
pos = (173,346);
},
{
angle = 80.9957;
pos = (193,346);
}
);
layerId = "075BA79B-D813-4287-A9DD-CCAF2D535ED3";
shapes = (
{
closed = 1;
nodes = (
(258,0,l),
(260,15,l),
(136,29,l),
(141,21,l),
(191,334,l),
(183,327,l),
(259,327,ls),
(345,327,o),
(378,317,o),
(418,198,cs),
(484,0,l),
(563,0,l),
(565,15,l),
(493,29,l),
(500,22,l),
(437,202,ls),
(410,280,o),
(388,331,o),
(322,336,c),
(330,333,l),
(460,341,o),
(555,432,o),
(555,551,cs),
(555,646,o),
(495,692,o),
(372,692,cs),
(248,692,l),
(130,687,l),
(128,672,l),
(229,663,l),
(224,671,l),
(121,21,l),
(129,29,l),
(24,15,l),
(22,0,l)
);
},
{
closed = 1;
nodes = (
(245,680,l),
(237,673,l),
(368,673,ls),
(415,673,o),
(534,673,o),
(534,546,cs),
(534,431,o),
(435,346,o),
(282,346,cs),
(187,346,l),
(192,339,l)
);
}
);
width = 627;
},
{
anchors = (
{
name = bottom;
pos = (300,0);
},
{
name = top;
pos = (378,710);
}
);
background = {
anchors = (
{
name = bottom;
pos = (300,0);
},
{
name = top;
pos = (378,710);
}
);
shapes = (
{
closed = 1;
nodes = (
(300,0,l),
(316,100,l),
(247,132,l),
(257,105,l),
(289,295,l),
(254,266,l),
(294,267,ls),
(340,268,o),
(343,266,o),
(360,200,cs),
(410,0,l),
(600,0,l),
(616,100,l),
(534,139,l),
(581,104,l),
(535,242,ls),
(520,286,o),
(487,325,o),
(412,323,c),
(409,290,l),
(552,308,o),
(648,390,o),
(648,529,cs),
(648,651,o),
(573,710,o),
(429,710,cs),
(363,710,l),
(100,705,l),
(84,605,l),
(158,571,l),
(139,600,l),
(60,105,l),
(84,131,l),
(4,100,l),
(-12,0,l)
);
},
{
closed = 1;
nodes = (
(336,600,l),
(310,566,l),
(385,566,ls),
(405,566,o),
(443,566,o),
(443,513,cs),
(443,459,o),
(405,406,o),
(334,406,cs),
(278,406,l),
(300,362,l)
);
}
);
};
guides = (
{
angle = -99;
pos = (24,231);
},
{
angle = -99;
pos = (636,231);
}
);
layerId = "927AED37-E9E6-4F96-A08E-421C3785EFC6";
shapes = (
{
closed = 1;
nodes = (
(300,0,l),
(316,100,l),
(247,132,l),
(257,105,l),
(289,295,l),
(254,266,l),
(294,267,ls),
(340,268,o),
(343,266,o),
(360,200,cs),
(410,0,l),
(600,0,l),
(616,100,l),
(534,139,l),
(581,104,l),
(535,242,ls),
(520,286,o),
(487,325,o),
(412,323,c),
(409,290,l),
(552,308,o),
(648,390,o),
(648,529,cs),
(648,651,o),
(573,710,o),
(429,710,cs),
(363,710,l),
(100,705,l),
(84,605,l),
(158,571,l),
(139,600,l),
(60,105,l),
(84,131,l),
(4,100,l),
(-12,0,l)
);
},
{
closed = 1;
nodes = (
(336,600,l),
(310,566,l),
(385,566,ls),
(405,566,o),
(443,566,o),
(443,513,cs),
(443,459,o),
(405,406,o),
(334,406,cs),
(278,406,l),
(300,362,l)
);
}
);
width = 659;
}
);
metricLeft = H;
unicode = 82;
},
{
glyphname = S;
kernLeft = S;
kernRight = S;
layers = (
{
anchors = (
{
name = bottom;
pos = (262,0);
},
{
name = top;
pos = (370,692);
}
);
background = {
anchors = (
{
name = bottom;
pos = (262,0);
},
{
name = top;
pos = (370,692);
}
);
shapes = (
{
closed = 1;
nodes = (
(354,-6,o),
(475,65,o),
(475,197,cs),
(475,407,o),
(161,328,o),
(161,514,cs),
(161,620,o),
(264,679,o),
(374,679,cs),
(422,679,o),
(471,668,o),
(514,644,c),
(507,653,l),
(494,522,l),
(508,522,l),
(535,659,l),
(485,685,o),
(429,698,o),
(374,698,cs),
(251,698,o),
(140,633,o),
(140,512,cs),
(140,310,o),
(454,388,o),
(454,193,cs),
(454,79,o),
(346,15,o),
(227,15,cs),
(178,15,o),
(126,26,o),
(80,50,c),
(83,41,l),
(92,175,l),
(78,175,l),
(51,36,l),
(104,8,o),
(164,-6,o),
(222,-6,cs)
);
}
);
};
guides = (
{
angle = -99;
pos = (322,382);
}
);
layerId = "075BA79B-D813-4287-A9DD-CCAF2D535ED3";
shapes = (
{
closed = 1;
nodes = (
(354,-6,o),
(475,65,o),
(475,197,cs),
(475,407,o),
(161,328,o),
(161,514,cs),
(161,620,o),
(264,679,o),
(374,679,cs),
(422,679,o),
(471,668,o),
(514,644,c),
(507,653,l),
(494,522,l),
(508,522,l),
(535,659,l),
(485,685,o),
(429,698,o),
(374,698,cs),
(251,698,o),
(140,633,o),
(140,512,cs),
(140,310,o),
(454,388,o),
(454,193,cs),
(454,79,o),
(346,15,o),
(227,15,cs),
(178,15,o),
(126,26,o),
(80,50,c),
(83,41,l),
(92,175,l),
(78,175,l),
(51,36,l),
(104,8,o),
(164,-6,o),
(222,-6,cs)
);
}
);
width = 575;
},
{
anchors = (
{
name = bottom;
pos = (260,0);
},
{
name = top;
pos = (374,710);
}
);
background = {
anchors = (
{
name = bottom;
pos = (260,0);
},
{
name = top;
pos = (374,710);
}
);
shapes = (
{
closed = 1;
nodes = (
(413,-15,o),
(558,68,o),
(558,238,cs),
(558,478,o),
(270,429,o),
(270,526,cs),
(270,562,o),
(310,578,o),
(362,578,cs),
(391,578,o),
(424,573,o),
(455,565,c),
(434,582,l),
(446,486,l),
(560,486,l),
(599,677,l),
(522,708,o),
(442,724,o),
(369,724,cs),
(206,724,o),
(76,643,o),
(76,484,cs),
(76,249,o),
(362,301,o),
(362,195,cs),
(362,152,o),
(316,133,o),
(260,133,cs),
(224,133,o),
(184,141,o),
(149,156,c),
(167,126,l),
(158,241,l),
(42,241,l),
(8,28,l),
(84,0,o),
(164,-15,o),
(238,-15,cs)
);
}
);
};
guides = (
{
angle = -99;
pos = (42,241);
},
{
angle = -99;
pos = (548,231);
},
{
angle = -99;
pos = (321,382);
}
);
layerId = "927AED37-E9E6-4F96-A08E-421C3785EFC6";
shapes = (
{
closed = 1;
nodes = (
(413,-15,o),
(558,68,o),
(558,238,cs),
(558,478,o),
(270,429,o),
(270,526,cs),
(270,562,o),
(310,578,o),
(362,578,cs),
(391,578,o),
(424,573,o),
(455,565,c),
(434,582,l),
(446,486,l),
(560,486,l),
(599,677,l),
(522,708,o),
(442,724,o),
(369,724,cs),
(206,724,o),
(76,643,o),
(76,484,cs),
(76,249,o),
(362,301,o),
(362,195,cs),
(362,152,o),
(316,133,o),
(260,133,cs),
(224,133,o),
(184,141,o),
(149,156,c),
(167,126,l),
(158,241,l),
(42,241,l),
(8,28,l),
(84,0,o),
(164,-15,o),
(238,-15,cs)
);
}
);
width = 593;
}
);
unicode = 83;
},
{
glyphname = Germandbls;
kernLeft = H;
kernRight = S;
layers = (
{
background = {
shapes = (
{
closed = 1;
nodes = (
(548,-6,o),
(648,85,o),
(648,221,cs),
(648,344,o),
(566,385,o),
(403,396,c),
(404,387,l),
(645,671,l),
(648,692,l),
(248,692,l),
(130,687,l),
(128,672,l),
(230,662,l),
(224,670,l),
(121,21,l),
(129,29,l),
(24,15,l),
(22,0,l),
(138,0,l),
(245,680,l),
(237,672,l),
(632,673,l),
(633,685,l),
(388,397,l),
(385,378,l),
(545,369,o),
(626,334,o),
(626,218,cs),
(626,99,o),
(541,14,o),
(399,14,cs),
(361,14,o),
(318,20,o),
(274,32,c),
(277,24,l),
(283,137,l),
(268,137,l),
(244,19,l),
(295,3,o),
(348,-6,o),
(396,-6,cs)
);
}
);
};
layerId = "075BA79B-D813-4287-A9DD-CCAF2D535ED3";
shapes = (
{
closed = 1;
nodes = (
(548,-6,o),
(648,85,o),
(648,221,cs),
(648,344,o),
(566,385,o),
(403,396,c),
(404,387,l),
(645,671,l),
(648,692,l),
(248,692,l),
(130,687,l),
(128,672,l),
(230,662,l),
(224,670,l),
(121,21,l),
(129,29,l),
(24,15,l),
(22,0,l),
(138,0,l),
(245,680,l),
(237,672,l),
(632,673,l),
(633,685,l),
(388,397,l),
(385,378,l),
(545,369,o),
(626,334,o),
(626,218,cs),
(626,99,o),
(541,14,o),
(399,14,cs),
(361,14,o),
(318,20,o),
(274,32,c),
(277,24,l),
(283,137,l),
(268,137,l),
(244,19,l),
(295,3,o),
(348,-6,o),
(396,-6,cs)
);
}
);
width = 715;
},
{
background = {
shapes = (
{
closed = 1;
nodes = (
(584,-12,o),
(694,88,o),
(694,232,cs),
(694,358,o),
(609,386,o),
(516,415,c),
(535,390,l),
(688,573,l),
(704,710,l),
(345,710,l),
(100,705,l),
(84,605,l),
(157,572,l),
(140,610,l),
(60,100,l),
(91,134,l),
(4,100,l),
(-12,0,l),
(240,0,l),
(335,595,l),
(299,565,l),
(542,565,l),
(554,619,l),
(394,433,l),
(376,315,l),
(460,302,o),
(497,285,o),
(497,231,cs),
(497,193,o),
(477,133,o),
(443,133,cs),
(431,133,o),
(416,133,o),
(403,142,c),
(430,113,l),
(418,194,l),
(315,194,l),
(279,8,l),
(332,-8,o),
(387,-12,o),
(420,-12,cs)
);
}
);
};
layerId = "927AED37-E9E6-4F96-A08E-421C3785EFC6";
shapes = (
{
closed = 1;
nodes = (
(584,-12,o),
(694,88,o),
(694,232,cs),
(694,358,o),
(609,386,o),
(516,415,c),
(535,390,l),
(688,573,l),
(704,710,l),
(345,710,l),
(100,705,l),
(84,605,l),
(157,572,l),
(140,610,l),
(60,100,l),
(91,134,l),
(4,100,l),
(-12,0,l),
(240,0,l),
(335,595,l),
(299,565,l),
(542,565,l),
(554,619,l),
(394,433,l),
(376,315,l),
(460,302,o),
(497,285,o),
(497,231,cs),
(497,193,o),
(477,133,o),
(443,133,cs),
(431,133,o),
(416,133,o),
(403,142,c),
(430,113,l),
(418,194,l),
(315,194,l),
(279,8,l),
(332,-8,o),
(387,-12,o),
(420,-12,cs)
);
}
);
width = 719;
}
);
unicode = 7838;
},
{
glyphname = T;
kernLeft = T;
kernRight = T;
layers = (
{
anchors = (
{
name = bottom;
pos = (228,0);
},
{
name = center;
pos = (284,355);
},
{
name = top;
pos = (338,692);
}
);
background = {
anchors = (
{
name = bottom;
pos = (228,0);
},
{
name = center;
pos = (284,355);
},
{
name = top;
pos = (338,692);
}
);
shapes = (
{
closed = 1;
nodes = (
(348,0,l),
(350,15,l),
(236,29,l),
(241,21,l),
(345,680,l),
(337,673,l),
(548,673,l),
(541,680,l),
(536,552,l),
(550,552,l),
(572,692,l),
(102,692,l),
(80,552,l),
(95,552,l),
(129,680,l),
(120,673,l),
(332,673,l),
(325,680,l),
(221,21,l),
(230,29,l),
(109,15,l),
(107,0,l)
);
}
);
};
layerId = "075BA79B-D813-4287-A9DD-CCAF2D535ED3";
shapes = (
{
closed = 1;
nodes = (
(348,0,l),
(350,15,l),
(236,29,l),
(241,21,l),
(345,680,l),
(337,673,l),
(548,673,l),
(541,680,l),
(536,552,l),
(550,552,l),
(572,692,l),
(102,692,l),
(80,552,l),
(95,552,l),
(129,680,l),
(120,673,l),
(332,673,l),
(325,680,l),
(221,21,l),
(230,29,l),
(109,15,l),
(107,0,l)
);
}
);
width = 538;
},
{
anchors = (
{
name = bottom;
pos = (272,0);
},
{
name = center;
pos = (326,337);
},
{
name = top;
pos = (383,710);
}
);
background = {
anchors = (
{
name = bottom;
pos = (272,0);
},
{
name = center;
pos = (326,337);
},
{
name = top;
pos = (383,710);
}
);
shapes = (
{
closed = 1;
nodes = (
(440,0,l),
(456,100,l),
(377,132,l),
(387,105,l),
(465,595,l),
(419,565,l),
(552,565,l),
(516,595,l),
(527,477,l),
(642,477,l),
(680,710,l),
(89,710,l),
(52,477,l),
(167,477,l),
(216,603,l),
(169,565,l),
(299,565,l),
(268,595,l),
(190,105,l),
(214,131,l),
(124,100,l),
(108,0,l)
);
}
);
};
guides = (
{
angle = -99;
pos = (310,243);
},
{
angle = -99;
pos = (13,231);
},
{
angle = -99;
pos = (600,231);
}
);
layerId = "927AED37-E9E6-4F96-A08E-421C3785EFC6";
shapes = (
{
closed = 1;
nodes = (
(440,0,l),
(456,100,l),
(377,132,l),
(387,105,l),
(465,595,l),
(419,565,l),
(552,565,l),
(516,595,l),
(527,477,l),
(642,477,l),
(680,710,l),
(89,710,l),
(52,477,l),
(167,477,l),
(216,603,l),
(169,565,l),
(299,565,l),
(268,595,l),
(190,105,l),
(214,131,l),
(124,100,l),
(108,0,l)
);
}
);
width = 628;
}
);
unicode = 84;
},
{
glyphname = U;
kernLeft = U;
kernRight = U;
layers = (
{
anchors = (
{
name = bottom;
pos = (327,0);
},
{
name = ogonek;
pos = (396,0);
},
{
name = top;
pos = (433,692);
},
{
name = topright;
pos = (747,690);
}
);
background = {
anchors = (
{
name = bottom;
pos = (327,0);
},
{
name = ogonek;
pos = (396,0);
},
{
name = top;
pos = (433,692);
},
{
name = topright;
pos = (747,690);
}
);
shapes = (
{
closed = 1;
nodes = (
(548,672,l),
(649,664,l),
(643,671,l),
(577,255,ls),
(553,102,o),
(494,13,o),
(324,13,cs),
(197,13,o),
(148,63,o),
(148,168,cs),
(148,191,o),
(151,216,o),
(155,244,cs),
(223,671,l),
(215,663,l),
(320,677,l),
(322,692,l),
(109,687,l),
(107,672,l),
(209,663,l),
(203,671,l),
(135,246,ls),
(130,218,o),
(128,192,o),
(128,168,cs),
(128,53,o),
(185,-6,o),
(324,-6,cs),
(503,-6,o),
(571,89,o),
(597,253,cs),
(663,671,l),
(654,663,l),
(761,677,l),
(763,692,l),
(550,687,l)
);
}
);
};
guides = (
{
angle = 81.023;
pos = (377,336);
}
);
layerId = "075BA79B-D813-4287-A9DD-CCAF2D535ED3";
shapes = (
{
closed = 1;
nodes = (
(548,672,l),
(649,664,l),
(643,671,l),
(577,255,ls),
(553,102,o),
(494,13,o),
(324,13,cs),
(197,13,o),
(148,63,o),
(148,168,cs),
(148,191,o),
(151,216,o),
(155,244,cs),
(223,671,l),
(215,663,l),
(320,677,l),
(322,692,l),
(109,687,l),
(107,672,l),
(209,663,l),
(203,671,l),
(135,246,ls),
(130,218,o),
(128,192,o),
(128,168,cs),
(128,53,o),
(185,-6,o),
(324,-6,cs),
(503,-6,o),
(571,89,o),
(597,253,cs),
(663,671,l),
(654,663,l),
(761,677,l),
(763,692,l),
(550,687,l)
);
}
);
width = 736;
},
{
anchors = (
{
name = bottom;
pos = (314,0);
},
{
name = ogonek;
pos = (435,0);
},
{
name = top;
pos = (427,710);
},
{
name = topright;
pos = (723,709);
}
);
background = {
anchors = (
{
name = bottom;
pos = (314,0);
},
{
name = ogonek;
pos = (435,0);
},
{
name = top;
pos = (427,710);
},
{
name = topright;
pos = (723,709);
}
);
shapes = (
{
closed = 1;
nodes = (
(443,605,l),
(517,571,l),
(498,600,l),
(449,291,ls),
(433,189,o),
(404,140,o),
(327,140,cs),
(279,140,o),
(261,159,o),
(261,205,cs),
(261,221,o),
(263,241,o),
(267,264,cs),
(320,600,l),
(298,572,l),
(375,610,l),
(391,710,l),
(84,705,l),
(68,605,l),
(139,573,l),
(123,600,l),
(71,276,ls),
(67,248,o),
(64,223,o),
(64,200,cs),
(64,53,o),
(150,-15,o),
(315,-15,cs),
(499,-15,o),
(612,67,o),
(645,279,cs),
(695,600,l),
(673,572,l),
(756,610,l),
(772,710,l),
(459,705,l)
);
}
);
};
guides = (
{
angle = -99;
pos = (699,231);
},
{
angle = 81.023;
pos = (366,336);
}
);
layerId = "927AED37-E9E6-4F96-A08E-421C3785EFC6";
shapes = (
{
closed = 1;
nodes = (
(443,605,l),
(517,571,l),
(498,600,l),
(449,291,ls),
(433,189,o),
(404,140,o),
(327,140,cs),
(279,140,o),
(261,159,o),
(261,205,cs),
(261,221,o),
(263,241,o),
(267,264,cs),
(320,600,l),
(298,572,l),
(375,610,l),
(391,710,l),
(84,705,l),
(68,605,l),
(139,573,l),
(123,600,l),
(71,276,ls),
(67,248,o),
(64,223,o),
(64,200,cs),
(64,53,o),
(150,-15,o),
(315,-15,cs),
(499,-15,o),
(612,67,o),
(645,279,cs),
(695,600,l),
(673,572,l),
(756,610,l),
(772,710,l),
(459,705,l)
);
}
);
width = 715;
}
);
unicode = 85;
},
{
glyphname = Uhorn;
kernLeft = U;
kernRight = Uhorn;
layers = (
{
anchors = (
{
name = bottom;
pos = (331,0);
},
{
name = top;
pos = (440,692);
}
);
background = {
anchors = (
{
name = bottom;
pos = (331,0);
},
{
name = top;
pos = (440,692);
}
);
shapes = (
{
closed = 1;
nodes = (
(503,-6,o),
(571,89,o),
(597,253,cs),
(664,678,l),
(656,672,l),
(732,666,o),
(771,709,o),
(771,775,cs),
(771,789,o),
(769,805,o),
(765,821,c),
(745,816,l),
(748,801,o),
(749,786,o),
(749,775,cs),
(749,721,o),
(725,692,o),
(664,690,cs),
(550,687,l),
(548,672,l),
(649,664,l),
(643,671,l),
(577,255,ls),
(553,102,o),
(494,13,o),
(325,13,cs),
(198,13,o),
(148,63,o),
(148,167,cs),
(148,193,o),
(151,216,o),
(155,244,cs),
(223,671,l),
(215,663,l),
(320,677,l),
(322,692,l),
(109,687,l),
(107,672,l),
(209,663,l),
(203,671,l),
(135,246,ls),
(130,218,o),
(128,191,o),
(128,169,cs),
(128,53,o),
(183,-6,o),
(324,-6,cs)
);
}
);
};
layerId = "075BA79B-D813-4287-A9DD-CCAF2D535ED3";
shapes = (
{
closed = 1;
nodes = (
(503,-6,o),
(571,89,o),
(597,253,cs),
(664,678,l),
(656,672,l),
(732,666,o),
(771,709,o),
(771,775,cs),
(771,789,o),
(769,805,o),
(765,821,c),
(745,816,l),
(748,801,o),
(749,786,o),
(749,775,cs),
(749,721,o),
(725,692,o),
(664,690,cs),
(550,687,l),
(548,672,l),
(649,664,l),
(643,671,l),
(577,255,ls),
(553,102,o),
(494,13,o),
(325,13,cs),
(198,13,o),
(148,63,o),
(148,167,cs),
(148,193,o),
(151,216,o),
(155,244,cs),
(223,671,l),
(215,663,l),
(320,677,l),
(322,692,l),
(109,687,l),
(107,672,l),
(209,663,l),
(203,671,l),
(135,246,ls),
(130,218,o),
(128,191,o),
(128,169,cs),
(128,53,o),
(183,-6,o),
(324,-6,cs)
);
}
);
width = 730;
},
{
anchors = (
{
name = bottom;
pos = (317,0);
},
{
name = top;
pos = (430,710);
}
);
background = {
anchors = (
{
name = bottom;
pos = (317,0);
},
{
name = top;
pos = (430,710);
}
);
shapes = (
{
closed = 1;
nodes = (
(597,-15,o),
(632,195,o),
(645,279,cs),
(699,625,l),
(622,607,l),
(753,615,o),
(828,669,o),
(828,773,cs),
(828,801,o),
(822,832,o),
(811,867,c),
(670,837,l),
(675,817,o),
(678,798,o),
(678,781,cs),
(678,711,o),
(625,708,o),
(604,708,cs),
(459,705,l),
(443,605,l),
(517,571,l),
(498,600,l),
(449,291,ls),
(439,228,o),
(424,140,o),
(325,140,cs),
(278,140,o),
(261,160,o),
(261,204,cs),
(261,225,o),
(265,251,o),
(267,264,cs),
(320,600,l),
(298,572,l),
(375,610,l),
(391,710,l),
(84,705,l),
(68,605,l),
(139,573,l),
(123,600,l),
(71,276,ls),
(69,263,o),
(64,235,o),
(64,200,cs),
(64,53,o),
(153,-15,o),
(314,-15,cs)
);
}
);
};
layerId = "927AED37-E9E6-4F96-A08E-421C3785EFC6";
shapes = (
{
closed = 1;
nodes = (
(597,-15,o),
(632,195,o),
(645,279,cs),
(699,625,l),
(622,607,l),
(753,615,o),
(828,669,o),
(828,773,cs),
(828,801,o),
(822,832,o),
(811,867,c),
(670,837,l),
(675,817,o),
(678,798,o),
(678,781,cs),
(678,711,o),
(625,708,o),
(604,708,cs),
(459,705,l),
(443,605,l),
(517,571,l),
(498,600,l),
(449,291,ls),
(439,228,o),
(424,140,o),
(325,140,cs),
(278,140,o),
(261,160,o),
(261,204,cs),
(261,225,o),
(265,251,o),
(267,264,cs),
(320,600,l),
(298,572,l),
(375,610,l),
(391,710,l),
(84,705,l),
(68,605,l),
(139,573,l),
(123,600,l),
(71,276,ls),
(69,263,o),
(64,235,o),
(64,200,cs),
(64,53,o),
(153,-15,o),
(314,-15,cs)
);
}
);
width = 741;
}
);
metricLeft = U;
unicode = 431;
},
{
glyphname = V;
kernLeft = V;
kernRight = V;
layers = (
{
anchors = (
{
name = bottom;
pos = (277,0);
},
{
name = top;
pos = (399,692);
}
);
background = {
anchors = (
{
name = bottom;
pos = (277,0);
},
{
name = top;
pos = (399,692);
}
);
shapes = (
{
closed = 1;
nodes = (
(286,-2,l),
(628,670,l),
(618,663,l),
(719,677,l),
(721,692,l),
(495,687,l),
(493,672,l),
(610,664,l),
(608,670,l),
(278,19,l),
(282,19,l),
(183,670,l),
(179,663,l),
(300,677,l),
(302,692,l),
(75,687,l),
(72,672,l),
(170,663,l),
(163,670,l),
(267,-2,l)
);
}
);
};
layerId = "075BA79B-D813-4287-A9DD-CCAF2D535ED3";
shapes = (
{
closed = 1;
nodes = (
(286,-2,l),
(628,670,l),
(618,663,l),
(719,677,l),
(721,692,l),
(495,687,l),
(493,672,l),
(610,664,l),
(608,670,l),
(278,19,l),
(282,19,l),
(183,670,l),
(179,663,l),
(300,677,l),
(302,692,l),
(75,687,l),
(72,672,l),
(170,663,l),
(163,670,l),
(267,-2,l)
);
}
);
width = 659;
},
{
anchors = (
{
name = bottom;
pos = (316,0);
},
{
name = top;
pos = (451,710);
}
);
background = {
anchors = (
{
name = bottom;
pos = (316,0);
},
{
name = top;
pos = (451,710);
}
);
shapes = (
{
closed = 1;
nodes = (
(422,0,l),
(726,610,l),
(677,576,l),
(765,610,l),
(780,710,l),
(503,705,l),
(488,605,l),
(556,572,l),
(547,611,l),
(347,177,l),
(374,177,l),
(326,624,l),
(295,575,l),
(379,610,l),
(392,710,l),
(75,705,l),
(59,605,l),
(143,571,l),
(103,605,l),
(210,0,l)
);
}
);
};
layerId = "927AED37-E9E6-4F96-A08E-421C3785EFC6";
shapes = (
{
closed = 1;
nodes = (
(422,0,l),
(726,610,l),
(677,576,l),
(765,610,l),
(780,710,l),
(503,705,l),
(488,605,l),
(556,572,l),
(547,611,l),
(347,177,l),
(374,177,l),
(326,624,l),
(295,575,l),
(379,610,l),
(392,710,l),
(75,705,l),
(59,605,l),
(143,571,l),
(103,605,l),
(210,0,l)
);
}
);
width = 717;
}
);
unicode = 86;
},
{
glyphname = W;
kernLeft = V;
kernRight = V;
layers = (
{
anchors = (
{
name = bottom;
pos = (453,0);
},
{
name = top;
pos = (565,691);
}
);
background = {
anchors = (
{
name = bottom;
pos = (453,0);
},
{
name = top;
pos = (565,691);
}
);
shapes = (
{
closed = 1;
nodes = (
(826,672,l),
(943,664,l),
(938,670,l),
(661,24,l),
(665,24,l),
(573,692,l),
(555,689,l),
(245,22,l),
(248,21,l),
(185,671,l),
(179,663,l),
(301,677,l),
(303,692,l),
(76,687,l),
(73,672,l),
(172,663,l),
(165,671,l),
(231,-2,l),
(253,-2,l),
(562,662,l),
(558,662,l),
(648,-2,l),
(669,-2,l),
(958,670,l),
(949,663,l),
(1048,677,l),
(1051,692,l),
(828,687,l)
);
}
);
};
layerId = "075BA79B-D813-4287-A9DD-CCAF2D535ED3";
shapes = (
{
closed = 1;
nodes = (
(826,672,l),
(943,664,l),
(938,670,l),
(661,24,l),
(665,24,l),
(573,692,l),
(555,689,l),
(245,22,l),
(248,21,l),
(185,671,l),
(179,663,l),
(301,677,l),
(303,692,l),
(76,687,l),
(73,672,l),
(172,663,l),
(165,671,l),
(231,-2,l),
(253,-2,l),
(562,662,l),
(558,662,l),
(648,-2,l),
(669,-2,l),
(958,670,l),
(949,663,l),
(1048,677,l),
(1051,692,l),
(828,687,l)
);
}
);
width = 991;
},
{
anchors = (
{
name = bottom;
pos = (445,0);
},
{
name = top;
pos = (575,710);
}
);
background = {
anchors = (
{
name = bottom;
pos = (445,0);
},
{
name = top;
pos = (575,710);
}
);
shapes = (
{
closed = 1;
nodes = (
(766,605,l),
(834,575,l),
(820,611,l),
(663,183,l),
(704,184,l),
(662,710,l),
(481,705,l),
(277,182,l),
(317,182,l),
(303,611,l),
(274,575,l),
(346,610,l),
(361,710,l),
(75,705,l),
(60,605,l),
(112,580,l),
(102,611,l),
(162,0,l),
(344,0,l),
(538,465,l),
(498,466,l),
(550,0,l),
(735,0,l),
(1000,629,l),
(948,577,l),
(1036,610,l),
(1051,710,l),
(782,705,l)
);
}
);
};
layerId = "927AED37-E9E6-4F96-A08E-421C3785EFC6";
shapes = (
{
closed = 1;
nodes = (
(766,605,l),
(834,575,l),
(820,611,l),
(663,183,l),
(704,184,l),
(662,710,l),
(481,705,l),
(277,182,l),
(317,182,l),
(303,611,l),
(274,575,l),
(346,610,l),
(361,710,l),
(75,705,l),
(60,605,l),
(112,580,l),
(102,611,l),
(162,0,l),
(344,0,l),
(538,465,l),
(498,466,l),
(550,0,l),
(735,0,l),
(1000,629,l),
(948,577,l),
(1036,610,l),
(1051,710,l),
(782,705,l)
);
}
);
width = 988;
}
);
unicode = 87;
},
{
glyphname = X;
kernLeft = X;
kernRight = X;
layers = (
{
background = {
shapes = (
{
closed = 1;
nodes = (
(352,367,l),
(351,355,l),
(597,670,l),
(585,663,l),
(683,677,l),
(685,692,l),
(475,687,l),
(473,672,l),
(580,663,l),
(577,670,l),
(342,370,l),
(351,370,l),
(213,670,l),
(209,663,l),
(319,677,l),
(321,692,l),
(108,687,l),
(106,672,l),
(201,663,l),
(192,670,l),
(339,353,l),
(339,365,l),
(74,21,l),
(87,28,l),
(-12,15,l),
(-15,0,l),
(202,0,l),
(205,15,l),
(93,28,l),
(95,21,l),
(348,349,l),
(340,349,l),
(490,21,l),
(494,28,l),
(378,15,l),
(376,0,l),
(593,0,l),
(595,15,l),
(501,28,l),
(511,21,l)
);
}
);
};
layerId = "075BA79B-D813-4287-A9DD-CCAF2D535ED3";
shapes = (
{
closed = 1;
nodes = (
(352,367,l),
(351,355,l),
(597,670,l),
(585,663,l),
(683,677,l),
(685,692,l),
(475,687,l),
(473,672,l),
(580,663,l),
(577,670,l),
(342,370,l),
(351,370,l),
(213,670,l),
(209,663,l),
(319,677,l),
(321,692,l),
(108,687,l),
(106,672,l),
(201,663,l),
(192,670,l),
(339,353,l),
(339,365,l),
(74,21,l),
(87,28,l),
(-12,15,l),
(-15,0,l),
(202,0,l),
(205,15,l),
(93,28,l),
(95,21,l),
(348,349,l),
(340,349,l),
(490,21,l),
(494,28,l),
(378,15,l),
(376,0,l),
(593,0,l),
(595,15,l),
(501,28,l),
(511,21,l)
);
}
);
width = 659;
},
{
background = {
shapes = (
{
closed = 1;
nodes = (
(467,387,l),
(462,340,l),
(716,610,l),
(659,572,l),
(735,610,l),
(750,710,l),
(489,705,l),
(474,605,l),
(535,573,l),
(530,604,l),
(394,455,l),
(429,448,l),
(333,604,l),
(323,577,l),
(387,610,l),
(402,710,l),
(96,705,l),
(80,605,l),
(139,581,l),
(105,610,l),
(273,341,l),
(277,373,l),
(7,89,l),
(68,134,l),
(-8,100,l),
(-23,0,l),
(236,0,l),
(251,100,l),
(189,135,l),
(191,92,l),
(362,275,l),
(314,275,l),
(421,100,l),
(422,133,l),
(358,100,l),
(343,0,l),
(651,0,l),
(666,100,l),
(600,133,l),
(651,91,l)
);
}
);
};
layerId = "927AED37-E9E6-4F96-A08E-421C3785EFC6";
shapes = (
{
closed = 1;
nodes = (
(467,387,l),
(462,340,l),
(716,610,l),
(659,572,l),
(735,610,l),
(750,710,l),
(489,705,l),
(474,605,l),
(535,573,l),
(530,604,l),
(394,455,l),
(429,448,l),
(333,604,l),
(323,577,l),
(387,610,l),
(402,710,l),
(96,705,l),
(80,605,l),
(139,581,l),
(105,610,l),
(273,341,l),
(277,373,l),
(7,89,l),
(68,134,l),
(-8,100,l),
(-23,0,l),
(236,0,l),
(251,100,l),
(189,135,l),
(191,92,l),
(362,275,l),
(314,275,l),
(421,100,l),
(422,133,l),
(358,100,l),
(343,0,l),
(651,0,l),
(666,100,l),
(600,133,l),
(651,91,l)
);
}
);
width = 711;
}
);
unicode = 88;
},
{
glyphname = Y;
kernLeft = Y;
kernRight = Y;
layers = (
{
anchors = (
{
name = bottom;
pos = (263,0);
},
{
name = top;
pos = (373,692);
}
);
background = {
anchors = (
{
name = bottom;
pos = (263,0);
},
{
name = top;
pos = (373,692);
}
);
shapes = (
{
closed = 1;
nodes = (
(369,0,l),
(371,15,l),
(271,29,l),
(276,21,l),
(314,268,l),
(309,251,l),
(582,670,l),
(571,663,l),
(671,677,l),
(673,692,l),
(450,687,l),
(448,672,l),
(565,664,l),
(562,670,l),
(304,275,l),
(310,275,l),
(179,670,l),
(174,663,l),
(297,677,l),
(299,692,l),
(73,687,l),
(70,672,l),
(168,663,l),
(159,670,l),
(298,251,l),
(296,268,l),
(257,21,l),
(265,29,l),
(160,15,l),
(158,0,l)
);
}
);
};
layerId = "075BA79B-D813-4287-A9DD-CCAF2D535ED3";
shapes = (
{
closed = 1;
nodes = (
(369,0,l),
(371,15,l),
(271,29,l),
(276,21,l),
(314,268,l),
(309,251,l),
(582,670,l),
(571,663,l),
(671,677,l),
(673,692,l),
(450,687,l),
(448,672,l),
(565,664,l),
(562,670,l),
(304,275,l),
(310,275,l),
(179,670,l),
(174,663,l),
(297,677,l),
(299,692,l),
(73,687,l),
(70,672,l),
(168,663,l),
(159,670,l),
(298,251,l),
(296,268,l),
(257,21,l),
(265,29,l),
(160,15,l),
(158,0,l)
);
}
);
width = 610;
},
{
anchors = (
{
name = bottom;
pos = (286,0);
},
{
name = top;
pos = (411,710);
}
);
background = {
anchors = (
{
name = bottom;
pos = (286,0);
},
{
name = top;
pos = (411,710);
}
);
shapes = (
{
closed = 1;
nodes = (
(447,0,l),
(463,100,l),
(389,132,l),
(399,105,l),
(427,281,l),
(403,216,l),
(671,609,l),
(634,584,l),
(697,610,l),
(712,710,l),
(458,705,l),
(443,605,l),
(508,571,l),
(497,605,l),
(334,348,l),
(373,348,l),
(289,614,l),
(275,580,l),
(348,610,l),
(364,710,l),
(74,705,l),
(60,605,l),
(118,577,l),
(93,603,l),
(241,216,l),
(230,281,l),
(202,105,l),
(226,131,l),
(141,100,l),
(126,0,l)
);
}
);
};
layerId = "927AED37-E9E6-4F96-A08E-421C3785EFC6";
shapes = (
{
closed = 1;
nodes = (
(447,0,l),
(463,100,l),
(389,132,l),
(399,105,l),
(427,281,l),
(403,216,l),
(671,609,l),
(634,584,l),
(697,610,l),
(712,710,l),
(458,705,l),
(443,605,l),
(508,571,l),
(497,605,l),
(334,348,l),
(373,348,l),
(289,614,l),
(275,580,l),
(348,610,l),
(364,710,l),
(74,705,l),
(60,605,l),
(118,577,l),
(93,603,l),
(241,216,l),
(230,281,l),
(202,105,l),
(226,131,l),
(141,100,l),
(126,0,l)
);
}
);
width = 649;
}
);
unicode = 89;
},
{
glyphname = Z;
kernLeft = Z;
kernRight = Z;
layers = (
{
anchors = (
{
name = bottom;
pos = (243,0);
},
{
name = top;
pos = (358,692);
}
);
background = {
anchors = (
{
name = bottom;
pos = (243,0);
},
{
name = top;
pos = (358,692);
}
);
shapes = (
{
closed = 1;
nodes = (
(469,0,l),
(495,137,l),
(480,137,l),
(441,13,l),
(455,20,l),
(38,20,l),
(41,14,l),
(572,676,l),
(572,692,l),
(144,692,l),
(122,556,l),
(136,556,l),
(170,679,l),
(160,672,l),
(552,672,l),
(550,678,l),
(16,16,l),
(16,0,l)
);
}
);
};
layerId = "075BA79B-D813-4287-A9DD-CCAF2D535ED3";
shapes = (
{
closed = 1;
nodes = (
(469,0,l),
(495,137,l),
(480,137,l),
(441,13,l),
(455,20,l),
(38,20,l),
(41,14,l),
(572,676,l),
(572,692,l),
(144,692,l),
(122,556,l),
(136,556,l),
(170,679,l),
(160,672,l),
(552,672,l),
(550,678,l),
(16,16,l),
(16,0,l)
);
}
);
width = 576;
},
{
anchors = (
{
name = bottom;
pos = (269,0);
},
{
name = top;
pos = (371,710);
}
);
background = {
anchors = (
{
name = bottom;
pos = (269,0);
},
{
name = top;
pos = (371,710);
}
);
shapes = (
{
closed = 1;
nodes = (
(541,0,l),
(576,221,l),
(458,221,l),
(423,120,l),
(466,147,l),
(216,147,l),
(219,117,l),
(624,569,l),
(641,710,l),
(111,710,l),
(76,489,l),
(193,489,l),
(234,583,l),
(186,563,l),
(426,563,l),
(408,578,l),
(4,135,l),
(-13,0,l)
);
}
);
};
layerId = "927AED37-E9E6-4F96-A08E-421C3785EFC6";
shapes = (
{
closed = 1;
nodes = (
(541,0,l),
(576,221,l),
(458,221,l),
(423,120,l),
(466,147,l),
(216,147,l),
(219,117,l),
(624,569,l),
(641,710,l),
(111,710,l),
(76,489,l),
(193,489,l),
(234,583,l),
(186,563,l),
(426,563,l),
(408,578,l),
(4,135,l),
(-13,0,l)
);
}
);
width = 619;
}
);
unicode = 90;
},
{
glyphname = Q.alt;
kernLeft = O;
kernRight = O;
layers = (
{
anchors = (
{
name = bottom;
pos = (328,0);
},
{
name = top;
pos = (437,692);
}
);
background = {
anchors = (
{
name = bottom;
pos = (328,0);
},
{
name = top;
pos = (437,692);
}
);
shapes = (
{
closed = 1;
nodes = (
(614,-155,o),
(642,-147,o),
(678,-128,c),
(668,-139,l),
(654,-109,l),
(672,-108,l),
(638,-126,o),
(612,-134,o),
(587,-134,cs),
(525,-134,o),
(474,-84,o),
(347,-2,c),
(343,-5,l),
(546,8,o),
(678,224,o),
(678,430,cs),
(678,616,o),
(571,698,o),
(441,698,cs),
(230,698,o),
(86,483,o),
(86,263,cs),
(86,73,o),
(194,-6,o),
(321,-6,c),
(311,-2,l),
(458,-98,o),
(518,-155,o),
(587,-155,cs)
);
},
{
closed = 1;
nodes = (
(203,14,o),
(107,93,o),
(107,266,cs),
(107,470,o),
(241,678,o),
(438,678,cs),
(559,678,o),
(657,599,o),
(657,426,cs),
(657,222,o),
(521,14,o),
(324,14,cs)
);
}
);
};
layerId = "075BA79B-D813-4287-A9DD-CCAF2D535ED3";
shapes = (
{
closed = 1;
nodes = (
(614,-155,o),
(642,-147,o),
(678,-128,c),
(668,-139,l),
(654,-109,l),
(672,-108,l),
(638,-126,o),
(612,-134,o),
(587,-134,cs),
(525,-134,o),
(474,-84,o),
(347,-2,c),
(343,-5,l),
(546,8,o),
(678,224,o),
(678,430,cs),
(678,616,o),
(571,698,o),
(441,698,cs),
(230,698,o),
(86,483,o),
(86,263,cs),
(86,73,o),
(194,-6,o),
(321,-6,c),
(311,-2,l),
(458,-98,o),
(518,-155,o),
(587,-155,cs)
);
},
{
closed = 1;
nodes = (
(203,14,o),
(107,93,o),
(107,266,cs),
(107,470,o),
(241,678,o),
(438,678,cs),
(559,678,o),
(657,599,o),
(657,426,cs),
(657,222,o),
(521,14,o),
(324,14,cs)
);
}
);
width = 738;
},
{
anchors = (
{
name = bottom;
pos = (306,0);
},
{
name = top;
pos = (419,710);
}
);
background = {
anchors = (
{
name = bottom;
pos = (306,0);
},
{
name = top;
pos = (419,710);
}
);
shapes = (
{
closed = 1;
nodes = (
(603,-213,o),
(636,-203,o),
(671,-180,c),
(656,-228,l),
(613,-27,l),
(683,-17,l),
(640,-41,o),
(609,-53,o),
(579,-53,cs),
(534,-53,o),
(492,-26,o),
(414,28,c),
(421,-2,l),
(627,53,o),
(700,267,o),
(700,433,cs),
(700,616,o),
(612,725,o),
(423,725,cs),
(134,725,o),
(36,472,o),
(36,278,cs),
(36,106,o),
(113,-3,o),
(286,-14,c),
(251,5,l),
(382,-115,o),
(475,-213,o),
(572,-213,cs)
);
},
{
closed = 1;
nodes = (
(272,138,o),
(241,174,o),
(241,271,cs),
(241,361,o),
(268,570,o),
(407,570,cs),
(464,570,o),
(495,535,o),
(495,440,cs),
(495,349,o),
(467,138,o),
(329,138,cs)
);
}
);
};
layerId = "927AED37-E9E6-4F96-A08E-421C3785EFC6";
shapes = (
{
closed = 1;
nodes = (
(603,-213,o),
(636,-203,o),
(671,-180,c),
(656,-228,l),
(613,-27,l),
(683,-17,l),
(640,-41,o),
(609,-53,o),
(579,-53,cs),
(534,-53,o),
(492,-26,o),
(414,28,c),
(421,-2,l),
(627,53,o),
(700,267,o),
(700,433,cs),
(700,616,o),
(612,725,o),
(423,725,cs),
(134,725,o),
(36,472,o),
(36,278,cs),
(36,106,o),
(113,-3,o),
(286,-14,c),
(251,5,l),
(382,-115,o),
(475,-213,o),
(572,-213,cs)
);
},
{
closed = 1;
nodes = (
(272,138,o),
(241,174,o),
(241,271,cs),
(241,361,o),
(268,570,o),
(407,570,cs),
(464,570,o),
(495,535,o),
(495,440,cs),
(495,349,o),
(467,138,o),
(329,138,cs)
);
}
);
width = 710;
}
);
metricLeft = O;
},
{
export = 0;
glyphname = A.ogonekAccent;
kernLeft = A;
kernRight = A;
layers = (
{
anchors = (
{
name = bottom;
pos = (288,0);
},
{
name = ogonek;
pos = (532,0);
},
{
name = top;
pos = (406,692);
}
);
background = {
anchors = (
{
name = bottom;
pos = (288,0);
},
{
name = ogonek;
pos = (532,0);
},
{
name = top;
pos = (406,692);
}
);
shapes = (
{
closed = 1;
nodes = (
(415,693,l),
(395,691,l),
(52,22,l),
(61,29,l),
(-32,15,l),
(-35,0,l),
(181,0,l),
(184,15,l),
(69,29,l),
(73,22,l),
(170,213,l),
(160,206,l),
(486,206,l),
(479,213,l),
(516,0,l),
(614,0,l),
(616,15,l),
(526,29,l),
(533,22,l)
);
},
{
closed = 1;
nodes = (
(404,672,l),
(400,672,l),
(478,219,l),
(483,225,l),
(169,225,l),
(173,219,l)
);
}
);
};
guides = (
{
angle = 90;
pos = (1209,-200);
},
{
angle = 90;
pos = (1188,-200);
}
);
layerId = "075BA79B-D813-4287-A9DD-CCAF2D535ED3";
shapes = (
{
closed = 1;
nodes = (
(415,693,l),
(395,691,l),
(52,22,l),
(61,29,l),
(-32,15,l),
(-35,0,l),
(181,0,l),
(184,15,l),
(69,29,l),
(73,22,l),
(170,213,l),
(160,206,l),
(486,206,l),
(479,213,l),
(516,0,l),
(614,0,l),
(616,15,l),
(526,29,l),
(533,22,l)
);
},
{
closed = 1;
nodes = (
(404,672,l),
(400,672,l),
(478,219,l),
(483,225,l),
(169,225,l),
(173,219,l)
);
}
);
width = 662;
},
{
anchors = (
{
name = bottom;
pos = (297,0);
},
{
name = ogonek;
pos = (552,0);
},
{
name = top;
pos = (426,710);
}
);
background = {
anchors = (
{
name = bottom;
pos = (297,0);
},
{
name = ogonek;
pos = (552,0);
},
{
name = top;
pos = (426,710);
}
);
shapes = (
{
closed = 1;
nodes = (
(525,713,l),
(320,708,l),
(5,94,l),
(59,133,l),
(-21,100,l),
(-37,0,l),
(230,0,l),
(246,100,l),
(194,127,l),
(195,105,l),
(239,203,l),
(213,180,l),
(428,180,l),
(417,205,l),
(441,0,l),
(649,0,l),
(665,100,l),
(598,135,l),
(639,89,l)
);
},
{
closed = 1;
nodes = (
(420,604,l),
(371,605,l),
(408,286,l),
(421,320,l),
(272,320,l),
(279,291,l)
);
}
);
};
layerId = "927AED37-E9E6-4F96-A08E-421C3785EFC6";
shapes = (
{
closed = 1;
nodes = (
(525,713,l),
(320,708,l),
(5,94,l),
(59,133,l),
(-21,100,l),
(-37,0,l),
(230,0,l),
(246,100,l),
(194,127,l),
(195,105,l),
(239,203,l),
(213,180,l),
(428,180,l),
(417,205,l),
(441,0,l),
(649,0,l),
(665,100,l),
(598,135,l),
(639,89,l)
);
},
{
closed = 1;
nodes = (
(420,604,l),
(371,605,l),
(408,286,l),
(421,320,l),
(272,320,l),
(279,291,l)
);
}
);
width = 699;
}
);
},
{
glyphname = T_h;
kernLeft = T;
kernRight = n;
layers = (
{
background = {
shapes = (
{
closed = 1;
nodes = (
(983,2,l),
(985,17,l),
(892,29,l),
(899,19,l),
(954,360,ls),
(973,477,o),
(917,528,o),
(844,528,cs),
(766,528,o),
(661,470,o),
(598,301,c),
(603,302,l),
(678,765,l),
(657,760,l),
(536,0,l),
(556,0,l),
(586,187,ls),
(622,412,o),
(753,509,o),
(844,509,cs),
(904,509,o),
(951,467,o),
(934,361,cs),
(876,-2,l)
);
},
{
closed = 1;
nodes = (
(348,0,l),
(350,15,l),
(236,29,l),
(241,21,l),
(345,680,l),
(337,673,l),
(649,673,l),
(652,692,l),
(102,692,l),
(80,552,l),
(95,552,l),
(129,680,l),
(120,673,l),
(332,673,l),
(325,680,l),
(221,21,l),
(230,29,l),
(109,15,l),
(107,0,l)
);
}
);
};
layerId = "075BA79B-D813-4287-A9DD-CCAF2D535ED3";
shapes = (
{
closed = 1;
nodes = (
(983,2,l),
(985,17,l),
(892,29,l),
(899,19,l),
(954,360,ls),
(973,477,o),
(917,528,o),
(844,528,cs),
(766,528,o),
(661,470,o),
(598,301,c),
(603,302,l),
(678,765,l),
(657,760,l),
(536,0,l),
(556,0,l),
(586,187,ls),
(622,412,o),
(753,509,o),
(844,509,cs),
(904,509,o),
(951,467,o),
(934,361,cs),
(876,-2,l)
);
},
{
closed = 1;
nodes = (
(348,0,l),
(350,15,l),
(236,29,l),
(241,21,l),
(345,680,l),
(337,673,l),
(649,673,l),
(652,692,l),
(102,692,l),
(80,552,l),
(95,552,l),
(129,680,l),
(120,673,l),
(332,673,l),
(325,680,l),
(221,21,l),
(230,29,l),
(109,15,l),
(107,0,l)
);
}
);
width = 1050;
},
{
background = {
shapes = (
{
closed = 1;
nodes = (
(1082,0,l),
(1099,103,l),
(949,160,l),
(1033,99,l),
(1075,362,ls),
(1093,472,o),
(1043,555,o),
(943,555,cs),
(842,555,o),
(724,471,o),
(693,288,c),
(768,399,l),
(840,785,l),
(648,778,l),
(525,0,l),
(718,0,l),
(756,246,ls),
(772,350,o),
(811,403,o),
(852,403,cs),
(889,403,o),
(883,359,o),
(876,315,cs),
(825,-6,l)
);
},
{
closed = 1;
nodes = (
(442,0,l),
(458,100,l),
(379,132,l),
(389,105,l),
(467,595,l),
(421,565,l),
(652,565,l),
(680,710,l),
(89,710,l),
(52,474,l),
(167,474,l),
(216,603,l),
(169,565,l),
(301,565,l),
(270,595,l),
(192,105,l),
(216,131,l),
(126,100,l),
(110,0,l)
);
}
);
};
guides = (
{
angle = -99;
pos = (901,472);
}
);
layerId = "927AED37-E9E6-4F96-A08E-421C3785EFC6";
shapes = (
{
closed = 1;
nodes = (
(1082,0,l),
(1099,103,l),
(949,160,l),
(1033,99,l),
(1075,362,ls),
(1093,472,o),
(1043,555,o),
(943,555,cs),
(842,555,o),
(724,471,o),
(693,288,c),
(768,399,l),
(840,785,l),
(648,778,l),
(525,0,l),
(718,0,l),
(756,246,ls),
(772,350,o),
(811,403,o),
(852,403,cs),
(889,403,o),
(883,359,o),
(876,315,cs),
(825,-6,l)
);
},
{
closed = 1;
nodes = (
(442,0,l),
(458,100,l),
(379,132,l),
(389,105,l),
(467,595,l),
(421,565,l),
(652,565,l),
(680,710,l),
(89,710,l),
(52,474,l),
(167,474,l),
(216,603,l),
(169,565,l),
(301,565,l),
(270,595,l),
(192,105,l),
(216,131,l),
(126,100,l),
(110,0,l)
);
}
);
width = 1126;
}
);
metricLeft = T;
metricRight = h;
},
{
glyphname = a;
kernLeft = o;
kernRight = n;
layers = (
{
anchors = (
{
name = bottom;
pos = (256,0);
},
{
name = ogonek;
pos = (424,0);
},
{
name = top;
pos = (333,522);
}
);
background = {
anchors = (
{
name = bottom;
pos = (256,0);
},
{
name = ogonek;
pos = (424,0);
},
{
name = top;
pos = (333,522);
}
);
shapes = (
{
closed = 1;
nodes = (
(270,-6,o),
(379,60,o),
(438,221,c),
(432,220,l),
(397,-2,l),
(504,2,l),
(506,17,l),
(413,29,l),
(420,19,l),
(500,522,l),
(486,522,l),
(473,482,l),
(481,485,l),
(427,517,o),
(380,528,o),
(337,528,cs),
(176,528,o),
(58,372,o),
(58,185,cs),
(58,52,o),
(118,-6,o),
(192,-6,cs)
);
},
{
closed = 1;
nodes = (
(130,13,o),
(79,64,o),
(79,186,cs),
(79,363,o),
(187,509,o),
(336,509,cs),
(381,509,o),
(428,496,o),
(478,467,c),
(473,479,l),
(450,335,ls),
(414,111,o),
(281,13,o),
(193,13,cs)
);
}
);
};
guides = (
{
angle = -99;
pos = (561,362);
},
{
angle = -99;
pos = (454,231);
},
{
angle = -99;
pos = (434,231);
}
);
layerId = "075BA79B-D813-4287-A9DD-CCAF2D535ED3";
shapes = (
{
closed = 1;
nodes = (
(270,-6,o),
(379,60,o),
(438,221,c),
(432,220,l),
(397,-2,l),
(504,2,l),
(506,17,l),
(413,29,l),
(420,19,l),
(500,522,l),
(486,522,l),
(473,482,l),
(481,485,l),
(427,517,o),
(380,528,o),
(337,528,cs),
(176,528,o),
(58,372,o),
(58,185,cs),
(58,52,o),
(118,-6,o),
(192,-6,cs)
);
},
{
closed = 1;
nodes = (
(130,13,o),
(79,64,o),
(79,186,cs),
(79,363,o),
(187,509,o),
(336,509,cs),
(381,509,o),
(428,496,o),
(478,467,c),
(473,479,l),
(450,335,ls),
(414,111,o),
(281,13,o),
(193,13,cs)
);
}
);
width = 579;
},
{
anchors = (
{
name = bottom;
pos = (259,0);
},
{
name = ogonek;
pos = (461,0);
},
{
name = top;
pos = (324,540);
}
);
background = {
anchors = (
{
name = bottom;
pos = (259,0);
},
{
name = ogonek;
pos = (461,0);
},
{
name = top;
pos = (324,540);
}
);
shapes = (
{
closed = 1;
nodes = (
(262,-15,o),
(378,82,o),
(400,253,c),
(343,145,l),
(315,-7,l),
(551,0,l),
(568,103,l),
(424,160,l),
(491,33,l),
(571,540,l),
(468,539,l),
(435,507,l),
(522,487,l),
(459,535,o),
(392,556,o),
(328,556,cs),
(148,556,o),
(10,393,o),
(10,191,cs),
(10,46,o),
(81,-15,o),
(162,-15,cs)
);
},
{
closed = 1;
nodes = (
(219,140,o),
(206,164,o),
(206,214,cs),
(206,311,o),
(255,411,o),
(324,411,cs),
(346,411,o),
(369,401,o),
(394,378,c),
(363,439,l),
(341,303,ls),
(325,205,o),
(287,140,o),
(244,140,cs)
);
}
);
};
guides = (
{
angle = -99;
pos = (368,472);
},
{
angle = -99;
pos = (557,472);
},
{
angle = -99;
pos = (385,472);
},
{
angle = -99;
pos = (624,472);
}
);
layerId = "927AED37-E9E6-4F96-A08E-421C3785EFC6";
shapes = (
{
closed = 1;
nodes = (
(262,-15,o),
(378,82,o),
(400,253,c),
(343,145,l),
(315,-7,l),
(551,0,l),
(568,103,l),
(424,160,l),
(491,33,l),
(571,540,l),
(468,539,l),
(435,507,l),
(522,487,l),
(459,535,o),
(392,556,o),
(328,556,cs),
(148,556,o),
(10,393,o),
(10,191,cs),
(10,46,o),
(81,-15,o),
(162,-15,cs)
);
},
{
closed = 1;
nodes = (
(219,140,o),
(206,164,o),
(206,214,cs),
(206,311,o),
(255,411,o),
(324,411,cs),
(346,411,o),
(369,401,o),
(394,378,c),
(363,439,l),
(341,303,ls),
(325,205,o),
(287,140,o),
(244,140,cs)
);
}
);
width = 597;
}
);
unicode = 97;
},
{
glyphname = ae;
kernLeft = ae;
kernRight = e;
layers = (
{
anchors = (
{
name = bottom;
pos = (351,0);
},
{
name = top;
pos = (433,522);
}
);
background = {
anchors = (
{
name = bottom;
pos = (351,0);
},
{
name = top;
pos = (433,522);
}
);
shapes = (
{
closed = 1;
nodes = (
(361,192,l),
(361,122,o),
(246,13,o),
(169,13,cs),
(99,13,o),
(63,51,o),
(63,113,cs),
(63,227,o),
(219,239,o),
(363,239,cs),
(373,239,l),
(365,247,l),
(362,228,o),
(361,207,o),
(361,192,cs),
(361,69,o),
(426,-6,o),
(531,-6,cs),
(582,-6,o),
(640,12,o),
(699,47,c),
(690,63,l),
(635,30,o),
(580,13,o),
(533,13,cs),
(445,13,o),
(382,71,o),
(382,195,cs),
(382,213,o),
(383,230,o),
(386,248,c),
(379,242,l),
(539,246,o),
(763,271,o),
(763,416,cs),
(763,485,o),
(713,528,o),
(630,528,cs),
(525,528,o),
(445,457,o),
(401,367,c),
(403,364,l),
(406,394,o),
(410,409,o),
(410,430,cs),
(410,490,o),
(364,528,o),
(296,528,cs),
(247,528,o),
(186,514,o),
(122,491,c),
(116,392,l),
(133,392,l),
(153,490,l),
(145,479,l),
(194,497,o),
(245,509,o),
(290,509,cs),
(354,509,o),
(389,477,o),
(389,422,cs),
(389,379,o),
(373,317,o),
(365,253,c),
(375,258,l),
(363,258,ls),
(211,258,o),
(42,248,o),
(42,111,cs),
(42,36,o),
(87,-6,o),
(165,-6,cs),
(247,-6,o),
(373,102,o),
(373,166,c)
);
},
{
closed = 1;
nodes = (
(407,388,o),
(495,509,o),
(627,509,cs),
(697,509,o),
(742,475,o),
(742,415,cs),
(742,281,o),
(516,265,o),
(382,261,c),
(387,255,l)
);
}
);
};
guides = (
{
pos = (522,248);
}
);
layerId = "075BA79B-D813-4287-A9DD-CCAF2D535ED3";
shapes = (
{
closed = 1;
nodes = (
(361,192,l),
(361,122,o),
(246,13,o),
(169,13,cs),
(99,13,o),
(63,51,o),
(63,113,cs),
(63,227,o),
(219,239,o),
(363,239,cs),
(373,239,l),
(365,247,l),
(362,228,o),
(361,207,o),
(361,192,cs),
(361,69,o),
(426,-6,o),
(531,-6,cs),
(582,-6,o),
(640,12,o),
(699,47,c),
(690,63,l),
(635,30,o),
(580,13,o),
(533,13,cs),
(445,13,o),
(382,71,o),
(382,195,cs),
(382,213,o),
(383,230,o),
(386,248,c),
(379,242,l),
(539,246,o),
(763,271,o),
(763,416,cs),
(763,485,o),
(713,528,o),
(630,528,cs),
(525,528,o),
(445,457,o),
(401,367,c),
(403,364,l),
(406,394,o),
(410,409,o),
(410,430,cs),
(410,490,o),
(364,528,o),
(296,528,cs),
(247,528,o),
(186,514,o),
(122,491,c),
(116,392,l),
(133,392,l),
(153,490,l),
(145,479,l),
(194,497,o),
(245,509,o),
(290,509,cs),
(354,509,o),
(389,477,o),
(389,422,cs),
(389,379,o),
(373,317,o),
(365,253,c),
(375,258,l),
(363,258,ls),
(211,258,o),
(42,248,o),
(42,111,cs),
(42,36,o),
(87,-6,o),
(165,-6,cs),
(247,-6,o),
(373,102,o),
(373,166,c)
);
},
{
closed = 1;
nodes = (
(407,388,o),
(495,509,o),
(627,509,cs),
(697,509,o),
(742,475,o),
(742,415,cs),
(742,281,o),
(516,265,o),
(382,261,c),
(387,255,l)
);
}
);
width = 791;
},
{
anchors = (
{
name = bottom;
pos = (350,0);
},
{
name = top;
pos = (436,540);
}
);
background = {
anchors = (
{
name = bottom;
pos = (350,0);
},
{
name = top;
pos = (436,540);
}
);
shapes = (
{
closed = 1;
nodes = (
(297,204,l),
(297,139,o),
(251,124,o),
(228,124,cs),
(208,124,o),
(194,137,o),
(194,161,cs),
(194,202,o),
(233,202,o),
(262,202,cs),
(341,202,l),
(299,255,l),
(298,240,o),
(297,223,o),
(297,204,cs),
(297,71,o),
(384,-15,o),
(524,-15,cs),
(601,-15,o),
(687,10,o),
(765,54,c),
(713,171,l),
(657,143,o),
(607,126,o),
(569,126,cs),
(521,126,o),
(491,154,o),
(491,223,cs),
(491,229,o),
(491,236,o),
(491,242,c),
(460,200,l),
(641,189,o),
(813,250,o),
(813,395,cs),
(813,494,o),
(740,555,o),
(615,555,cs),
(525,555,o),
(451,523,o),
(397,470,c),
(446,458,l),
(447,465,o),
(447,464,o),
(447,466,cs),
(447,534,o),
(395,555,o),
(319,555,cs),
(247,555,o),
(154,536,o),
(78,517,c),
(64,351,l),
(176,351,l),
(216,496,l),
(121,394,l),
(172,402,o),
(219,414,o),
(259,414,cs),
(295,414,o),
(317,404,o),
(317,366,cs),
(317,356,o),
(314,322,o),
(306,288,c),
(327,307,l),
(237,307,ls),
(100,307,o),
(4,262,o),
(4,137,cs),
(4,35,o),
(67,-15,o),
(148,-15,cs),
(230,-15,o),
(318,18,o),
(346,129,c)
);
},
{
closed = 1;
nodes = (
(499,319,o),
(531,419,o),
(586,419,cs),
(611,419,o),
(623,399,o),
(623,378,cs),
(623,319,o),
(541,305,o),
(464,311,c),
(492,250,l)
);
}
);
};
guides = (
{
angle = -99;
pos = (400,316);
}
);
layerId = "927AED37-E9E6-4F96-A08E-421C3785EFC6";
shapes = (
{
closed = 1;
nodes = (
(297,204,l),
(297,139,o),
(251,124,o),
(228,124,cs),
(208,124,o),
(194,137,o),
(194,161,cs),
(194,202,o),
(233,202,o),
(262,202,cs),
(341,202,l),
(299,255,l),
(298,240,o),
(297,223,o),
(297,204,cs),
(297,71,o),
(384,-15,o),
(524,-15,cs),
(601,-15,o),
(687,10,o),
(765,54,c),
(713,171,l),
(657,143,o),
(607,126,o),
(569,126,cs),
(521,126,o),
(491,154,o),
(491,223,cs),
(491,229,o),
(491,236,o),
(491,242,c),
(460,200,l),
(641,189,o),
(813,250,o),
(813,395,cs),
(813,494,o),
(740,555,o),
(615,555,cs),
(525,555,o),
(451,523,o),
(397,470,c),
(446,458,l),
(447,465,o),
(447,464,o),
(447,466,cs),
(447,534,o),
(395,555,o),
(319,555,cs),
(247,555,o),
(154,536,o),
(78,517,c),
(64,351,l),
(176,351,l),
(216,496,l),
(121,394,l),
(172,402,o),
(219,414,o),
(259,414,cs),
(295,414,o),
(317,404,o),
(317,366,cs),
(317,356,o),
(314,322,o),
(306,288,c),
(327,307,l),
(237,307,ls),
(100,307,o),
(4,262,o),
(4,137,cs),
(4,35,o),
(67,-15,o),
(148,-15,cs),
(230,-15,o),
(318,18,o),
(346,129,c)
);
},
{
closed = 1;
nodes = (
(499,319,o),
(531,419,o),
(586,419,cs),
(611,419,o),
(623,399,o),
(623,378,cs),
(623,319,o),
(541,305,o),
(464,311,c),
(492,250,l)
);
}
);
width = 813;
}
);
metricRight = e;
unicode = 230;
},
{
glyphname = b;
kernLeft = h;
kernRight = o;
layers = (
{
anchors = (
{
name = bottom;
pos = (238,0);
},
{
name = top;
pos = (320,522);
}
);
background = {
anchors = (
{
name = bottom;
pos = (238,0);
},
{
name = top;
pos = (320,522);
}
);
shapes = (
{
closed = 1;
nodes = (
(116,1,o),
(160,-6,o),
(201,-6,cs),
(386,-6,o),
(508,129,o),
(508,331,cs),
(508,472,o),
(448,528,o),
(375,528,cs),
(296,528,o),
(187,462,o),
(128,301,c),
(133,293,l),
(208,765,l),
(101,760,l),
(99,745,l),
(190,732,l),
(184,741,l),
(69,15,l)
);
},
{
closed = 1;
nodes = (
(116,187,ls),
(151,410,o),
(285,509,o),
(374,509,cs),
(436,509,o),
(487,460,o),
(487,330,cs),
(487,137,o),
(374,12,o),
(205,12,cs),
(167,12,o),
(125,19,o),
(82,32,c),
(89,15,l)
);
}
);
};
guides = (
{
angle = -99;
pos = (123,231);
},
{
angle = -99;
pos = (103,231);
}
);
layerId = "075BA79B-D813-4287-A9DD-CCAF2D535ED3";
shapes = (
{
closed = 1;
nodes = (
(116,1,o),
(160,-6,o),
(201,-6,cs),
(386,-6,o),
(508,129,o),
(508,331,cs),
(508,472,o),
(448,528,o),
(375,528,cs),
(296,528,o),
(187,462,o),
(128,301,c),
(133,293,l),
(208,765,l),
(101,760,l),
(99,745,l),
(190,732,l),
(184,741,l),
(69,15,l)
);
},
{
closed = 1;
nodes = (
(116,187,ls),
(151,410,o),
(285,509,o),
(374,509,cs),
(436,509,o),
(487,460,o),
(487,330,cs),
(487,137,o),
(374,12,o),
(205,12,cs),
(167,12,o),
(125,19,o),
(82,32,c),
(89,15,l)
);
}
);
width = 568;
},
{
anchors = (
{
name = bottom;
pos = (253,0);
},
{
name = top;
pos = (339,540);
}
);
background = {
anchors = (
{
name = bottom;
pos = (253,0);
},
{
name = top;
pos = (339,540);
}
);
shapes = (
{
closed = 1;
nodes = (
(76,-5,o),
(139,-14,o),
(196,-14,cs),
(420,-14,o),
(569,119,o),
(569,344,cs),
(569,500,o),
(498,557,o),
(419,557,cs),
(316,557,o),
(209,460,o),
(187,289,c),
(259,421,l),
(325,785,l),
(65,777,l),
(49,677,l),
(195,622,l),
(126,745,l),
(10,13,l)
);
},
{
closed = 1;
nodes = (
(238,239,ls),
(254,337,o),
(293,402,o),
(335,402,cs),
(360,402,o),
(373,379,o),
(373,323,cs),
(373,216,o),
(326,133,o),
(246,133,cs),
(226,133,o),
(203,138,o),
(179,150,c),
(216,103,l)
);
}
);
};
guides = (
{
angle = -99;
pos = (83,472);
},
{
angle = -99;
pos = (275,472);
},
{
angle = -99;
pos = (16,472);
},
{
angle = -99;
pos = (83,472);
}
);
layerId = "927AED37-E9E6-4F96-A08E-421C3785EFC6";
shapes = (
{
closed = 1;
nodes = (
(76,-5,o),
(139,-14,o),
(196,-14,cs),
(420,-14,o),
(569,119,o),
(569,344,cs),
(569,500,o),
(498,557,o),
(419,557,cs),
(316,557,o),
(209,460,o),
(187,289,c),
(259,421,l),
(325,785,l),
(65,777,l),
(49,677,l),
(195,622,l),
(126,745,l),
(10,13,l)
);
},
{
closed = 1;
nodes = (
(238,239,ls),
(254,337,o),
(293,402,o),
(335,402,cs),
(360,402,o),
(373,379,o),
(373,323,cs),
(373,216,o),
(326,133,o),
(246,133,cs),
(226,133,o),
(203,138,o),
(179,150,c),
(216,103,l)
);
}
);
width = 580;
}
);
unicode = 98;
},
{
glyphname = c;
kernLeft = o;
kernRight = c;
layers = (
{
anchors = (
{
name = bottom;
pos = (221,0);
},
{
name = top;
pos = (304,522);
}
);
background = {
anchors = (
{
name = bottom;
pos = (221,0);
},
{
name = top;
pos = (304,522);
}
);
shapes = (
{
closed = 1;
nodes = (
(275,-6,o),
(333,12,o),
(389,47,c),
(380,63,l),
(328,31,o),
(275,14,o),
(228,14,cs),
(143,14,o),
(79,68,o),
(79,198,cs),
(79,362,o),
(182,509,o),
(320,509,cs),
(355,509,o),
(392,499,o),
(430,479,c),
(426,488,l),
(422,382,l),
(440,382,l),
(458,486,l),
(412,515,o),
(365,528,o),
(322,528,cs),
(175,528,o),
(58,378,o),
(58,197,cs),
(58,55,o),
(130,-6,o),
(224,-6,cs)
);
}
);
};
guides = (
{
angle = -99;
pos = (287,416);
}
);
layerId = "075BA79B-D813-4287-A9DD-CCAF2D535ED3";
shapes = (
{
closed = 1;
nodes = (
(275,-6,o),
(333,12,o),
(389,47,c),
(380,63,l),
(328,31,o),
(275,14,o),
(228,14,cs),
(143,14,o),
(79,68,o),
(79,198,cs),
(79,362,o),
(182,509,o),
(320,509,cs),
(355,509,o),
(392,499,o),
(430,479,c),
(426,488,l),
(422,382,l),
(440,382,l),
(458,486,l),
(412,515,o),
(365,528,o),
(322,528,cs),
(175,528,o),
(58,378,o),
(58,197,cs),
(58,55,o),
(130,-6,o),
(224,-6,cs)
);
}
);
width = 476;
},
{
anchors = (
{
name = bottom;
pos = (231,0);
},
{
name = top;
pos = (317,540);
}
);
background = {
anchors = (
{
name = bottom;
pos = (231,0);
},
{
name = top;
pos = (317,540);
}
);
shapes = (
{
closed = 1;
nodes = (
(299,-15,o),
(371,6,o),
(441,49,c),
(389,165,l),
(346,143,o),
(308,129,o),
(278,129,cs),
(234,129,o),
(208,158,o),
(208,236,cs),
(208,325,o),
(242,416,o),
(311,416,cs),
(326,416,o),
(343,412,o),
(362,402,c),
(344,419,l),
(351,349,l),
(476,349,l),
(501,514,l),
(444,542,o),
(386,555,o),
(331,555,cs),
(155,555,o),
(12,423,o),
(12,225,cs),
(12,63,o),
(109,-15,o),
(234,-15,cs)
);
}
);
};
guides = (
{
angle = -99;
pos = (297,416);
}
);
layerId = "927AED37-E9E6-4F96-A08E-421C3785EFC6";
shapes = (
{
closed = 1;
nodes = (
(299,-15,o),
(371,6,o),
(441,49,c),
(389,165,l),
(346,143,o),
(308,129,o),
(278,129,cs),
(234,129,o),
(208,158,o),
(208,236,cs),
(208,325,o),
(242,416,o),
(311,416,cs),
(326,416,o),
(343,412,o),
(362,402,c),
(344,419,l),
(351,349,l),
(476,349,l),
(501,514,l),
(444,542,o),
(386,555,o),
(331,555,cs),
(155,555,o),
(12,423,o),
(12,225,cs),
(12,63,o),
(109,-15,o),
(234,-15,cs)
);
}
);
width = 490;
}
);
unicode = 99;
},
{
glyphname = d;
kernLeft = o;
kernRight = l;
layers = (
{
anchors = (
{
name = bottom;
pos = (251,0);
},
{
name = center;
pos = (293,261);
},
{
name = top;
pos = (334,522);
},
{
name = topright;
pos = (638,762);
}
);
background = {
anchors = (
{
name = bottom;
pos = (251,0);
},
{
name = center;
pos = (293,261);
},
{
name = top;
pos = (334,522);
},
{
name = topright;
pos = (638,762);
}
);
shapes = (
{
closed = 1;
nodes = (
(270,-6,o),
(379,60,o),
(438,221,c),
(432,220,l),
(397,-2,l),
(504,2,l),
(506,17,l),
(413,29,l),
(420,19,l),
(538,765,l),
(426,760,l),
(424,746,l),
(520,732,l),
(514,739,l),
(473,480,l),
(481,485,l),
(427,517,o),
(380,528,o),
(337,528,cs),
(176,528,o),
(58,372,o),
(58,185,cs),
(58,52,o),
(118,-6,o),
(192,-6,cs)
);
},
{
closed = 1;
nodes = (
(130,13,o),
(79,64,o),
(79,186,cs),
(79,363,o),
(187,509,o),
(336,509,cs),
(381,509,o),
(428,496,o),
(478,467,c),
(473,479,l),
(450,335,l),
(413,111,o),
(281,13,o),
(193,13,cs)
);
}
);
};
layerId = "075BA79B-D813-4287-A9DD-CCAF2D535ED3";
shapes = (
{
closed = 1;
nodes = (
(270,-6,o),
(379,60,o),
(438,221,c),
(432,220,l),
(397,-2,l),
(504,2,l),
(506,17,l),
(413,29,l),
(420,19,l),
(538,765,l),
(426,760,l),
(424,746,l),
(520,732,l),
(514,739,l),
(473,480,l),
(481,485,l),
(427,517,o),
(380,528,o),
(337,528,cs),
(176,528,o),
(58,372,o),
(58,185,cs),
(58,52,o),
(118,-6,o),
(192,-6,cs)
);
},
{
closed = 1;
nodes = (
(130,13,o),
(79,64,o),
(79,186,cs),
(79,363,o),
(187,509,o),
(336,509,cs),
(381,509,o),
(428,496,o),
(478,467,c),
(473,479,l),
(450,335,l),
(413,111,o),
(281,13,o),
(193,13,cs)
);
}
);
width = 580;
},
{
anchors = (
{
name = bottom;
pos = (253,0);
},
{
name = center;
pos = (286,270);
},
{
name = top;
pos = (329,540);
},
{
name = topright;
pos = (640,780);
}
);
background = {
anchors = (
{
name = bottom;
pos = (253,0);
},
{
name = center;
pos = (286,270);
},
{
name = top;
pos = (329,540);
},
{
name = topright;
pos = (640,780);
}
);
shapes = (
{
closed = 1;
nodes = (
(262,-15,o),
(379,82,o),
(401,253,c),
(343,145,l),
(315,-7,l),
(551,0,l),
(568,103,l),
(424,160,l),
(491,33,l),
(610,785,l),
(353,777,l),
(337,677,l),
(481,622,l),
(412,745,l),
(378,531,l),
(522,487,l),
(459,535,o),
(392,556,o),
(328,556,cs),
(148,556,o),
(10,393,o),
(10,191,cs),
(10,46,o),
(81,-15,o),
(162,-15,cs)
);
},
{
closed = 1;
nodes = (
(219,140,o),
(206,164,o),
(206,214,cs),
(206,311,o),
(255,411,o),
(324,411,cs),
(346,411,o),
(369,401,o),
(394,378,c),
(362,432,l),
(341,303,ls),
(325,205,o),
(286,140,o),
(244,140,cs)
);
}
);
};
guides = (
{
angle = -99;
pos = (559,472);
},
{
angle = -99;
pos = (626,472);
}
);
layerId = "927AED37-E9E6-4F96-A08E-421C3785EFC6";
shapes = (
{
closed = 1;
nodes = (
(262,-15,o),
(379,82,o),
(401,253,c),
(343,145,l),
(315,-7,l),
(551,0,l),
(568,103,l),
(424,160,l),
(491,33,l),
(610,785,l),
(353,777,l),
(337,677,l),
(481,622,l),
(412,745,l),
(378,531,l),
(522,487,l),
(459,535,o),
(392,556,o),
(328,556,cs),
(148,556,o),
(10,393,o),
(10,191,cs),
(10,46,o),
(81,-15,o),
(162,-15,cs)
);
},
{
closed = 1;
nodes = (
(219,140,o),
(206,164,o),
(206,214,cs),
(206,311,o),
(255,411,o),
(324,411,cs),
(346,411,o),
(369,401,o),
(394,378,c),
(362,432,l),
(341,303,ls),
(325,205,o),
(286,140,o),
(244,140,cs)
);
}
);
width = 597;
}
);
unicode = 100;
},
{
glyphname = eth;
kernLeft = o;
kernRight = o;
layers = (
{
background = {
shapes = (
{
closed = 1;
nodes = (
(407,-6,o),
(506,167,o),
(506,410,cs),
(506,621,o),
(428,765,o),
(236,768,c),
(232,749,l),
(422,746,o),
(489,596,o),
(486,390,c),
(492,391,l),
(479,466,o),
(436,528,o),
(331,528,cs),
(156,528,o),
(58,358,o),
(58,191,cs),
(58,58,o),
(122,-6,o),
(227,-6,cs)
);
},
{
closed = 1;
nodes = (
(134,13,o),
(79,73,o),
(79,194,cs),
(79,348,o),
(168,509,o),
(327,509,cs),
(426,509,o),
(477,447,o),
(477,330,cs),
(477,176,o),
(388,13,o),
(230,13,cs)
);
},
{
closed = 1;
nodes = (
(528,752,l),
(521,768,l),
(268,628,l),
(275,612,l)
);
}
);
};
layerId = "075BA79B-D813-4287-A9DD-CCAF2D535ED3";
shapes = (
{
closed = 1;
nodes = (
(407,-6,o),
(506,167,o),
(506,410,cs),
(506,621,o),
(428,765,o),
(236,768,c),
(232,749,l),
(422,746,o),
(489,596,o),
(486,390,c),
(492,391,l),
(479,466,o),
(436,528,o),
(331,528,cs),
(156,528,o),
(58,358,o),
(58,191,cs),
(58,58,o),
(122,-6,o),
(227,-6,cs)
);
},
{
closed = 1;
nodes = (
(134,13,o),
(79,73,o),
(79,194,cs),
(79,348,o),
(168,509,o),
(327,509,cs),
(426,509,o),
(477,447,o),
(477,330,cs),
(477,176,o),
(388,13,o),
(230,13,cs)
);
},
{
closed = 1;
nodes = (
(528,752,l),
(521,768,l),
(268,628,l),
(275,612,l)
);
}
);
width = 572;
},
{
background = {
shapes = (
{
closed = 1;
nodes = (
(434,-15,o),
(554,171,o),
(554,399,cs),
(554,615,o),
(447,795,o),
(185,795,c),
(157,655,l),
(303,650,o),
(388,592,o),
(386,404,c),
(420,404,l),
(393,457,o),
(332,483,o),
(265,483,cs),
(116,483,o),
(4,352,o),
(4,195,cs),
(4,69,o),
(77,-15,o),
(220,-15,cs)
);
},
{
closed = 1;
nodes = (
(211,125,o),
(201,147,o),
(201,189,cs),
(201,247,o),
(219,352,o),
(295,352,cs),
(332,352,o),
(342,327,o),
(342,286,cs),
(342,231,o),
(324,125,o),
(246,125,cs)
);
},
{
closed = 1;
nodes = (
(538,720,l),
(489,799,l),
(199,596,l),
(247,518,l)
);
}
);
};
layerId = "927AED37-E9E6-4F96-A08E-421C3785EFC6";
shapes = (
{
closed = 1;
nodes = (
(434,-15,o),
(554,171,o),
(554,399,cs),
(554,615,o),
(447,795,o),
(185,795,c),
(157,655,l),
(303,650,o),
(388,592,o),
(386,404,c),
(420,404,l),
(393,457,o),
(332,483,o),
(265,483,cs),
(116,483,o),
(4,352,o),
(4,195,cs),
(4,69,o),
(77,-15,o),
(220,-15,cs)
);
},
{
closed = 1;
nodes = (
(211,125,o),
(201,147,o),
(201,189,cs),
(201,247,o),
(219,352,o),
(295,352,cs),
(332,352,o),
(342,327,o),
(342,286,cs),
(342,231,o),
(324,125,o),
(246,125,cs)
);
},
{
closed = 1;
nodes = (
(538,720,l),
(489,799,l),
(199,596,l),
(247,518,l)
);
}
);
width = 565;
}
);
unicode = 240;
},
{
glyphname = dcroat;
kernLeft = o;
kernRight = d;
layers = (
{
background = {
shapes = (
{
closed = 1;
nodes = (
(270,-6,o),
(379,60,o),
(438,221,c),
(432,220,l),
(397,-2,l),
(504,2,l),
(506,17,l),
(413,29,l),
(420,19,l),
(538,765,l),
(426,760,l),
(424,746,l),
(520,732,l),
(514,739,l),
(473,480,l),
(481,485,l),
(427,517,o),
(380,528,o),
(337,528,cs),
(176,528,o),
(58,372,o),
(58,185,cs),
(58,52,o),
(118,-6,o),
(192,-6,cs)
);
},
{
closed = 1;
nodes = (
(130,13,o),
(79,64,o),
(79,186,cs),
(79,363,o),
(187,509,o),
(336,509,cs),
(381,509,o),
(428,496,o),
(478,467,c),
(473,479,l),
(450,335,l),
(413,111,o),
(281,13,o),
(193,13,cs)
);
},
{
closed = 1;
nodes = (
(605,622,l),
(608,641,l),
(298,641,l),
(295,622,l)
);
}
);
};
guides = (
{
angle = -99;
pos = (551,316);
}
);
layerId = "075BA79B-D813-4287-A9DD-CCAF2D535ED3";
shapes = (
{
closed = 1;
nodes = (
(270,-6,o),
(379,60,o),
(438,221,c),
(432,220,l),
(397,-2,l),
(504,2,l),
(506,17,l),
(413,29,l),
(420,19,l),
(538,765,l),
(426,760,l),
(424,746,l),
(520,732,l),
(514,739,l),
(473,480,l),
(481,485,l),
(427,517,o),
(380,528,o),
(337,528,cs),
(176,528,o),
(58,372,o),
(58,185,cs),
(58,52,o),
(118,-6,o),
(192,-6,cs)
);
},
{
closed = 1;
nodes = (
(130,13,o),
(79,64,o),
(79,186,cs),
(79,363,o),
(187,509,o),
(336,509,cs),
(381,509,o),
(428,496,o),
(478,467,c),
(473,479,l),
(450,335,l),
(413,111,o),
(281,13,o),
(193,13,cs)
);
},
{
closed = 1;
nodes = (
(605,622,l),
(608,641,l),
(298,641,l),
(295,622,l)
);
}
);
width = 583;
},
{
background = {
shapes = (
{
closed = 1;
nodes = (
(262,-15,o),
(379,82,o),
(401,253,c),
(343,145,l),
(315,-7,l),
(552,0,l),
(568,103,l),
(424,160,l),
(491,33,l),
(610,785,l),
(361,774,l),
(345,681,l),
(481,629,l),
(412,745,l),
(378,531,l),
(522,487,l),
(459,535,o),
(392,556,o),
(328,556,cs),
(148,556,o),
(10,393,o),
(10,191,cs),
(10,46,o),
(81,-15,o),
(162,-15,cs)
);
},
{
closed = 1;
nodes = (
(219,140,o),
(206,164,o),
(206,214,cs),
(206,311,o),
(255,411,o),
(324,411,cs),
(346,411,o),
(369,401,o),
(394,378,c),
(362,432,l),
(341,303,ls),
(325,205,o),
(286,140,o),
(244,140,cs)
);
},
{
closed = 1;
nodes = (
(622,556,l),
(638,661,l),
(230,661,l),
(214,556,l)
);
}
);
};
guides = (
{
angle = -99;
pos = (602,316);
}
);
layerId = "927AED37-E9E6-4F96-A08E-421C3785EFC6";
shapes = (
{
closed = 1;
nodes = (
(262,-15,o),
(379,82,o),
(401,253,c),
(343,145,l),
(315,-7,l),
(552,0,l),
(568,103,l),
(424,160,l),
(491,33,l),
(610,785,l),
(361,774,l),
(345,681,l),
(481,629,l),
(412,745,l),
(378,531,l),
(522,487,l),
(459,535,o),
(392,556,o),
(328,556,cs),
(148,556,o),
(10,393,o),
(10,191,cs),
(10,46,o),
(81,-15,o),
(162,-15,cs)
);
},
{
closed = 1;
nodes = (
(219,140,o),
(206,164,o),
(206,214,cs),
(206,311,o),
(255,411,o),
(324,411,cs),
(346,411,o),
(369,401,o),
(394,378,c),
(362,432,l),
(341,303,ls),
(325,205,o),
(286,140,o),
(244,140,cs)
);
},
{
closed = 1;
nodes = (
(622,556,l),
(638,661,l),
(230,661,l),
(214,556,l)
);
}
);
width = 598;
}
);
metricLeft = d;
metricRight = d;
unicode = 273;
},
{
color = 0;
glyphname = e;
kernLeft = o;
kernRight = e;
layers = (
{
anchors = (
{
name = bottom;
pos = (233,0);
},
{
name = ogonek;
pos = (280,0);
},
{
name = top;
pos = (316,522);
}
);
background = {
anchors = (
{
name = bottom;
pos = (233,0);
},
{
name = ogonek;
pos = (280,0);
},
{
name = top;
pos = (316,522);
}
);
shapes = (
{
closed = 1;
nodes = (
(279,-6,o),
(337,12,o),
(396,47,c),
(387,63,l),
(332,30,o),
(277,13,o),
(230,13,cs),
(142,13,o),
(79,71,o),
(79,195,cs),
(79,350,o),
(171,509,o),
(322,509,cs),
(395,509,o),
(439,473,o),
(439,422,cs),
(439,321,o),
(263,255,o),
(126,255,cs),
(109,255,o),
(92,256,o),
(77,258,c),
(73,238,l),
(87,237,o),
(100,236,o),
(118,236,cs),
(273,236,o),
(460,308,o),
(460,423,cs),
(460,483,o),
(410,528,o),
(325,528,cs),
(162,528,o),
(58,360,o),
(58,196,cs),
(58,59,o),
(130,-6,o),
(228,-6,cs)
);
}
);
};
guides = (
{
angle = -99;
pos = (299,416);
}
);
layerId = "075BA79B-D813-4287-A9DD-CCAF2D535ED3";
shapes = (
{
closed = 1;
nodes = (
(279,-6,o),
(337,12,o),
(396,47,c),
(387,63,l),
(332,30,o),
(277,13,o),
(230,13,cs),
(142,13,o),
(79,71,o),
(79,195,cs),
(79,350,o),
(171,509,o),
(322,509,cs),
(395,509,o),
(439,473,o),
(439,422,cs),
(439,321,o),
(263,255,o),
(126,255,cs),
(109,255,o),
(92,256,o),
(77,258,c),
(73,238,l),
(87,237,o),
(100,236,o),
(118,236,cs),
(273,236,o),
(460,308,o),
(460,423,cs),
(460,483,o),
(410,528,o),
(325,528,cs),
(162,528,o),
(58,360,o),
(58,196,cs),
(58,59,o),
(130,-6,o),
(228,-6,cs)
);
}
);
width = 487;
},
{
anchors = (
{
name = bottom;
pos = (233,0);
},
{
name = ogonek;
pos = (346,0);
},
{
name = top;
pos = (319,540);
}
);
background = {
anchors = (
{
name = bottom;
pos = (233,0);
},
{
name = ogonek;
pos = (346,0);
},
{
name = top;
pos = (319,540);
}
);
shapes = (
{
closed = 1;
nodes = (
(311,-15,o),
(396,8,o),
(480,54,c),
(428,171,l),
(371,143,o),
(321,126,o),
(283,126,cs),
(235,126,o),
(206,154,o),
(206,223,cs),
(206,300,o),
(241,419,o),
(302,419,cs),
(325,419,o),
(338,401,o),
(338,378,cs),
(338,332,o),
(285,310,o),
(229,310,cs),
(218,310,o),
(207,310,o),
(197,312,c),
(187,199,l),
(192,199,o),
(203,198,o),
(222,198,cs),
(382,198,o),
(530,265,o),
(530,398,cs),
(530,494,o),
(454,555,o),
(329,555,cs),
(126,555,o),
(12,392,o),
(12,218,cs),
(12,59,o),
(108,-15,o),
(238,-15,cs)
);
}
);
};
guides = (
{
angle = -99;
pos = (299,416);
}
);
layerId = "927AED37-E9E6-4F96-A08E-421C3785EFC6";
shapes = (
{
closed = 1;
nodes = (
(311,-15,o),
(396,8,o),
(480,54,c),
(428,171,l),
(371,143,o),
(321,126,o),
(283,126,cs),
(235,126,o),
(206,154,o),
(206,223,cs),
(206,300,o),
(241,419,o),
(302,419,cs),
(325,419,o),
(338,401,o),
(338,378,cs),
(338,332,o),
(285,310,o),
(229,310,cs),
(218,310,o),
(207,310,o),
(197,312,c),
(187,199,l),
(192,199,o),
(203,198,o),
(222,198,cs),
(382,198,o),
(530,265,o),
(530,398,cs),
(530,494,o),
(454,555,o),
(329,555,cs),
(126,555,o),
(12,392,o),
(12,218,cs),
(12,59,o),
(108,-15,o),
(238,-15,cs)
);
}
);
width = 528;
},
{
anchors = (
{
name = bottom;
pos = (236,0);
},
{
name = ogonek;
pos = (297,0);
},
{
name = top;
pos = (320,530);
}
);
associatedMasterId = "075BA79B-D813-4287-A9DD-CCAF2D535ED3";
attr = {
coordinates = (
100
);
};
background = {
shapes = (
{
closed = 1;
nodes = (
(292,-10,o),
(368,13,o),
(445,58,c),
(419,116,l),
(357,83,o),
(299,65,o),
(251,65,cs),
(181,65,o),
(134,106,o),
(134,199,cs),
(134,334,o),
(202,469,o),
(312,469,cs),
(364,469,o),
(395,439,o),
(395,402,cs),
(395,326,o),
(273,293,o),
(172,293,cs),
(157,293,o),
(142,294,o),
(128,295,c),
(122,226,l),
(135,225,o),
(148,224,o),
(162,224,cs),
(322,224,o),
(491,288,o),
(491,413,cs),
(491,488,o),
(430,540,o),
(323,540,cs),
(157,540,o),
(36,391,o),
(36,195,cs),
(36,55,o),
(116,-10,o),
(225,-10,cs)
);
}
);
};
layerId = "FC6433CF-2B87-4175-A62D-BF714C6363B9";
name = "{100}";
shapes = (
{
closed = 1;
nodes = (
(296,-10,o),
(365,11,o),
(431,52,c),
(406,109,l),
(352,79,o),
(299,63,o),
(253,63,cs),
(181,63,o),
(135,106,o),
(135,206,cs),
(135,328,o),
(202,467,o),
(313,467,cs),
(363,467,o),
(394,441,o),
(394,402,cs),
(394,330,o),
(281,293,o),
(180,293,cs),
(163,293,o),
(146,294,o),
(130,296,c),
(124,225,l),
(136,224,o),
(148,224,o),
(160,224,cs),
(326,224,o),
(491,289,o),
(491,412,cs),
(491,488,o),
(430,540,o),
(327,540,cs),
(146,540,o),
(38,375,o),
(38,204,cs),
(38,52,o),
(123,-10,o),
(232,-10,cs)
);
}
);
width = 509;
}
);
unicode = 101;
},
{
glyphname = f;
kernLeft = j;
kernRight = f;
layers = (
{
background = {
shapes = (
{
closed = 1;
nodes = (
(65,-236,o),
(80,-133,o),
(89,-76,cs),
(181,504,l),
(173,499,l),
(326,499,l),
(329,518,l),
(176,518,l),
(182,510,l),
(198,612,ls),
(213,707,o),
(268,749,o),
(340,749,cs),
(363,749,o),
(389,745,o),
(416,736,c),
(396,732,l),
(409,768,l),
(421,756,l),
(395,764,o),
(368,768,o),
(344,768,cs),
(263,768,o),
(195,723,o),
(178,613,cs),
(162,511,l),
(170,518,l),
(76,513,l),
(74,499,l),
(167,499,l),
(161,505,l),
(69,-77,ls),
(59,-140,o),
(46,-217,o),
(-64,-217,cs),
(-77,-217,o),
(-87,-216,o),
(-90,-216,c),
(-93,-234,l),
(-81,-235,o),
(-70,-236,o),
(-58,-236,cs)
);
}
);
};
guides = (
{
angle = -99;
pos = (176,472);
},
{
angle = -99;
pos = (156,472);
}
);
layerId = "075BA79B-D813-4287-A9DD-CCAF2D535ED3";
shapes = (
{
closed = 1;
nodes = (
(65,-236,o),
(80,-133,o),
(89,-76,cs),
(181,504,l),
(173,499,l),
(326,499,l),
(329,518,l),
(176,518,l),
(182,510,l),
(198,612,ls),
(213,707,o),
(268,749,o),
(340,749,cs),
(363,749,o),
(389,745,o),
(416,736,c),
(396,732,l),
(409,768,l),
(421,756,l),
(395,764,o),
(368,768,o),
(344,768,cs),
(263,768,o),
(195,723,o),
(178,613,cs),
(162,511,l),
(170,518,l),
(76,513,l),
(74,499,l),
(167,499,l),
(161,505,l),
(69,-77,ls),
(59,-140,o),
(46,-217,o),
(-64,-217,cs),
(-77,-217,o),
(-87,-216,o),
(-90,-216,c),
(-93,-234,l),
(-81,-235,o),
(-70,-236,o),
(-58,-236,cs)
);
}
);
width = 287;
},
{
background = {
shapes = (
{
closed = 1;
nodes = (
(54,-245,o),
(191,-202,o),
(228,30,cs),
(291,428,l),
(273,405,l),
(408,405,l),
(430,535,l),
(287,535,l),
(304,510,l),
(314,574,ls),
(323,633,o),
(362,654,o),
(405,654,cs),
(434,654,o),
(465,645,o),
(490,631,c),
(455,578,l),
(540,818,l),
(605,729,l),
(530,773,o),
(454,795,o),
(383,795,cs),
(250,795,o),
(145,720,o),
(120,560,cs),
(112,508,l),
(137,540,l),
(39,510,l),
(22,405,l),
(111,405,l),
(99,428,l),
(28,-19,ls),
(17,-86,o),
(-21,-105,o),
(-66,-105,cs),
(-80,-105,o),
(-94,-103,o),
(-107,-101,c),
(-138,-235,l),
(-117,-239,o),
(-85,-245,o),
(-47,-245,cs)
);
}
);
};
guides = (
{
angle = -99;
pos = (106,472);
},
{
angle = -99;
pos = (298,472);
}
);
layerId = "927AED37-E9E6-4F96-A08E-421C3785EFC6";
shapes = (
{
closed = 1;
nodes = (
(54,-245,o),
(191,-202,o),
(228,30,cs),
(291,428,l),
(273,405,l),
(408,405,l),
(430,535,l),
(287,535,l),
(304,510,l),
(314,574,ls),
(323,633,o),
(362,654,o),
(405,654,cs),
(434,654,o),
(465,645,o),
(490,631,c),
(455,578,l),
(540,818,l),
(605,729,l),
(530,773,o),
(454,795,o),
(383,795,cs),
(250,795,o),
(145,720,o),
(120,560,cs),
(112,508,l),
(137,540,l),
(39,510,l),
(22,405,l),
(111,405,l),
(99,428,l),
(28,-19,ls),
(17,-86,o),
(-21,-105,o),
(-66,-105,cs),
(-80,-105,o),
(-94,-103,o),
(-107,-101,c),
(-138,-235,l),
(-117,-239,o),
(-85,-245,o),
(-47,-245,cs)
);
}
);
width = 397;
}
);
unicode = 102;
},
{
glyphname = g;
kernLeft = o;
kernRight = j;
layers = (
{
anchors = (
{
name = bottom;
pos = (210,-230);
},
{
name = top;
pos = (330,522);
}
);
background = {
anchors = (
{
name = bottom;
pos = (210,-230);
},
{
name = top;
pos = (330,522);
}
);
shapes = (
{
closed = 1;
nodes = (
(318,-236,o),
(390,-176,o),
(412,-35,cs),
(500,522,l),
(486,522,l),
(473,483,l),
(481,485,l),
(427,517,o),
(380,528,o),
(337,528,cs),
(176,528,o),
(58,372,o),
(58,185,cs),
(58,52,o),
(118,-6,o),
(192,-6,cs),
(270,-6,o),
(379,60,o),
(438,221,c),
(433,221,l),
(392,-37,ls),
(372,-163,o),
(308,-217,o),
(209,-217,cs),
(163,-217,o),
(110,-205,o),
(51,-184,c),
(44,-205,l),
(105,-225,o),
(160,-236,o),
(207,-236,cs)
);
},
{
closed = 1;
nodes = (
(130,13,o),
(79,64,o),
(79,186,cs),
(79,363,o),
(187,509,o),
(336,509,cs),
(381,509,o),
(428,496,o),
(478,467,c),
(473,479,l),
(450,335,l),
(413,111,o),
(281,13,o),
(193,13,cs)
);
}
);
};
layerId = "075BA79B-D813-4287-A9DD-CCAF2D535ED3";
shapes = (
{
closed = 1;
nodes = (
(318,-236,o),
(390,-176,o),
(412,-35,cs),
(500,522,l),
(486,522,l),
(473,483,l),
(481,485,l),
(427,517,o),
(380,528,o),
(337,528,cs),
(176,528,o),
(58,372,o),
(58,185,cs),
(58,52,o),
(118,-6,o),
(192,-6,cs),
(270,-6,o),
(379,60,o),
(438,221,c),
(433,221,l),
(392,-37,ls),
(372,-163,o),
(308,-217,o),
(209,-217,cs),
(163,-217,o),
(110,-205,o),
(51,-184,c),
(44,-205,l),
(105,-225,o),
(160,-236,o),
(207,-236,cs)
);
},
{
closed = 1;
nodes = (
(130,13,o),
(79,64,o),
(79,186,cs),
(79,363,o),
(187,509,o),
(336,509,cs),
(381,509,o),
(428,496,o),
(478,467,c),
(473,479,l),
(450,335,l),
(413,111,o),
(281,13,o),
(193,13,cs)
);
}
);
width = 567;
},
{
anchors = (
{
name = bottom;
pos = (173,-230);
},
{
name = top;
pos = (322,540);
}
);
background = {
anchors = (
{
name = bottom;
pos = (173,-230);
},
{
name = top;
pos = (322,540);
}
);
shapes = (
{
closed = 1;
nodes = (
(310,-245,o),
(457,-186,o),
(491,31,cs),
(571,540,l),
(468,539,l),
(438,510,l),
(522,487,l),
(459,534,o),
(392,555,o),
(328,555,cs),
(148,555,o),
(10,392,o),
(10,191,cs),
(10,46,o),
(81,-15,o),
(162,-15,cs),
(262,-15,o),
(379,82,o),
(401,253,c),
(336,145,l),
(319,29,ls),
(314,-7,o),
(299,-104,o),
(159,-104,cs),
(116,-104,o),
(57,-95,o),
(4,-77,c),
(-34,-210,l),
(21,-229,o),
(93,-245,o),
(168,-245,cs)
);
},
{
closed = 1;
nodes = (
(219,140,o),
(206,164,o),
(206,214,cs),
(206,311,o),
(255,411,o),
(324,411,cs),
(346,411,o),
(369,401,o),
(394,378,c),
(363,439,l),
(341,303,ls),
(325,205,o),
(287,140,o),
(244,140,cs)
);
}
);
};
layerId = "927AED37-E9E6-4F96-A08E-421C3785EFC6";
shapes = (
{
closed = 1;
nodes = (
(310,-245,o),
(457,-186,o),
(491,31,cs),
(571,540,l),
(468,539,l),
(438,510,l),
(522,487,l),
(459,534,o),
(392,555,o),
(328,555,cs),
(148,555,o),
(10,392,o),
(10,191,cs),
(10,46,o),
(81,-15,o),
(162,-15,cs),
(262,-15,o),
(379,82,o),
(401,253,c),
(336,145,l),
(319,29,ls),
(314,-7,o),
(299,-104,o),
(159,-104,cs),
(116,-104,o),
(57,-95,o),
(4,-77,c),
(-34,-210,l),
(21,-229,o),
(93,-245,o),
(168,-245,cs)
);
},
{
closed = 1;
nodes = (
(219,140,o),
(206,164,o),
(206,214,cs),
(206,311,o),
(255,411,o),
(324,411,cs),
(346,411,o),
(369,401,o),
(394,378,c),
(363,439,l),
(341,303,ls),
(325,205,o),
(287,140,o),
(244,140,cs)
);
}
);
width = 580;
}
);
unicode = 103;
},
{
glyphname = h;
kernLeft = h;
kernRight = n;
layers = (
{
anchors = (
{
name = bottom;
pos = (247,0);
},
{
name = center;
pos = (176,627);
},
{
name = top;
pos = (167,692);
}
);
background = {
anchors = (
{
name = bottom;
pos = (247,0);
},
{
name = center;
pos = (176,627);
},
{
name = top;
pos = (167,692);
}
);
shapes = (
{
closed = 1;
nodes = (
(514,2,l),
(516,17,l),
(426,29,l),
(431,22,l),
(485,360,ls),
(504,477,o),
(448,528,o),
(375,528,cs),
(297,528,o),
(192,470,o),
(129,301,c),
(134,302,l),
(209,765,l),
(102,760,l),
(100,745,l),
(191,732,l),
(185,742,l),
(67,0,l),
(87,0,l),
(117,187,ls),
(153,412,o),
(284,509,o),
(375,509,cs),
(435,509,o),
(482,467,o),
(465,361,cs),
(407,-2,l)
);
}
);
};
layerId = "075BA79B-D813-4287-A9DD-CCAF2D535ED3";
shapes = (
{
closed = 1;
nodes = (
(514,2,l),
(516,17,l),
(426,29,l),
(431,22,l),
(485,360,ls),
(504,477,o),
(448,528,o),
(375,528,cs),
(297,528,o),
(192,470,o),
(129,301,c),
(134,302,l),
(209,765,l),
(102,760,l),
(100,745,l),
(191,732,l),
(185,742,l),
(67,0,l),
(87,0,l),
(117,187,ls),
(153,412,o),
(284,509,o),
(375,509,cs),
(435,509,o),
(482,467,o),
(465,361,cs),
(407,-2,l)
);
}
);
width = 581;
},
{
anchors = (
{
name = bottom;
pos = (255,0);
},
{
name = center;
pos = (205,655);
},
{
name = top;
pos = (189,710);
}
);
background = {
anchors = (
{
name = bottom;
pos = (255,0);
},
{
name = center;
pos = (205,655);
},
{
name = top;
pos = (189,710);
}
);
shapes = (
{
closed = 1;
nodes = (
(566,0,l),
(583,103,l),
(433,160,l),
(517,99,l),
(559,362,ls),
(577,472,o),
(527,555,o),
(427,555,cs),
(326,555,o),
(208,471,o),
(177,288,c),
(252,399,l),
(324,785,l),
(68,776,l),
(52,672,l),
(138,646,l),
(116,676,l),
(9,0,l),
(202,0,l),
(240,246,ls),
(256,350,o),
(295,403,o),
(336,403,cs),
(373,403,o),
(367,359,o),
(360,315,cs),
(307,-6,l)
);
}
);
};
guides = (
{
angle = -99;
pos = (84,472);
},
{
angle = -99;
pos = (276,472);
},
{
angle = -99;
pos = (20,472);
},
{
angle = -99;
pos = (385,472);
},
{
angle = -99;
pos = (576,472);
}
);
layerId = "927AED37-E9E6-4F96-A08E-421C3785EFC6";
shapes = (
{
closed = 1;
nodes = (
(566,0,l),
(583,103,l),
(433,160,l),
(517,99,l),
(559,362,ls),
(577,472,o),
(527,555,o),
(427,555,cs),
(326,555,o),
(208,471,o),
(177,288,c),
(252,399,l),
(324,785,l),
(68,776,l),
(52,672,l),
(138,646,l),
(116,676,l),
(9,0,l),
(202,0,l),
(240,246,ls),
(256,350,o),
(295,403,o),
(336,403,cs),
(373,403,o),
(367,359,o),
(360,315,cs),
(307,-6,l)
);
}
);
width = 610;
}
);
metricRight = n;
unicode = 104;
},
{
glyphname = hbar;
kernLeft = h;
kernRight = n;
layers = (
{
background = {
shapes = (
{
closed = 1;
nodes = (
(514,2,l),
(516,17,l),
(423,29,l),
(430,19,l),
(485,360,ls),
(504,477,o),
(448,528,o),
(375,528,cs),
(297,528,o),
(192,470,o),
(129,301,c),
(134,302,l),
(209,765,l),
(102,760,l),
(100,745,l),
(191,732,l),
(185,742,l),
(67,0,l),
(87,0,l),
(117,187,ls),
(153,412,o),
(284,509,o),
(375,509,cs),
(435,509,o),
(482,467,o),
(465,361,cs),
(407,-2,l)
);
},
{
closed = 1;
nodes = (
(383,622,l),
(386,641,l),
(84,641,l),
(81,622,l)
);
}
);
};
guides = (
{
angle = -99;
pos = (175,574);
},
{
angle = -99;
pos = (73,574);
}
);
layerId = "075BA79B-D813-4287-A9DD-CCAF2D535ED3";
shapes = (
{
closed = 1;
nodes = (
(514,2,l),
(516,17,l),
(423,29,l),
(430,19,l),
(485,360,ls),
(504,477,o),
(448,528,o),
(375,528,cs),
(297,528,o),
(192,470,o),
(129,301,c),
(134,302,l),
(209,765,l),
(102,760,l),
(100,745,l),
(191,732,l),
(185,742,l),
(67,0,l),
(87,0,l),
(117,187,ls),
(153,412,o),
(284,509,o),
(375,509,cs),
(435,509,o),
(482,467,o),
(465,361,cs),
(407,-2,l)
);
},
{
closed = 1;
nodes = (
(383,622,l),
(386,641,l),
(84,641,l),
(81,622,l)
);
}
);
width = 581;
},
{
background = {
shapes = (
{
closed = 1;
nodes = (
(566,0,l),
(583,103,l),
(433,160,l),
(517,99,l),
(559,362,ls),
(577,472,o),
(527,555,o),
(427,555,cs),
(326,555,o),
(208,471,o),
(177,288,c),
(252,399,l),
(324,785,l),
(68,776,l),
(52,672,l),
(138,646,l),
(116,676,l),
(9,0,l),
(202,0,l),
(240,246,ls),
(256,350,o),
(295,403,o),
(336,403,cs),
(373,403,o),
(367,359,o),
(360,315,cs),
(308,-6,l)
);
},
{
closed = 1;
nodes = (
(436,556,l),
(453,661,l),
(50,661,l),
(34,556,l)
);
}
);
};
guides = (
{
pos = (556,535);
},
{
pos = (556,385);
},
{
angle = -99;
pos = (84,472);
},
{
angle = -99;
pos = (20,472);
}
);
layerId = "927AED37-E9E6-4F96-A08E-421C3785EFC6";
shapes = (
{
closed = 1;
nodes = (
(566,0,l),
(583,103,l),
(433,160,l),
(517,99,l),
(559,362,ls),
(577,472,o),
(527,555,o),
(427,555,cs),
(326,555,o),
(208,471,o),
(177,288,c),
(252,399,l),
(324,785,l),
(68,776,l),
(52,672,l),
(138,646,l),
(116,676,l),
(9,0,l),
(202,0,l),
(240,246,ls),
(256,350,o),
(295,403,o),
(336,403,cs),
(373,403,o),
(367,359,o),
(360,315,cs),
(308,-6,l)
);
},
{
closed = 1;
nodes = (
(436,556,l),
(453,661,l),
(50,661,l),
(34,556,l)
);
}
);
width = 610;
}
);
metricLeft = h;
metricRight = h;
unicode = 295;
},
{
glyphname = idotless;
kernLeft = n;
kernRight = l;
layers = (
{
anchors = (
{
name = bottom;
pos = (90,0);
},
{
name = ogonek;
pos = (150,0);
},
{
name = top;
pos = (172,522);
}
);
background = {
anchors = (
{
name = bottom;
pos = (90,0);
},
{
name = ogonek;
pos = (150,0);
},
{
name = top;
pos = (172,522);
}
);
shapes = (
{
closed = 1;
nodes = (
(187,2,l),
(189,17,l),
(99,29,l),
(104,22,l),
(184,525,l),
(77,520,l),
(75,505,l),
(168,492,l),
(160,502,l),
(80,-2,l)
);
}
);
};
guides = (
{
angle = -99;
pos = (461,621);
},
{
pos = (213,344);
},
{
angle = -99;
pos = (137,231);
},
{
angle = -99;
pos = (117,234);
},
{
angle = -99;
pos = (31,234);
},
{
angle = -99;
pos = (223,231);
}
);
layerId = "075BA79B-D813-4287-A9DD-CCAF2D535ED3";
shapes = (
{
closed = 1;
nodes = (
(187,2,l),
(189,17,l),
(99,29,l),
(104,22,l),
(184,525,l),
(77,520,l),
(75,505,l),
(168,492,l),
(160,502,l),
(80,-2,l)
);
}
);
width = 263;
},
{
anchors = (
{
name = bottom;
pos = (123,0);
},
{
name = ogonek;
pos = (220,0);
},
{
name = top;
pos = (207,540);
}
);
background = {
anchors = (
{
name = bottom;
pos = (123,0);
},
{
name = ogonek;
pos = (220,0);
},
{
name = top;
pos = (207,540);
}
);
shapes = (
{
closed = 1;
nodes = (
(283,0,l),
(299,100,l),
(155,157,l),
(223,30,l),
(304,544,l),
(47,536,l),
(31,436,l),
(175,381,l),
(106,504,l),
(25,-6,l)
);
}
);
};
guides = (
{
angle = -99;
pos = (63,231);
},
{
angle = -99;
pos = (255,231);
},
{
angle = -99;
pos = (8,231);
},
{
angle = -99;
pos = (310,231);
},
{
angle = -99;
pos = (454,666);
},
{
angle = -99;
pos = (646,666);
}
);
layerId = "927AED37-E9E6-4F96-A08E-421C3785EFC6";
shapes = (
{
closed = 1;
nodes = (
(283,0,l),
(299,100,l),
(155,157,l),
(223,30,l),
(304,544,l),
(47,536,l),
(31,436,l),
(175,381,l),
(106,504,l),
(25,-6,l)
);
}
);
width = 329;
}
);
unicode = 305;
},
{
glyphname = idieresis;
kernLeft = n;
kernRight = l;
layers = (
{
background = {
shapes = (
{
closed = 1;
nodes = (
(187,2,l),
(189,17,l),
(99,29,l),
(104,22,l),
(184,525,l),
(77,520,l),
(75,505,l),
(168,492,l),
(160,502,l),
(80,-2,l)
);
},
{
closed = 1;
nodes = (
(130,663,o),
(142,678,o),
(142,696,cs),
(142,712,o),
(133,722,o),
(120,722,cs),
(104,722,o),
(92,708,o),
(92,690,cs),
(92,674,o),
(101,663,o),
(114,663,cs)
);
},
{
closed = 1;
nodes = (
(287,663,o),
(299,678,o),
(299,696,cs),
(299,712,o),
(290,722,o),
(277,722,cs),
(261,722,o),
(249,708,o),
(249,690,cs),
(249,674,o),
(258,663,o),
(271,663,cs)
);
}
);
};
layerId = "075BA79B-D813-4287-A9DD-CCAF2D535ED3";
shapes = (
{
closed = 1;
nodes = (
(187,2,l),
(189,17,l),
(99,29,l),
(104,22,l),
(184,525,l),
(77,520,l),
(75,505,l),
(168,492,l),
(160,502,l),
(80,-2,l)
);
},
{
closed = 1;
nodes = (
(130,663,o),
(142,678,o),
(142,696,cs),
(142,712,o),
(133,722,o),
(120,722,cs),
(104,722,o),
(92,708,o),
(92,690,cs),
(92,674,o),
(101,663,o),
(114,663,cs)
);
},
{
closed = 1;
nodes = (
(287,663,o),
(299,678,o),
(299,696,cs),
(299,712,o),
(290,722,o),
(277,722,cs),
(261,722,o),
(249,708,o),
(249,690,cs),
(249,674,o),
(258,663,o),
(271,663,cs)
);
}
);
width = 263;
},
{
background = {
shapes = (
{
closed = 1;
nodes = (
(283,0,l),
(299,100,l),
(155,157,l),
(223,30,l),
(304,544,l),
(47,536,l),
(31,436,l),
(175,381,l),
(106,504,l),
(25,-6,l)
);
},
{
closed = 1;
nodes = (
(167,604,o),
(208,646,o),
(208,709,cs),
(208,764,o),
(176,798,o),
(126,798,cs),
(69,798,o),
(30,754,o),
(30,693,cs),
(30,639,o),
(60,604,o),
(111,604,cs)
);
},
{
closed = 1;
nodes = (
(374,604,o),
(415,646,o),
(415,709,cs),
(415,764,o),
(383,798,o),
(333,798,cs),
(276,798,o),
(237,754,o),
(237,693,cs),
(237,639,o),
(267,604,o),
(318,604,cs)
);
}
);
};
layerId = "927AED37-E9E6-4F96-A08E-421C3785EFC6";
shapes = (
{
closed = 1;
nodes = (
(283,0,l),
(299,100,l),
(155,157,l),
(223,30,l),
(304,544,l),
(47,536,l),
(31,436,l),
(175,381,l),
(106,504,l),
(25,-6,l)
);
},
{
closed = 1;
nodes = (
(167,604,o),
(208,646,o),
(208,709,cs),
(208,764,o),
(176,798,o),
(126,798,cs),
(69,798,o),
(30,754,o),
(30,693,cs),
(30,639,o),
(60,604,o),
(111,604,cs)
);
},
{
closed = 1;
nodes = (
(374,604,o),
(415,646,o),
(415,709,cs),
(415,764,o),
(383,798,o),
(333,798,cs),
(276,798,o),
(237,754,o),
(237,693,cs),
(237,639,o),
(267,604,o),
(318,604,cs)
);
}
);
width = 332;
}
);
unicode = 239;
},
{
glyphname = idieresisacute;
kernLeft = n;
kernRight = l;
layers = (
{
background = {
shapes = (
{
closed = 1;
nodes = (
(187,2,l),
(189,17,l),
(99,29,l),
(104,22,l),
(184,525,l),
(77,520,l),
(75,505,l),
(168,492,l),
(160,502,l),
(80,-2,l)
);
},
{
closed = 1;
nodes = (
(289,624,o),
(303,637,o),
(303,660,cs),
(303,674,o),
(295,683,o),
(282,683,cs),
(268,683,o),
(254,671,o),
(254,649,cs),
(254,634,o),
(262,624,o),
(275,624,cs)
);
},
{
closed = 1;
nodes = (
(119,624,o),
(133,637,o),
(133,660,cs),
(133,674,o),
(125,683,o),
(112,683,cs),
(97,683,o),
(84,671,o),
(84,647,cs),
(84,633,o),
(92,624,o),
(105,624,cs)
);
},
{
closed = 1;
nodes = (
(314,774,l),
(294,794,l),
(180,684,l),
(191,671,l)
);
}
);
};
layerId = "075BA79B-D813-4287-A9DD-CCAF2D535ED3";
shapes = (
{
closed = 1;
nodes = (
(187,2,l),
(189,17,l),
(99,29,l),
(104,22,l),
(184,525,l),
(77,520,l),
(75,505,l),
(168,492,l),
(160,502,l),
(80,-2,l)
);
},
{
closed = 1;
nodes = (
(289,624,o),
(303,637,o),
(303,660,cs),
(303,674,o),
(295,683,o),
(282,683,cs),
(268,683,o),
(254,671,o),
(254,649,cs),
(254,634,o),
(262,624,o),
(275,624,cs)
);
},
{
closed = 1;
nodes = (
(119,624,o),
(133,637,o),
(133,660,cs),
(133,674,o),
(125,683,o),
(112,683,cs),
(97,683,o),
(84,671,o),
(84,647,cs),
(84,633,o),
(92,624,o),
(105,624,cs)
);
},
{
closed = 1;
nodes = (
(314,774,l),
(294,794,l),
(180,684,l),
(191,671,l)
);
}
);
width = 263;
},
{
background = {
shapes = (
{
closed = 1;
nodes = (
(283,0,l),
(299,100,l),
(155,157,l),
(223,30,l),
(304,544,l),
(47,536,l),
(31,436,l),
(175,381,l),
(106,504,l),
(25,-6,l)
);
},
{
closed = 1;
nodes = (
(381,578,o),
(422,618,o),
(422,687,cs),
(422,740,o),
(392,772,o),
(343,772,cs),
(292,772,o),
(252,731,o),
(252,663,cs),
(252,610,o),
(280,578,o),
(330,578,cs)
);
},
{
closed = 1;
nodes = (
(151,578,o),
(194,618,o),
(194,687,cs),
(194,740,o),
(164,772,o),
(114,772,cs),
(63,772,o),
(24,731,o),
(24,663,cs),
(24,610,o),
(52,578,o),
(101,578,cs)
);
},
{
closed = 1;
nodes = (
(425,863,l),
(343,964,l),
(163,792,l),
(218,725,l)
);
}
);
};
layerId = "927AED37-E9E6-4F96-A08E-421C3785EFC6";
shapes = (
{
closed = 1;
nodes = (
(283,0,l),
(299,100,l),
(155,157,l),
(223,30,l),
(304,544,l),
(47,536,l),
(31,436,l),
(175,381,l),
(106,504,l),
(25,-6,l)
);
},
{
closed = 1;
nodes = (
(381,578,o),
(422,618,o),
(422,687,cs),
(422,740,o),
(392,772,o),
(343,772,cs),
(292,772,o),
(252,731,o),
(252,663,cs),
(252,610,o),
(280,578,o),
(330,578,cs)
);
},
{
closed = 1;
nodes = (
(151,578,o),
(194,618,o),
(194,687,cs),
(194,740,o),
(164,772,o),
(114,772,cs),
(63,772,o),
(24,731,o),
(24,663,cs),
(24,610,o),
(52,578,o),
(101,578,cs)
);
},
{
closed = 1;
nodes = (
(425,863,l),
(343,964,l),
(163,792,l),
(218,725,l)
);
}
);
width = 329;
}
);
unicode = 7727;
},
{
glyphname = iogonek;
kernLeft = n;
kernRight = l;
layers = (
{
background = {
shapes = (
{
closed = 1;
nodes = (
(187,2,l),
(189,17,l),
(96,29,l),
(103,19,l),
(184,525,l),
(77,520,l),
(75,505,l),
(168,492,l),
(160,502,l),
(80,-2,l)
);
},
{
closed = 1;
nodes = (
(95,-216,o),
(111,-214,o),
(128,-211,c),
(127,-193,l),
(113,-196,o),
(100,-197,o),
(89,-197,cs),
(36,-197,o),
(8,-174,o),
(8,-134,cs),
(8,-84,o),
(51,-28,o),
(134,7,c),
(113,16,l),
(31,-21,o),
(-13,-83,o),
(-13,-138,cs),
(-13,-185,o),
(18,-216,o),
(79,-216,cs)
);
},
{
closed = 1;
nodes = (
(213,663,o),
(225,677,o),
(225,696,cs),
(225,712,o),
(216,722,o),
(202,722,cs),
(185,722,o),
(173,707,o),
(173,689,cs),
(173,673,o),
(182,663,o),
(196,663,cs)
);
}
);
};
guides = (
{
angle = 260.9759;
pos = (245,394);
}
);
layerId = "075BA79B-D813-4287-A9DD-CCAF2D535ED3";
shapes = (
{
closed = 1;
nodes = (
(187,2,l),
(189,17,l),
(96,29,l),
(103,19,l),
(184,525,l),
(77,520,l),
(75,505,l),
(168,492,l),
(160,502,l),
(80,-2,l)
);
},
{
closed = 1;
nodes = (
(95,-216,o),
(111,-214,o),
(128,-211,c),
(127,-193,l),
(113,-196,o),
(100,-197,o),
(89,-197,cs),
(36,-197,o),
(8,-174,o),
(8,-134,cs),
(8,-84,o),
(51,-28,o),
(134,7,c),
(113,16,l),
(31,-21,o),
(-13,-83,o),
(-13,-138,cs),
(-13,-185,o),
(18,-216,o),
(79,-216,cs)
);
},
{
closed = 1;
nodes = (
(213,663,o),
(225,677,o),
(225,696,cs),
(225,712,o),
(216,722,o),
(202,722,cs),
(185,722,o),
(173,707,o),
(173,689,cs),
(173,673,o),
(182,663,o),
(196,663,cs)
);
}
);
width = 263;
},
{
background = {
shapes = (
{
closed = 1;
nodes = (
(283,0,l),
(299,100,l),
(155,157,l),
(223,30,l),
(304,544,l),
(47,536,l),
(31,436,l),
(175,381,l),
(106,504,l),
(25,-6,l)
);
},
{
closed = 1;
nodes = (
(139,-229,o),
(172,-223,o),
(207,-212,c),
(213,-101,l),
(203,-102,o),
(193,-103,o),
(184,-103,cs),
(155,-103,o),
(134,-95,o),
(134,-73,cs),
(134,-45,o),
(170,-14,o),
(224,0,c),
(167,48,l),
(45,5,o),
(-12,-78,o),
(-12,-139,cs),
(-12,-196,o),
(37,-229,o),
(110,-229,cs)
);
},
{
closed = 1;
nodes = (
(289,592,o),
(338,642,o),
(338,712,cs),
(338,773,o),
(301,809,o),
(242,809,cs),
(174,809,o),
(124,760,o),
(124,689,cs),
(124,630,o),
(159,592,o),
(220,592,cs)
);
}
);
};
guides = (
{
angle = 90;
pos = (-505,-102);
},
{
angle = 90;
pos = (-650,-102);
},
{
angle = 90;
pos = (-689,-102);
},
{
angle = 90;
pos = (-465,-102);
},
{
angle = 260.9759;
pos = (352,394);
}
);
layerId = "927AED37-E9E6-4F96-A08E-421C3785EFC6";
shapes = (
{
closed = 1;
nodes = (
(283,0,l),
(299,100,l),
(155,157,l),
(223,30,l),
(304,544,l),
(47,536,l),
(31,436,l),
(175,381,l),
(106,504,l),
(25,-6,l)
);
},
{
closed = 1;
nodes = (
(139,-229,o),
(172,-223,o),
(207,-212,c),
(213,-101,l),
(203,-102,o),
(193,-103,o),
(184,-103,cs),
(155,-103,o),
(134,-95,o),
(134,-73,cs),
(134,-45,o),
(170,-14,o),
(224,0,c),
(167,48,l),
(45,5,o),
(-12,-78,o),
(-12,-139,cs),
(-12,-196,o),
(37,-229,o),
(110,-229,cs)
);
},
{
closed = 1;
nodes = (
(289,592,o),
(338,642,o),
(338,712,cs),
(338,773,o),
(301,809,o),
(242,809,cs),
(174,809,o),
(124,760,o),
(124,689,cs),
(124,630,o),
(159,592,o),
(220,592,cs)
);
}
);
width = 329;
}
);
unicode = 303;
},
{
glyphname = jdotless;
kernLeft = j;
kernRight = j;
layers = (
{
anchors = (
{
name = bottom;
pos = (48,-230);
},
{
name = top;
pos = (167,522);
}
);
background = {
anchors = (
{
name = bottom;
pos = (48,-230);
},
{
name = top;
pos = (167,522);
}
);
shapes = (
{
closed = 1;
nodes = (
(-82,-235,o),
(-72,-236,o),
(-59,-236,cs),
(32,-236,o),
(70,-187,o),
(88,-75,cs),
(183,525,l),
(76,520,l),
(74,505,l),
(165,492,l),
(159,501,l),
(68,-77,ls),
(51,-182,o),
(20,-217,o),
(-63,-217,cs),
(-71,-217,o),
(-81,-217,o),
(-91,-216,c),
(-94,-234,l)
);
}
);
};
guides = (
{
angle = -99;
pos = (137,231);
},
{
angle = -99;
pos = (117,231);
}
);
layerId = "075BA79B-D813-4287-A9DD-CCAF2D535ED3";
shapes = (
{
closed = 1;
nodes = (
(-82,-235,o),
(-72,-236,o),
(-59,-236,cs),
(32,-236,o),
(70,-187,o),
(88,-75,cs),
(183,525,l),
(76,520,l),
(74,505,l),
(165,492,l),
(159,501,l),
(68,-77,ls),
(51,-182,o),
(20,-217,o),
(-63,-217,cs),
(-71,-217,o),
(-81,-217,o),
(-91,-216,c),
(-94,-234,l)
);
}
);
width = 249;
},
{
anchors = (
{
name = bottom;
pos = (80,-230);
},
{
name = top;
pos = (202,540);
}
);
background = {
anchors = (
{
name = bottom;
pos = (80,-230);
},
{
name = top;
pos = (202,540);
}
);
shapes = (
{
closed = 1;
nodes = (
(-113,-241,o),
(-90,-245,o),
(-58,-245,cs),
(70,-245,o),
(190,-183,o),
(224,30,cs),
(305,544,l),
(49,536,l),
(34,436,l),
(107,408,l),
(93,429,l),
(24,-17,ls),
(16,-69,o),
(-11,-105,o),
(-71,-105,cs),
(-85,-105,o),
(-97,-103,o),
(-111,-101,c),
(-142,-235,l)
);
}
);
};
layerId = "927AED37-E9E6-4F96-A08E-421C3785EFC6";
shapes = (
{
closed = 1;
nodes = (
(-113,-241,o),
(-90,-245,o),
(-58,-245,cs),
(70,-245,o),
(190,-183,o),
(224,30,cs),
(305,544,l),
(49,536,l),
(34,436,l),
(107,408,l),
(93,429,l),
(24,-17,ls),
(16,-69,o),
(-11,-105,o),
(-71,-105,cs),
(-85,-105,o),
(-97,-103,o),
(-111,-101,c),
(-142,-235,l)
);
}
);
width = 314;
}
);
unicode = 567;
},
{
glyphname = k;
kernLeft = h;
kernRight = x;
layers = (
{
anchors = (
{
name = bottom;
pos = (217,0);
},
{
name = top;
pos = (294,522);
}
);
background = {
anchors = (
{
name = bottom;
pos = (217,0);
},
{
name = top;
pos = (294,522);
}
);
shapes = (
{
closed = 1;
nodes = (
(87,0,l),
(132,285,l),
(124,283,l),
(271,283,l),
(264,289,l),
(382,0,l),
(469,0,l),
(471,15,l),
(384,31,l),
(393,24,l),
(277,304,l),
(279,292,l),
(430,502,l),
(419,495,l),
(514,510,l),
(516,525,l),
(328,520,l),
(326,505,l),
(413,495,l),
(410,502,l),
(261,296,l),
(270,302,l),
(128,302,l),
(134,297,l),
(208,765,l),
(101,760,l),
(99,745,l),
(190,732,l),
(184,741,l),
(67,0,l)
);
}
);
};
layerId = "075BA79B-D813-4287-A9DD-CCAF2D535ED3";
shapes = (
{
closed = 1;
nodes = (
(87,0,l),
(132,285,l),
(124,283,l),
(271,283,l),
(264,289,l),
(382,0,l),
(469,0,l),
(471,15,l),
(384,31,l),
(393,24,l),
(277,304,l),
(279,292,l),
(430,502,l),
(419,495,l),
(514,510,l),
(516,525,l),
(328,520,l),
(326,505,l),
(413,495,l),
(410,502,l),
(261,296,l),
(270,302,l),
(128,302,l),
(134,297,l),
(208,765,l),
(101,760,l),
(99,745,l),
(190,732,l),
(184,741,l),
(67,0,l)
);
}
);
width = 516;
},
{
anchors = (
{
name = bottom;
pos = (254,0);
},
{
name = top;
pos = (330,540);
}
);
background = {
anchors = (
{
name = bottom;
pos = (254,0);
},
{
name = top;
pos = (330,540);
}
);
shapes = (
{
closed = 1;
nodes = (
(200,0,l),
(238,238,l),
(206,227,l),
(304,227,l),
(281,238,l),
(345,0,l),
(540,0,l),
(556,100,l),
(489,123,l),
(510,99,l),
(437,332,l),
(425,284,l),
(570,453,l),
(516,424,l),
(593,445,l),
(609,545,l),
(351,535,l),
(335,435,l),
(388,420,l),
(378,439,l),
(291,336,l),
(340,357,l),
(227,357,l),
(252,328,l),
(325,785,l),
(67,777,l),
(51,677,l),
(195,622,l),
(126,745,l),
(8,0,l)
);
}
);
};
layerId = "927AED37-E9E6-4F96-A08E-421C3785EFC6";
shapes = (
{
closed = 1;
nodes = (
(200,0,l),
(238,238,l),
(206,227,l),
(304,227,l),
(281,238,l),
(345,0,l),
(540,0,l),
(556,100,l),
(489,123,l),
(510,99,l),
(437,332,l),
(425,284,l),
(570,453,l),
(516,424,l),
(593,445,l),
(609,545,l),
(351,535,l),
(335,435,l),
(388,420,l),
(378,439,l),
(291,336,l),
(340,357,l),
(227,357,l),
(252,328,l),
(325,785,l),
(67,777,l),
(51,677,l),
(195,622,l),
(126,745,l),
(8,0,l)
);
}
);
width = 594;
}
);
unicode = 107;
},
{
glyphname = kgreenlandic;
kernLeft = n;
kernRight = x;
layers = (
{
background = {
shapes = (
{
closed = 1;
nodes = (
(100,0,l),
(145,287,l),
(137,278,l),
(284,278,l),
(277,285,l),
(395,0,l),
(482,0,l),
(484,15,l),
(397,31,l),
(406,24,l),
(290,300,l),
(292,288,l),
(443,502,l),
(432,495,l),
(527,510,l),
(529,525,l),
(341,520,l),
(339,505,l),
(426,495,l),
(423,502,l),
(274,292,l),
(283,297,l),
(141,297,l),
(145,287,l),
(183,525,l),
(76,520,l),
(74,505,l),
(165,492,l),
(159,501,l),
(80,0,l)
);
}
);
};
guides = (
{
pos = (533,297);
}
);
layerId = "075BA79B-D813-4287-A9DD-CCAF2D535ED3";
shapes = (
{
closed = 1;
nodes = (
(100,0,l),
(145,287,l),
(137,278,l),
(284,278,l),
(277,285,l),
(395,0,l),
(482,0,l),
(484,15,l),
(397,31,l),
(406,24,l),
(290,300,l),
(292,288,l),
(443,502,l),
(432,495,l),
(527,510,l),
(529,525,l),
(341,520,l),
(339,505,l),
(426,495,l),
(423,502,l),
(274,292,l),
(283,297,l),
(141,297,l),
(145,287,l),
(183,525,l),
(76,520,l),
(74,505,l),
(165,492,l),
(159,501,l),
(80,0,l)
);
}
);
width = 529;
},
{
background = {
shapes = (
{
closed = 1;
nodes = (
(218,0,l),
(257,245,l),
(224,222,l),
(322,222,l),
(298,242,l),
(363,0,l),
(558,0,l),
(574,100,l),
(507,123,l),
(528,99,l),
(455,330,l),
(443,283,l),
(588,453,l),
(534,424,l),
(611,445,l),
(627,545,l),
(369,535,l),
(353,435,l),
(406,420,l),
(396,439,l),
(306,332,l),
(358,352,l),
(245,352,l),
(270,328,l),
(305,545,l),
(47,537,l),
(31,437,l),
(175,382,l),
(106,505,l),
(26,0,l)
);
}
);
};
guides = (
{
pos = (543,357);
}
);
layerId = "927AED37-E9E6-4F96-A08E-421C3785EFC6";
shapes = (
{
closed = 1;
nodes = (
(218,0,l),
(257,245,l),
(224,222,l),
(322,222,l),
(298,242,l),
(363,0,l),
(558,0,l),
(574,100,l),
(507,123,l),
(528,99,l),
(455,330,l),
(443,283,l),
(588,453,l),
(534,424,l),
(611,445,l),
(627,545,l),
(369,535,l),
(353,435,l),
(406,420,l),
(396,439,l),
(306,332,l),
(358,352,l),
(245,352,l),
(270,328,l),
(305,545,l),
(47,537,l),
(31,437,l),
(175,382,l),
(106,505,l),
(26,0,l)
);
}
);
width = 612;
}
);
unicode = 312;
},
{
glyphname = l;
kernLeft = h;
kernRight = l;
layers = (
{
anchors = (
{
name = bottom;
pos = (88,0);
},
{
name = center;
pos = (261,385);
},
{
name = top;
pos = (179,740);
},
{
name = topright;
pos = (309,762);
}
);
background = {
anchors = (
{
name = bottom;
pos = (88,0);
},
{
name = center;
pos = (261,385);
},
{
name = top;
pos = (179,740);
},
{
name = topright;
pos = (309,762);
}
);
shapes = (
{
closed = 1;
nodes = (
(174,2,l),
(176,17,l),
(86,29,l),
(91,22,l),
(209,765,l),
(102,760,l),
(100,745,l),
(191,732,l),
(185,741,l),
(67,-2,l)
);
}
);
};
guides = (
{
angle = 260.9759;
pos = (150,394);
}
);
layerId = "075BA79B-D813-4287-A9DD-CCAF2D535ED3";
shapes = (
{
closed = 1;
nodes = (
(174,2,l),
(176,17,l),
(86,29,l),
(91,22,l),
(209,765,l),
(102,760,l),
(100,745,l),
(191,732,l),
(185,741,l),
(67,-2,l)
);
}
);
width = 250;
},
{
anchors = (
{
name = bottom;
pos = (109,0);
},
{
name = center;
pos = (392,367);
},
{
name = top;
pos = (223,750);
},
{
name = topright;
pos = (355,780);
}
);
background = {
anchors = (
{
name = bottom;
pos = (109,0);
},
{
name = center;
pos = (392,367);
},
{
name = top;
pos = (223,750);
},
{
name = topright;
pos = (355,780);
}
);
shapes = (
{
closed = 1;
nodes = (
(266,0,l),
(283,103,l),
(133,160,l),
(206,33,l),
(325,785,l),
(67,776,l),
(51,672,l),
(195,623,l),
(126,745,l),
(7,-6,l)
);
}
);
};
guides = (
{
angle = -99;
pos = (83,472);
},
{
angle = -99;
pos = (275,472);
},
{
angle = -99;
pos = (29,472);
},
{
angle = -99;
pos = (656,472);
}
);
layerId = "927AED37-E9E6-4F96-A08E-421C3785EFC6";
shapes = (
{
closed = 1;
nodes = (
(266,0,l),
(283,103,l),
(133,160,l),
(206,33,l),
(325,785,l),
(67,776,l),
(51,672,l),
(195,623,l),
(126,745,l),
(7,-6,l)
);
}
);
width = 312;
}
);
unicode = 108;
},
{
glyphname = lslash;
kernLeft = lslash;
kernRight = lslash;
layers = (
{
background = {
shapes = (
{
closed = 1;
nodes = (
(192,2,l),
(194,17,l),
(104,29,l),
(109,22,l),
(227,765,l),
(120,760,l),
(118,745,l),
(209,732,l),
(203,741,l),
(85,-2,l)
);
},
{
closed = 1;
nodes = (
(265,438,l),
(261,455,l),
(47,351,l),
(51,334,l)
);
}
);
};
guides = (
{
angle = -99;
pos = (178,481);
}
);
layerId = "075BA79B-D813-4287-A9DD-CCAF2D535ED3";
shapes = (
{
closed = 1;
nodes = (
(192,2,l),
(194,17,l),
(104,29,l),
(109,22,l),
(227,765,l),
(120,760,l),
(118,745,l),
(209,732,l),
(203,741,l),
(85,-2,l)
);
},
{
closed = 1;
nodes = (
(265,438,l),
(261,455,l),
(47,351,l),
(51,334,l)
);
}
);
width = 284;
},
{
background = {
shapes = (
{
closed = 1;
nodes = (
(297,0,l),
(314,103,l),
(164,160,l),
(237,33,l),
(356,785,l),
(98,776,l),
(82,672,l),
(226,623,l),
(157,745,l),
(38,-6,l)
);
},
{
closed = 1;
nodes = (
(392,426,l),
(359,536,l),
(10,376,l),
(44,266,l)
);
}
);
};
guides = (
{
angle = -99;
pos = (207,480);
}
);
layerId = "927AED37-E9E6-4F96-A08E-421C3785EFC6";
shapes = (
{
closed = 1;
nodes = (
(297,0,l),
(314,103,l),
(164,160,l),
(237,33,l),
(356,785,l),
(98,776,l),
(82,672,l),
(226,623,l),
(157,745,l),
(38,-6,l)
);
},
{
closed = 1;
nodes = (
(392,426,l),
(359,536,l),
(10,376,l),
(44,266,l)
);
}
);
width = 371;
}
);
unicode = 322;
},
{
glyphname = m;
kernLeft = n;
kernRight = n;
layers = (
{
anchors = (
{
name = bottom;
pos = (416,0);
},
{
name = top;
pos = (522,522);
}
);
background = {
anchors = (
{
name = bottom;
pos = (416,0);
},
{
name = top;
pos = (522,522);
}
);
shapes = (
{
closed = 1;
nodes = (
(843,2,l),
(845,17,l),
(752,29,l),
(759,19,l),
(814,360,ls),
(833,477,o),
(778,528,o),
(710,528,cs),
(638,528,o),
(533,470,o),
(470,301,c),
(476,298,l),
(486,360,ls),
(505,477,o),
(450,528,o),
(382,528,cs),
(310,528,o),
(205,470,o),
(142,301,c),
(147,302,l),
(184,525,l),
(77,520,l),
(75,505,l),
(166,492,l),
(160,502,l),
(80,0,l),
(100,0,l),
(130,187,ls),
(165,408,o),
(295,509,o),
(381,509,cs),
(437,509,o),
(483,466,o),
(466,361,cs),
(408,0,l),
(428,0,l),
(458,187,ls),
(493,407,o),
(622,509,o),
(709,509,cs),
(765,509,o),
(811,466,o),
(794,361,cs),
(736,-2,l)
);
}
);
};
layerId = "075BA79B-D813-4287-A9DD-CCAF2D535ED3";
shapes = (
{
closed = 1;
nodes = (
(843,2,l),
(845,17,l),
(752,29,l),
(759,19,l),
(814,360,ls),
(833,477,o),
(778,528,o),
(710,528,cs),
(638,528,o),
(533,470,o),
(470,301,c),
(476,298,l),
(486,360,ls),
(505,477,o),
(450,528,o),
(382,528,cs),
(310,528,o),
(205,470,o),
(142,301,c),
(147,302,l),
(184,525,l),
(77,520,l),
(75,505,l),
(166,492,l),
(160,502,l),
(80,0,l),
(100,0,l),
(130,187,ls),
(165,408,o),
(295,509,o),
(381,509,cs),
(437,509,o),
(483,466,o),
(466,361,cs),
(408,0,l),
(428,0,l),
(458,187,ls),
(493,407,o),
(622,509,o),
(709,509,cs),
(765,509,o),
(811,466,o),
(794,361,cs),
(736,-2,l)
);
}
);
width = 910;
},
{
anchors = (
{
name = bottom;
pos = (409,0);
},
{
name = top;
pos = (551,540);
}
);
background = {
anchors = (
{
name = bottom;
pos = (409,0);
},
{
name = top;
pos = (551,540);
}
);
shapes = (
{
closed = 1;
nodes = (
(857,0,l),
(873,103,l),
(723,160,l),
(807,99,l),
(848,362,ls),
(865,472,o),
(818,555,o),
(724,555,cs),
(631,555,o),
(516,471,o),
(485,288,c),
(558,364,l),
(560,379,ls),
(573,479,o),
(528,555,o),
(438,555,cs),
(345,555,o),
(227,471,o),
(196,288,c),
(256,399,l),
(293,544,l),
(47,536,l),
(31,436,l),
(175,381,l),
(95,436,l),
(26,0,l),
(219,0,l),
(257,246,ls),
(273,350,o),
(312,403,o),
(346,403,cs),
(378,403,o),
(370,360,o),
(363,315,cs),
(312,0,l),
(505,0,l),
(543,246,ls),
(559,350,o),
(598,403,o),
(632,403,cs),
(664,403,o),
(656,360,o),
(649,315,cs),
(598,-6,l)
);
}
);
};
layerId = "927AED37-E9E6-4F96-A08E-421C3785EFC6";
shapes = (
{
closed = 1;
nodes = (
(857,0,l),
(873,103,l),
(723,160,l),
(807,99,l),
(848,362,ls),
(865,472,o),
(818,555,o),
(724,555,cs),
(631,555,o),
(516,471,o),
(485,288,c),
(558,364,l),
(560,379,ls),
(573,479,o),
(528,555,o),
(438,555,cs),
(345,555,o),
(227,471,o),
(196,288,c),
(256,399,l),
(293,544,l),
(47,536,l),
(31,436,l),
(175,381,l),
(95,436,l),
(26,0,l),
(219,0,l),
(257,246,ls),
(273,350,o),
(312,403,o),
(346,403,cs),
(378,403,o),
(370,360,o),
(363,315,cs),
(312,0,l),
(505,0,l),
(543,246,ls),
(559,350,o),
(598,403,o),
(632,403,cs),
(664,403,o),
(656,360,o),
(649,315,cs),
(598,-6,l)
);
}
);
width = 901;
}
);
metricLeft = n;
unicode = 109;
},
{
glyphname = n;
kernLeft = n;
kernRight = n;
layers = (
{
anchors = (
{
name = bottom;
pos = (257,0);
},
{
name = top;
pos = (339,522);
},
{
name = topleft;
pos = (77,522);
}
);
background = {
anchors = (
{
name = bottom;
pos = (257,0);
},
{
name = top;
pos = (339,522);
},
{
name = topleft;
pos = (77,522);
}
);
shapes = (
{
closed = 1;
nodes = (
(527,2,l),
(529,17,l),
(436,29,l),
(443,19,l),
(498,360,ls),
(517,477,o),
(462,528,o),
(388,528,cs),
(310,528,o),
(205,470,o),
(142,301,c),
(147,302,l),
(184,525,l),
(77,520,l),
(75,505,l),
(166,492,l),
(160,502,l),
(80,0,l),
(100,0,l),
(130,187,ls),
(166,412,o),
(297,509,o),
(388,509,cs),
(448,509,o),
(495,467,o),
(478,361,cs),
(420,-2,l)
);
}
);
};
layerId = "075BA79B-D813-4287-A9DD-CCAF2D535ED3";
shapes = (
{
closed = 1;
nodes = (
(527,2,l),
(529,17,l),
(436,29,l),
(443,19,l),
(498,360,ls),
(517,477,o),
(462,528,o),
(388,528,cs),
(310,528,o),
(205,470,o),
(142,301,c),
(147,302,l),
(184,525,l),
(77,520,l),
(75,505,l),
(166,492,l),
(160,502,l),
(80,0,l),
(100,0,l),
(130,187,ls),
(166,412,o),
(297,509,o),
(388,509,cs),
(448,509,o),
(495,467,o),
(478,361,cs),
(420,-2,l)
);
}
);
width = 594;
},
{
anchors = (
{
name = bottom;
pos = (265,0);
},
{
name = top;
pos = (351,540);
},
{
name = topleft;
pos = (57,540);
}
);
background = {
anchors = (
{
name = bottom;
pos = (265,0);
},
{
name = top;
pos = (351,540);
},
{
name = topleft;
pos = (57,540);
}
);
shapes = (
{
closed = 1;
nodes = (
(583,0,l),
(600,103,l),
(450,160,l),
(534,99,l),
(576,362,ls),
(594,472,o),
(545,555,o),
(441,555,cs),
(345,555,o),
(224,470,o),
(194,288,c),
(256,399,l),
(293,544,l),
(47,536,l),
(31,436,l),
(175,381,l),
(106,504,l),
(26,0,l),
(219,0,l),
(257,246,ls),
(273,350,o),
(312,403,o),
(353,403,cs),
(390,403,o),
(384,359,o),
(377,315,cs),
(324,-6,l)
);
}
);
};
guides = (
{
pos = (478,416);
},
{
pos = (478,315);
},
{
angle = -99;
pos = (101,472);
},
{
angle = -99;
pos = (293,472);
}
);
layerId = "927AED37-E9E6-4F96-A08E-421C3785EFC6";
shapes = (
{
closed = 1;
nodes = (
(583,0,l),
(600,103,l),
(450,160,l),
(534,99,l),
(576,362,ls),
(594,472,o),
(545,555,o),
(441,555,cs),
(345,555,o),
(224,470,o),
(194,288,c),
(256,399,l),
(293,544,l),
(47,536,l),
(31,436,l),
(175,381,l),
(106,504,l),
(26,0,l),
(219,0,l),
(257,246,ls),
(273,350,o),
(312,403,o),
(353,403,cs),
(390,403,o),
(384,359,o),
(377,315,cs),
(324,-6,l)
);
}
);
width = 627;
}
);
unicode = 110;
},
{
glyphname = eng;
kernLeft = n;
kernRight = j;
layers = (
{
background = {
shapes = (
{
closed = 1;
nodes = (
(372,-236,o),
(410,-187,o),
(428,-75,cs),
(498,360,ls),
(517,477,o),
(462,528,o),
(388,528,cs),
(310,528,o),
(205,470,o),
(142,301,c),
(147,302,l),
(184,525,l),
(77,520,l),
(75,505,l),
(166,492,l),
(160,502,l),
(80,0,l),
(100,0,l),
(130,187,ls),
(166,412,o),
(297,509,o),
(388,509,cs),
(448,509,o),
(495,467,o),
(478,361,cs),
(408,-77,ls),
(391,-182,o),
(360,-217,o),
(277,-217,cs),
(269,-217,o),
(259,-217,o),
(249,-216,c),
(246,-234,l),
(258,-235,o),
(268,-236,o),
(281,-236,cs)
);
}
);
};
layerId = "075BA79B-D813-4287-A9DD-CCAF2D535ED3";
shapes = (
{
closed = 1;
nodes = (
(372,-236,o),
(410,-187,o),
(428,-75,cs),
(498,360,ls),
(517,477,o),
(462,528,o),
(388,528,cs),
(310,528,o),
(205,470,o),
(142,301,c),
(147,302,l),
(184,525,l),
(77,520,l),
(75,505,l),
(166,492,l),
(160,502,l),
(80,0,l),
(100,0,l),
(130,187,ls),
(166,412,o),
(297,509,o),
(388,509,cs),
(448,509,o),
(495,467,o),
(478,361,cs),
(408,-77,ls),
(391,-182,o),
(360,-217,o),
(277,-217,cs),
(269,-217,o),
(259,-217,o),
(249,-216,c),
(246,-234,l),
(258,-235,o),
(268,-236,o),
(281,-236,cs)
);
}
);
width = 590;
},
{
background = {
shapes = (
{
closed = 1;
nodes = (
(369,-245,o),
(489,-183,o),
(523,30,cs),
(576,364,ls),
(593,472,o),
(544,555,o),
(445,555,cs),
(343,555,o),
(225,471,o),
(194,288,c),
(256,399,l),
(293,544,l),
(47,536,l),
(31,436,l),
(177,380,l),
(106,504,l),
(26,0,l),
(219,0,l),
(257,246,ls),
(273,350,o),
(312,403,o),
(353,403,cs),
(390,403,o),
(384,359,o),
(377,315,cs),
(323,-17,ls),
(314,-71,o),
(287,-105,o),
(228,-105,cs),
(214,-105,o),
(202,-103,o),
(188,-101,c),
(157,-235,l),
(186,-241,o),
(209,-245,o),
(242,-245,cs)
);
}
);
};
guides = (
{
pos = (152,-245);
}
);
layerId = "927AED37-E9E6-4F96-A08E-421C3785EFC6";
shapes = (
{
closed = 1;
nodes = (
(369,-245,o),
(489,-183,o),
(523,30,cs),
(576,364,ls),
(593,472,o),
(544,555,o),
(445,555,cs),
(343,555,o),
(225,471,o),
(194,288,c),
(256,399,l),
(293,544,l),
(47,536,l),
(31,436,l),
(177,380,l),
(106,504,l),
(26,0,l),
(219,0,l),
(257,246,ls),
(273,350,o),
(312,403,o),
(353,403,cs),
(390,403,o),
(384,359,o),
(377,315,cs),
(323,-17,ls),
(314,-71,o),
(287,-105,o),
(228,-105,cs),
(214,-105,o),
(202,-103,o),
(188,-101,c),
(157,-235,l),
(186,-241,o),
(209,-245,o),
(242,-245,cs)
);
}
);
width = 613;
}
);
metricLeft = n;
metricRight = jdotless;
unicode = 331;
},
{
glyphname = o;
kernLeft = o;
kernRight = o;
layers = (
{
anchors = (
{
name = bottom;
pos = (242,0);
},
{
name = center;
pos = (282,261);
},
{
name = ogonek;
pos = (295,2);
},
{
name = top;
pos = (326,522);
},
{
name = topright;
pos = (464,479);
}
);
background = {
anchors = (
{
name = bottom;
pos = (242,0);
},
{
name = center;
pos = (282,261);
},
{
name = ogonek;
pos = (295,2);
},
{
name = top;
pos = (326,522);
},
{
name = topright;
pos = (464,479);
}
);
shapes = (
{
closed = 1;
nodes = (
(152,528,o),
(62,367,o),
(62,205,cs),
(62,58,o),
(133,-6,o),
(234,-6,cs),
(402,-6,o),
(491,157,o),
(491,318,cs),
(491,461,o),
(423,528,o),
(319,528,cs)
);
},
{
closed = 1;
nodes = (
(417,509,o),
(470,441,o),
(470,315,cs),
(470,163,o),
(385,13,o),
(238,13,cs),
(138,13,o),
(83,82,o),
(83,208,cs),
(83,358,o),
(166,509,o),
(316,509,cs)
);
}
);
};
guides = (
{
angle = 90;
pos = (941,522);
},
{
angle = -99;
pos = (319,435);
},
{
angle = -99;
pos = (301,435);
}
);
layerId = "075BA79B-D813-4287-A9DD-CCAF2D535ED3";
shapes = (
{
closed = 1;
nodes = (
(152,528,o),
(62,367,o),
(62,205,cs),
(62,58,o),
(133,-6,o),
(234,-6,cs),
(402,-6,o),
(491,157,o),
(491,318,cs),
(491,461,o),
(423,528,o),
(319,528,cs)
);
},
{
closed = 1;
nodes = (
(417,509,o),
(470,441,o),
(470,315,cs),
(470,163,o),
(385,13,o),
(238,13,cs),
(138,13,o),
(83,82,o),
(83,208,cs),
(83,358,o),
(166,509,o),
(316,509,cs)
);
}
);
width = 552;
},
{
anchors = (
{
name = bottom;
pos = (242,0);
},
{
name = center;
pos = (289,270);
},
{
name = ogonek;
pos = (336,0);
},
{
name = top;
pos = (327,540);
},
{
name = topright;
pos = (556,505);
}
);
background = {
anchors = (
{
name = bottom;
pos = (242,0);
},
{
name = center;
pos = (289,270);
},
{
name = ogonek;
pos = (336,0);
},
{
name = top;
pos = (327,540);
},
{
name = topright;
pos = (556,505);
}
);
shapes = (
{
closed = 1;
nodes = (
(110,555,o),
(13,377,o),
(13,207,cs),
(13,45,o),
(102,-15,o),
(232,-15,cs),
(455,-15,o),
(553,160,o),
(553,331,cs),
(553,496,o),
(462,555,o),
(333,555,cs)
);
},
{
closed = 1;
nodes = (
(345,415,o),
(357,383,o),
(357,336,cs),
(357,277,o),
(339,125,o),
(257,125,cs),
(219,125,o),
(209,157,o),
(209,205,cs),
(209,263,o),
(224,415,o),
(307,415,cs)
);
}
);
};
guides = (
{
angle = -99;
pos = (310,435);
}
);
layerId = "927AED37-E9E6-4F96-A08E-421C3785EFC6";
shapes = (
{
closed = 1;
nodes = (
(110,555,o),
(13,377,o),
(13,207,cs),
(13,45,o),
(102,-15,o),
(232,-15,cs),
(455,-15,o),
(553,160,o),
(553,331,cs),
(553,496,o),
(462,555,o),
(333,555,cs)
);
},
{
closed = 1;
nodes = (
(345,415,o),
(357,383,o),
(357,336,cs),
(357,277,o),
(339,125,o),
(257,125,cs),
(219,125,o),
(209,157,o),
(209,205,cs),
(209,263,o),
(224,415,o),
(307,415,cs)
);
}
);
width = 565;
}
);
unicode = 111;
},
{
glyphname = ohorn;
kernLeft = o;
kernRight = ohorn;
layers = (
{
anchors = (
{
name = bottom;
pos = (242,0);
},
{
name = top;
pos = (326,522);
}
);
background = {
anchors = (
{
name = bottom;
pos = (242,0);
},
{
name = top;
pos = (326,522);
}
);
shapes = (
{
closed = 1;
nodes = (
(508,497,o),
(552,535,o),
(552,612,cs),
(552,625,o),
(551,640,o),
(547,656,c),
(527,649,l),
(529,634,o),
(531,621,o),
(531,609,cs),
(531,538,o),
(488,513,o),
(387,512,c),
(413,494,l)
);
},
{
closed = 1;
nodes = (
(152,528,o),
(62,367,o),
(62,205,cs),
(62,58,o),
(133,-6,o),
(234,-6,cs),
(402,-6,o),
(491,157,o),
(491,318,cs),
(491,461,o),
(423,528,o),
(319,528,cs)
);
},
{
closed = 1;
nodes = (
(417,509,o),
(470,441,o),
(470,315,cs),
(470,163,o),
(385,13,o),
(238,13,cs),
(138,13,o),
(83,82,o),
(83,208,cs),
(83,358,o),
(166,509,o),
(316,509,cs)
);
}
);
};
layerId = "075BA79B-D813-4287-A9DD-CCAF2D535ED3";
shapes = (
{
closed = 1;
nodes = (
(508,497,o),
(552,535,o),
(552,612,cs),
(552,625,o),
(551,640,o),
(547,656,c),
(527,649,l),
(529,634,o),
(531,621,o),
(531,609,cs),
(531,538,o),
(488,513,o),
(387,512,c),
(413,494,l)
);
},
{
closed = 1;
nodes = (
(152,528,o),
(62,367,o),
(62,205,cs),
(62,58,o),
(133,-6,o),
(234,-6,cs),
(402,-6,o),
(491,157,o),
(491,318,cs),
(491,461,o),
(423,528,o),
(319,528,cs)
);
},
{
closed = 1;
nodes = (
(417,509,o),
(470,441,o),
(470,315,cs),
(470,163,o),
(385,13,o),
(238,13,cs),
(138,13,o),
(83,82,o),
(83,208,cs),
(83,358,o),
(166,509,o),
(316,509,cs)
);
}
);
width = 564;
},
{
anchors = (
{
name = bottom;
pos = (242,0);
},
{
name = top;
pos = (277,540);
}
);
background = {
anchors = (
{
name = bottom;
pos = (242,0);
},
{
name = top;
pos = (277,540);
}
);
shapes = (
{
closed = 1;
nodes = (
(543,450,o),
(628,507,o),
(628,614,cs),
(628,640,o),
(623,669,o),
(612,700,c),
(472,670,l),
(476,648,o),
(479,628,o),
(479,611,cs),
(479,570,o),
(460,545,o),
(406,544,c),
(408,451,l)
);
},
{
closed = 1;
nodes = (
(111,555,o),
(14,384,o),
(14,213,cs),
(14,49,o),
(104,-15,o),
(237,-15,cs),
(455,-15,o),
(552,156,o),
(552,326,cs),
(552,493,o),
(459,555,o),
(328,555,cs)
);
},
{
closed = 1;
nodes = (
(344,415,o),
(356,391,o),
(356,335,cs),
(356,273,o),
(341,125,o),
(257,125,cs),
(220,125,o),
(210,153,o),
(210,210,cs),
(210,276,o),
(223,415,o),
(308,415,cs)
);
}
);
};
layerId = "927AED37-E9E6-4F96-A08E-421C3785EFC6";
shapes = (
{
closed = 1;
nodes = (
(543,450,o),
(628,507,o),
(628,614,cs),
(628,640,o),
(623,669,o),
(612,700,c),
(472,670,l),
(476,648,o),
(479,628,o),
(479,611,cs),
(479,570,o),
(460,545,o),
(406,544,c),
(408,451,l)
);
},
{
closed = 1;
nodes = (
(111,555,o),
(14,384,o),
(14,213,cs),
(14,49,o),
(104,-15,o),
(237,-15,cs),
(455,-15,o),
(552,156,o),
(552,326,cs),
(552,493,o),
(459,555,o),
(328,555,cs)
);
},
{
closed = 1;
nodes = (
(344,415,o),
(356,391,o),
(356,335,cs),
(356,273,o),
(341,125,o),
(257,125,cs),
(220,125,o),
(210,153,o),
(210,210,cs),
(210,276,o),
(223,415,o),
(308,415,cs)
);
}
);
width = 582;
}
);
metricLeft = o;
unicode = 417;
},
{
glyphname = oslash;
kernLeft = o;
kernRight = o;
layers = (
{
anchors = (
{
name = top;
pos = (331.338,522);
}
);
background = {
anchors = (
{
name = top;
pos = (331.338,522);
}
);
guides = (
{
pos = (318,260);
},
{
angle = -99;
pos = (286,229);
}
);
shapes = (
{
closed = 1;
nodes = (
(442,482,l),
(438,477,l),
(128,60,l),
(123,53,l),
(39,-60,l),
(53,-71,l),
(134,39,l),
(139,45,l),
(451,465,l),
(455,470,l),
(537,580,l),
(522,590,l)
);
},
{
closed = 1;
nodes = (
(166,528,o),
(76,367,o),
(76,205,cs),
(76,58,o),
(147,-6,o),
(248,-6,cs),
(416,-6,o),
(505,157,o),
(505,318,cs),
(505,461,o),
(437,528,o),
(333,528,cs)
);
},
{
closed = 1;
nodes = (
(431,509,o),
(484,441,o),
(484,315,cs),
(484,163,o),
(399,13,o),
(252,13,cs),
(152,13,o),
(97,82,o),
(97,208,cs),
(97,358,o),
(180,509,o),
(330,509,cs)
);
}
);
};
guides = (
{
angle = -99;
pos = (81,231);
},
{
angle = -99;
pos = (499,229);
},
{
angle = -99;
pos = (286,229);
}
);
layerId = "075BA79B-D813-4287-A9DD-CCAF2D535ED3";
shapes = (
{
closed = 1;
nodes = (
(442,482,l),
(438,477,l),
(128,60,l),
(123,53,l),
(39,-60,l),
(53,-71,l),
(134,39,l),
(139,45,l),
(451,465,l),
(455,470,l),
(537,580,l),
(522,590,l)
);
},
{
closed = 1;
nodes = (
(166,528,o),
(76,367,o),
(76,205,cs),
(76,58,o),
(147,-6,o),
(248,-6,cs),
(416,-6,o),
(505,157,o),
(505,318,cs),
(505,461,o),
(437,528,o),
(333,528,cs)
);
},
{
closed = 1;
nodes = (
(431,509,o),
(484,441,o),
(484,315,cs),
(484,163,o),
(399,13,o),
(252,13,cs),
(152,13,o),
(97,82,o),
(97,208,cs),
(97,358,o),
(180,509,o),
(330,509,cs)
);
}
);
width = 580;
},
{
anchors = (
{
name = top;
pos = (336,540);
}
);
background = {
anchors = (
{
name = top;
pos = (336,540);
}
);
guides = (
{
angle = 90;
pos = (290,613);
},
{
angle = -99;
pos = (286,231);
}
);
shapes = (
{
closed = 1;
nodes = (
(371,447,l),
(366,432,l),
(178,186,l),
(164,175,l),
(-14,-58,l),
(57,-103,l),
(204,89,l),
(210,104,l),
(402,356,l),
(411,361,l),
(596,603,l),
(526,648,l)
);
},
{
closed = 1;
nodes = (
(120,555,o),
(22,377,o),
(22,207,cs),
(22,46,o),
(110,-15,o),
(241,-15,cs),
(462,-15,o),
(562,160,o),
(562,332,cs),
(562,496,o),
(471,555,o),
(343,555,cs)
);
},
{
closed = 1;
nodes = (
(354,415,o),
(366,390,o),
(366,336,cs),
(366,279,o),
(350,125,o),
(263,125,cs),
(228,125,o),
(218,150,o),
(218,203,cs),
(218,263,o),
(231,415,o),
(319,415,cs)
);
}
);
};
guides = (
{
angle = -99;
pos = (11,230);
},
{
angle = -99;
pos = (286,231);
}
);
layerId = "927AED37-E9E6-4F96-A08E-421C3785EFC6";
shapes = (
{
closed = 1;
nodes = (
(371,447,l),
(366,432,l),
(178,186,l),
(164,175,l),
(-14,-58,l),
(57,-103,l),
(204,89,l),
(210,104,l),
(402,356,l),
(411,361,l),
(596,603,l),
(526,648,l)
);
},
{
closed = 1;
nodes = (
(120,555,o),
(22,377,o),
(22,207,cs),
(22,46,o),
(110,-15,o),
(241,-15,cs),
(462,-15,o),
(562,160,o),
(562,332,cs),
(562,496,o),
(471,555,o),
(343,555,cs)
);
},
{
closed = 1;
nodes = (
(354,415,o),
(366,390,o),
(366,336,cs),
(366,279,o),
(350,125,o),
(263,125,cs),
(228,125,o),
(218,150,o),
(218,203,cs),
(218,263,o),
(231,415,o),
(319,415,cs)
);
}
);
width = 585;
}
);
metricLeft = O;
metricRight = O;
unicode = 248;
},
{
glyphname = oe;
kernLeft = o;
kernRight = e;
layers = (
{
anchors = (
{
name = bottom;
pos = (435,0);
},
{
name = top;
pos = (518,522);
}
);
background = {
anchors = (
{
name = bottom;
pos = (435,0);
},
{
name = top;
pos = (518,522);
}
);
shapes = (
{
closed = 1;
nodes = (
(402,-6,o),
(491,157,o),
(491,318,cs),
(491,461,o),
(423,528,o),
(319,528,cs),
(152,528,o),
(62,367,o),
(62,205,cs),
(62,58,o),
(133,-6,o),
(234,-6,cs)
);
},
{
closed = 1;
nodes = (
(138,13,o),
(83,82,o),
(83,208,cs),
(83,358,o),
(166,509,o),
(316,509,cs),
(417,509,o),
(470,441,o),
(470,315,cs),
(470,163,o),
(385,13,o),
(238,13,cs)
);
},
{
closed = 1;
nodes = (
(682,-6,o),
(740,12,o),
(799,47,c),
(790,63,l),
(735,30,o),
(680,13,o),
(633,13,cs),
(545,13,o),
(482,71,o),
(482,195,cs),
(482,350,o),
(574,509,o),
(725,509,cs),
(798,509,o),
(842,473,o),
(842,422,cs),
(842,321,o),
(666,255,o),
(529,255,cs),
(512,255,o),
(495,256,o),
(480,258,c),
(476,238,l),
(490,237,o),
(503,236,o),
(521,236,cs),
(676,236,o),
(863,308,o),
(863,423,cs),
(863,483,o),
(813,528,o),
(728,528,cs),
(565,528,o),
(462,360,o),
(462,196,cs),
(462,59,o),
(533,-6,o),
(631,-6,cs)
);
}
);
};
guides = (
{
angle = -99;
pos = (504,435);
}
);
layerId = "075BA79B-D813-4287-A9DD-CCAF2D535ED3";
shapes = (
{
closed = 1;
nodes = (
(402,-6,o),
(491,157,o),
(491,318,cs),
(491,461,o),
(423,528,o),
(319,528,cs),
(152,528,o),
(62,367,o),
(62,205,cs),
(62,58,o),
(133,-6,o),
(234,-6,cs)
);
},
{
closed = 1;
nodes = (
(138,13,o),
(83,82,o),
(83,208,cs),
(83,358,o),
(166,509,o),
(316,509,cs),
(417,509,o),
(470,441,o),
(470,315,cs),
(470,163,o),
(385,13,o),
(238,13,cs)
);
},
{
closed = 1;
nodes = (
(682,-6,o),
(740,12,o),
(799,47,c),
(790,63,l),
(735,30,o),
(680,13,o),
(633,13,cs),
(545,13,o),
(482,71,o),
(482,195,cs),
(482,350,o),
(574,509,o),
(725,509,cs),
(798,509,o),
(842,473,o),
(842,422,cs),
(842,321,o),
(666,255,o),
(529,255,cs),
(512,255,o),
(495,256,o),
(480,258,c),
(476,238,l),
(490,237,o),
(503,236,o),
(521,236,cs),
(676,236,o),
(863,308,o),
(863,423,cs),
(863,483,o),
(813,528,o),
(728,528,cs),
(565,528,o),
(462,360,o),
(462,196,cs),
(462,59,o),
(533,-6,o),
(631,-6,cs)
);
}
);
width = 890;
},
{
anchors = (
{
name = bottom;
pos = (410,0);
},
{
name = top;
pos = (494,540);
}
);
background = {
anchors = (
{
name = bottom;
pos = (410,0);
},
{
name = top;
pos = (494,540);
}
);
shapes = (
{
closed = 1;
nodes = (
(430,-15,o),
(522,156,o),
(522,329,cs),
(522,492,o),
(434,555,o),
(309,555,cs),
(105,555,o),
(13,383,o),
(13,210,cs),
(13,49,o),
(98,-15,o),
(225,-15,cs)
);
},
{
closed = 1;
nodes = (
(219,125,o),
(209,153,o),
(209,210,cs),
(209,276,o),
(222,415,o),
(309,415,cs),
(343,415,o),
(355,390,o),
(355,336,cs),
(355,272,o),
(340,125,o),
(255,125,cs)
);
},
{
closed = 1;
nodes = (
(646,-15,o),
(731,8,o),
(815,54,c),
(763,171,l),
(706,143,o),
(656,126,o),
(618,126,cs),
(570,126,o),
(541,154,o),
(541,223,cs),
(541,300,o),
(576,419,o),
(637,419,cs),
(660,419,o),
(673,401,o),
(673,378,cs),
(673,328,o),
(612,302,o),
(558,302,cs),
(548,302,o),
(540,303,o),
(532,304,c),
(522,191,l),
(534,191,o),
(536,190,o),
(555,190,cs),
(717,190,o),
(865,265,o),
(865,398,cs),
(865,494,o),
(789,555,o),
(664,555,cs),
(461,555,o),
(367,392,o),
(367,218,cs),
(367,59,o),
(443,-15,o),
(573,-15,cs)
);
}
);
};
guides = (
{
angle = -99;
pos = (479,435);
}
);
layerId = "927AED37-E9E6-4F96-A08E-421C3785EFC6";
shapes = (
{
closed = 1;
nodes = (
(430,-15,o),
(522,156,o),
(522,329,cs),
(522,492,o),
(434,555,o),
(309,555,cs),
(105,555,o),
(13,383,o),
(13,210,cs),
(13,49,o),
(98,-15,o),
(225,-15,cs)
);
},
{
closed = 1;
nodes = (
(219,125,o),
(209,153,o),
(209,210,cs),
(209,276,o),
(222,415,o),
(309,415,cs),
(343,415,o),
(355,390,o),
(355,336,cs),
(355,272,o),
(340,125,o),
(255,125,cs)
);
},
{
closed = 1;
nodes = (
(646,-15,o),
(731,8,o),
(815,54,c),
(763,171,l),
(706,143,o),
(656,126,o),
(618,126,cs),
(570,126,o),
(541,154,o),
(541,223,cs),
(541,300,o),
(576,419,o),
(637,419,cs),
(660,419,o),
(673,401,o),
(673,378,cs),
(673,328,o),
(612,302,o),
(558,302,cs),
(548,302,o),
(540,303,o),
(532,304,c),
(522,191,l),
(534,191,o),
(536,190,o),
(555,190,cs),
(717,190,o),
(865,265,o),
(865,398,cs),
(865,494,o),
(789,555,o),
(664,555,cs),
(461,555,o),
(367,392,o),
(367,218,cs),
(367,59,o),
(443,-15,o),
(573,-15,cs)
);
}
);
width = 863;
}
);
metricLeft = o;
metricRight = e;
unicode = 339;
},
{
glyphname = p;
kernLeft = n;
kernRight = o;
layers = (
{
anchors = (
{
name = bottom;
pos = (244,0);
},
{
name = top;
pos = (326,522);
}
);
background = {
anchors = (
{
name = bottom;
pos = (244,0);
},
{
name = top;
pos = (326,522);
}
);
shapes = (
{
closed = 1;
nodes = (
(162,-230,l),
(164,-215,l),
(59,-201,l),
(67,-209,l),
(103,16,l),
(83,15,l),
(339,-61,o),
(522,78,o),
(522,337,cs),
(522,471,o),
(462,528,o),
(388,528,cs),
(310,528,o),
(201,462,o),
(142,301,c),
(147,293,l),
(184,525,l),
(77,520,l),
(75,505,l),
(168,492,l),
(160,502,l),
(47,-209,l),
(54,-201,l),
(-40,-215,l),
(-42,-230,l)
);
},
{
closed = 1;
nodes = (
(130,187,ls),
(165,411,o),
(299,509,o),
(387,509,cs),
(450,509,o),
(501,458,o),
(501,336,cs),
(501,94,o),
(338,-40,o),
(96,32,c),
(103,15,l)
);
}
);
};
layerId = "075BA79B-D813-4287-A9DD-CCAF2D535ED3";
shapes = (
{
closed = 1;
nodes = (
(162,-230,l),
(164,-215,l),
(59,-201,l),
(67,-209,l),
(103,16,l),
(83,15,l),
(339,-61,o),
(522,78,o),
(522,337,cs),
(522,471,o),
(462,528,o),
(388,528,cs),
(310,528,o),
(201,462,o),
(142,301,c),
(147,293,l),
(184,525,l),
(77,520,l),
(75,505,l),
(168,492,l),
(160,502,l),
(47,-209,l),
(54,-201,l),
(-40,-215,l),
(-42,-230,l)
);
},
{
closed = 1;
nodes = (
(130,187,ls),
(165,411,o),
(299,509,o),
(387,509,cs),
(450,509,o),
(501,458,o),
(501,336,cs),
(501,94,o),
(338,-40,o),
(96,32,c),
(103,15,l)
);
}
);
width = 581;
},
{
anchors = (
{
name = bottom;
pos = (267,0);
},
{
name = top;
pos = (353,540);
}
);
background = {
anchors = (
{
name = bottom;
pos = (267,0);
},
{
name = top;
pos = (353,540);
}
);
shapes = (
{
closed = 1;
nodes = (
(252,-230,l),
(268,-130,l),
(121,-73,l),
(189,-192,l),
(222,20,l),
(119,2,l),
(394,-54,o),
(588,88,o),
(588,344,cs),
(588,499,o),
(517,555,o),
(438,555,cs),
(335,555,o),
(228,459,o),
(206,289,c),
(259,399,l),
(294,544,l),
(46,536,l),
(30,436,l),
(118,406,l),
(96,436,l),
(-2,-186,l),
(102,-76,l),
(-58,-130,l),
(-74,-230,l)
);
},
{
closed = 1;
nodes = (
(257,239,ls),
(273,337,o),
(312,402,o),
(354,402,cs),
(379,402,o),
(392,379,o),
(392,323,cs),
(392,189,o),
(318,92,o),
(198,150,c),
(235,103,l)
);
}
);
};
guides = (
{
angle = -99;
pos = (64,231);
},
{
angle = -99;
pos = (256,231);
},
{
angle = -99;
pos = (311,231);
},
{
angle = -99;
pos = (35,472);
},
{
angle = -99;
pos = (102,472);
}
);
layerId = "927AED37-E9E6-4F96-A08E-421C3785EFC6";
shapes = (
{
closed = 1;
nodes = (
(252,-230,l),
(268,-130,l),
(121,-73,l),
(189,-192,l),
(222,20,l),
(119,2,l),
(394,-54,o),
(588,88,o),
(588,344,cs),
(588,499,o),
(517,555,o),
(438,555,cs),
(335,555,o),
(228,459,o),
(206,289,c),
(259,399,l),
(294,544,l),
(46,536,l),
(30,436,l),
(118,406,l),
(96,436,l),
(-2,-186,l),
(102,-76,l),
(-58,-130,l),
(-74,-230,l)
);
},
{
closed = 1;
nodes = (
(257,239,ls),
(273,337,o),
(312,402,o),
(354,402,cs),
(379,402,o),
(392,379,o),
(392,323,cs),
(392,189,o),
(318,92,o),
(198,150,c),
(235,103,l)
);
}
);
width = 599;
}
);
unicode = 112;
},
{
glyphname = thorn;
kernLeft = h;
kernRight = o;
layers = (
{
anchors = (
{
name = bottom;
pos = (238,0);
},
{
name = top;
pos = (320,522);
}
);
background = {
anchors = (
{
name = bottom;
pos = (238,0);
},
{
name = top;
pos = (320,522);
}
);
shapes = (
{
closed = 1;
nodes = (
(150,-230,l),
(152,-215,l),
(47,-201,l),
(55,-209,l),
(91,16,l),
(71,15,l),
(327,-61,o),
(510,78,o),
(510,337,cs),
(510,471,o),
(450,528,o),
(376,528,cs),
(298,528,o),
(189,462,o),
(130,301,c),
(135,293,l),
(210,765,l),
(103,760,l),
(101,745,l),
(192,732,l),
(186,742,l),
(35,-209,l),
(42,-201,l),
(-52,-215,l),
(-54,-230,l)
);
},
{
closed = 1;
nodes = (
(118,187,ls),
(153,411,o),
(287,509,o),
(375,509,cs),
(438,509,o),
(489,458,o),
(489,336,cs),
(489,94,o),
(326,-40,o),
(84,32,c),
(91,15,l)
);
}
);
};
layerId = "075BA79B-D813-4287-A9DD-CCAF2D535ED3";
shapes = (
{
closed = 1;
nodes = (
(150,-230,l),
(152,-215,l),
(47,-201,l),
(55,-209,l),
(91,16,l),
(71,15,l),
(327,-61,o),
(510,78,o),
(510,337,cs),
(510,471,o),
(450,528,o),
(376,528,cs),
(298,528,o),
(189,462,o),
(130,301,c),
(135,293,l),
(210,765,l),
(103,760,l),
(101,745,l),
(192,732,l),
(186,742,l),
(35,-209,l),
(42,-201,l),
(-52,-215,l),
(-54,-230,l)
);
},
{
closed = 1;
nodes = (
(118,187,ls),
(153,411,o),
(287,509,o),
(375,509,cs),
(438,509,o),
(489,458,o),
(489,336,cs),
(489,94,o),
(326,-40,o),
(84,32,c),
(91,15,l)
);
}
);
width = 569;
},
{
anchors = (
{
name = bottom;
pos = (249,0);
},
{
name = top;
pos = (335,540);
}
);
background = {
anchors = (
{
name = bottom;
pos = (249,0);
},
{
name = top;
pos = (335,540);
}
);
shapes = (
{
closed = 1;
nodes = (
(233,-230,l),
(249,-130,l),
(102,-73,l),
(170,-192,l),
(203,20,l),
(100,2,l),
(375,-54,o),
(569,88,o),
(569,344,cs),
(569,500,o),
(498,557,o),
(419,557,cs),
(316,557,o),
(209,460,o),
(187,289,c),
(259,402,l),
(326,785,l),
(66,777,l),
(50,677,l),
(138,647,l),
(116,677,l),
(-21,-186,l),
(83,-76,l),
(-77,-130,l),
(-93,-230,l)
);
},
{
closed = 1;
nodes = (
(238,239,ls),
(254,337,o),
(293,402,o),
(335,402,cs),
(360,402,o),
(373,379,o),
(373,323,cs),
(373,189,o),
(299,92,o),
(179,150,c),
(216,103,l)
);
}
);
};
layerId = "927AED37-E9E6-4F96-A08E-421C3785EFC6";
shapes = (
{
closed = 1;
nodes = (
(233,-230,l),
(249,-130,l),
(102,-73,l),
(170,-192,l),
(203,20,l),
(100,2,l),
(375,-54,o),
(569,88,o),
(569,344,cs),
(569,500,o),
(498,557,o),
(419,557,cs),
(316,557,o),
(209,460,o),
(187,289,c),
(259,402,l),
(326,785,l),
(66,777,l),
(50,677,l),
(138,647,l),
(116,677,l),
(-21,-186,l),
(83,-76,l),
(-77,-130,l),
(-93,-230,l)
);
},
{
closed = 1;
nodes = (
(238,239,ls),
(254,337,o),
(293,402,o),
(335,402,cs),
(360,402,o),
(373,379,o),
(373,323,cs),
(373,189,o),
(299,92,o),
(179,150,c),
(216,103,l)
);
}
);
width = 580;
}
);
metricRight = p;
unicode = 254;
},
{
glyphname = q;
kernLeft = o;
kernRight = q;
layers = (
{
anchors = (
{
name = bottom;
pos = (248,0);
},
{
name = top;
pos = (330,522);
}
);
background = {
anchors = (
{
name = bottom;
pos = (248,0);
},
{
name = top;
pos = (330,522);
}
);
shapes = (
{
closed = 1;
nodes = (
(466,-230,l),
(468,-215,l),
(378,-201,l),
(384,-209,l),
(500,522,l),
(486,522,l),
(473,482,l),
(481,485,l),
(427,517,o),
(380,528,o),
(337,528,cs),
(176,528,o),
(58,372,o),
(58,185,cs),
(58,52,o),
(118,-6,o),
(192,-6,cs),
(270,-6,o),
(379,60,o),
(438,221,c),
(432,220,l),
(398,3,l),
(364,-209,l),
(372,-201,l),
(262,-215,l),
(260,-230,l)
);
},
{
closed = 1;
nodes = (
(130,13,o),
(79,64,o),
(79,186,cs),
(79,363,o),
(187,509,o),
(336,509,cs),
(381,509,o),
(428,496,o),
(478,467,c),
(473,479,l),
(450,335,l),
(413,111,o),
(281,13,o),
(193,13,cs)
);
}
);
};
layerId = "075BA79B-D813-4287-A9DD-CCAF2D535ED3";
shapes = (
{
closed = 1;
nodes = (
(466,-230,l),
(468,-215,l),
(378,-201,l),
(384,-209,l),
(500,522,l),
(486,522,l),
(473,482,l),
(481,485,l),
(427,517,o),
(380,528,o),
(337,528,cs),
(176,528,o),
(58,372,o),
(58,185,cs),
(58,52,o),
(118,-6,o),
(192,-6,cs),
(270,-6,o),
(379,60,o),
(438,221,c),
(432,220,l),
(398,3,l),
(364,-209,l),
(372,-201,l),
(262,-215,l),
(260,-230,l)
);
},
{
closed = 1;
nodes = (
(130,13,o),
(79,64,o),
(79,186,cs),
(79,363,o),
(187,509,o),
(336,509,cs),
(381,509,o),
(428,496,o),
(478,467,c),
(473,479,l),
(450,335,l),
(413,111,o),
(281,13,o),
(193,13,cs)
);
}
);
width = 567;
},
{
anchors = (
{
name = bottom;
pos = (251,0);
},
{
name = top;
pos = (337,540);
}
);
background = {
anchors = (
{
name = bottom;
pos = (251,0);
},
{
name = top;
pos = (337,540);
}
);
shapes = (
{
closed = 1;
nodes = (
(514,-230,l),
(530,-130,l),
(387,-73,l),
(454,-200,l),
(571,540,l),
(468,539,l),
(437,509,l),
(522,487,l),
(459,534,o),
(392,555,o),
(328,555,cs),
(148,555,o),
(10,392,o),
(10,191,cs),
(10,46,o),
(81,-15,o),
(162,-15,cs),
(262,-15,o),
(379,82,o),
(401,253,c),
(331,145,l),
(293,-3,l),
(262,-195,l),
(361,-76,l),
(204,-130,l),
(188,-230,l)
);
},
{
closed = 1;
nodes = (
(219,140,o),
(206,164,o),
(206,214,cs),
(206,311,o),
(255,411,o),
(324,411,cs),
(346,411,o),
(369,401,o),
(394,378,c),
(363,439,l),
(341,303,ls),
(325,205,o),
(286,140,o),
(244,140,cs)
);
}
);
};
guides = (
{
angle = -99;
pos = (330,231);
},
{
angle = -99;
pos = (522,231);
},
{
angle = -99;
pos = (275,231);
},
{
angle = -99;
pos = (577,231);
}
);
layerId = "927AED37-E9E6-4F96-A08E-421C3785EFC6";
shapes = (
{
closed = 1;
nodes = (
(514,-230,l),
(530,-130,l),
(387,-73,l),
(454,-200,l),
(571,540,l),
(468,539,l),
(437,509,l),
(522,487,l),
(459,534,o),
(392,555,o),
(328,555,cs),
(148,555,o),
(10,392,o),
(10,191,cs),
(10,46,o),
(81,-15,o),
(162,-15,cs),
(262,-15,o),
(379,82,o),
(401,253,c),
(331,145,l),
(293,-3,l),
(262,-195,l),
(361,-76,l),
(204,-130,l),
(188,-230,l)
);
},
{
closed = 1;
nodes = (
(219,140,o),
(206,164,o),
(206,214,cs),
(206,311,o),
(255,411,o),
(324,411,cs),
(346,411,o),
(369,401,o),
(394,378,c),
(363,439,l),
(341,303,ls),
(325,205,o),
(286,140,o),
(244,140,cs)
);
}
);
width = 580;
}
);
unicode = 113;
},
{
glyphname = r;
kernLeft = n;
kernRight = r;
layers = (
{
anchors = (
{
name = bottom;
pos = (100,0);
},
{
name = top;
pos = (256,522);
}
);
background = {
anchors = (
{
name = bottom;
pos = (100,0);
},
{
name = top;
pos = (256,522);
}
);
shapes = (
{
closed = 1;
nodes = (
(100,0,l),
(130,187,ls),
(167,416,o),
(303,512,o),
(385,508,c),
(380,516,l),
(374,410,l),
(391,410,l),
(410,524,l),
(400,527,o),
(390,528,o),
(380,528,cs),
(292,528,o),
(188,435,o),
(143,300,c),
(147,302,l),
(184,525,l),
(77,520,l),
(75,505,l),
(166,492,l),
(160,502,l),
(80,0,l)
);
}
);
};
layerId = "075BA79B-D813-4287-A9DD-CCAF2D535ED3";
shapes = (
{
closed = 1;
nodes = (
(100,0,l),
(130,187,ls),
(167,416,o),
(303,512,o),
(385,508,c),
(380,516,l),
(374,410,l),
(391,410,l),
(410,524,l),
(400,527,o),
(390,528,o),
(380,528,cs),
(292,528,o),
(188,435,o),
(143,300,c),
(147,302,l),
(184,525,l),
(77,520,l),
(75,505,l),
(166,492,l),
(160,502,l),
(80,0,l)
);
}
);
width = 376;
},
{
anchors = (
{
name = bottom;
pos = (127,0);
},
{
name = top;
pos = (275,540);
}
);
background = {
anchors = (
{
name = bottom;
pos = (127,0);
},
{
name = top;
pos = (275,540);
}
);
shapes = (
{
closed = 1;
nodes = (
(219,0,l),
(257,246,ls),
(270,328,o),
(302,413,o),
(364,406,c),
(343,420,l),
(347,335,l),
(462,335,l),
(499,545,l),
(483,552,o),
(464,555,o),
(444,555,cs),
(343,555,o),
(225,471,o),
(194,288,c),
(256,399,l),
(293,544,l),
(47,536,l),
(31,436,l),
(175,381,l),
(106,504,l),
(26,0,l)
);
}
);
};
guides = (
{
angle = 90;
pos = (-316,100);
}
);
layerId = "927AED37-E9E6-4F96-A08E-421C3785EFC6";
shapes = (
{
closed = 1;
nodes = (
(219,0,l),
(257,246,ls),
(270,328,o),
(302,413,o),
(364,406,c),
(343,420,l),
(347,335,l),
(462,335,l),
(499,545,l),
(483,552,o),
(464,555,o),
(444,555,cs),
(343,555,o),
(225,471,o),
(194,288,c),
(256,399,l),
(293,544,l),
(47,536,l),
(31,436,l),
(175,381,l),
(106,504,l),
(26,0,l)
);
}
);
width = 464;
}
);
metricLeft = n;
unicode = 114;
},
